<svg xmlns="http://www.w3.org/2000/svg" width="104" height="104" viewBox="0 0 104 104" fill="none">
<path fill-rule="evenodd" clip-rule="evenodd" d="M50.2233 11.2498C37.8408 12.1389 26.081 17.0381 17.7344 26.0314C9.76386 34.6196 6.90218 46.2192 7.00255 57.8195C7.10192 69.3045 9.76081 81.1721 18.2799 89.0738C26.6278 96.8168 38.7333 98.4392 50.2233 97.9082C61.0947 97.4058 70.9111 93.0563 79.2853 86.2546C88.7363 78.5782 98.0141 69.7396 99.5801 57.8195C101.322 44.5639 97.6907 30.2733 87.8584 20.9962C78.1476 11.8337 63.6776 10.2837 50.2233 11.2498Z" fill="#AEE7D9" fill-opacity="0.7"/>
<mask id="mask0_1155_4193" style="mask-type:alpha" maskUnits="userSpaceOnUse" x="3" y="0" width="101" height="98">
<path fill-rule="evenodd" clip-rule="evenodd" d="M50.9994 3.99993C39.0164 4.88904 22.5768 12.0066 14.4994 20.9999C-7.00058 22.4999 9.90487 46.2191 10.002 57.8194C10.0982 69.3044 12.6713 81.172 20.9156 89.0738C28.9942 96.8167 40.7092 98.4391 51.8285 97.9081C62.3493 97.4057 71.849 93.0562 79.953 86.2545C89.0992 78.5782 98.0777 69.7395 99.5932 57.8194C100.016 54.497 100.001 50.1046 99.5932 45.2414C99.4241 43.2275 107.113 39.4999 102.5 38.4999C106.113 32.9999 97.2031 29.2035 95.9052 24.4999C93.617 16.2076 90.4189 8.82134 86.4994 4.99992C77.1019 -4.16253 64.0197 3.03385 50.9994 3.99993Z" fill="#AEE7D9"/>
</mask>
<g mask="url(#mask0_1155_4193)">
<path d="M98.1697 45.4119C93.6493 41.7981 87.9532 40.9222 85.7698 40.7145C85.8114 40.6242 85.8529 40.5357 85.889 40.449C82.9019 39.0096 81.0147 35.5078 81.0147 35.5078L80.0485 35.5367C79.1437 33.3262 78.6091 30.3012 78.3129 28.0618C79.0787 26.9042 79.6385 25.7953 79.9853 25.0061C80.2724 24.3469 80.6462 23.2579 80.9352 21.9558C72.2033 19.2486 74.5456 12.1493 74.6269 11.9055C74.4896 12.0987 71.9378 15.6366 68.7304 14.4357C68.3493 15.4488 67.5168 16.1405 66.5235 16.5107C65.3658 16.9405 64.4773 17.8923 64.2154 19.0987C64.21 19.124 64.2046 19.1493 64.1992 19.1745C63.3088 23.3608 62.3119 31.7099 68.5913 33.245C69.8338 33.5484 70.9879 33.5104 72.048 33.2323C72.1365 33.7759 72.2213 34.3665 72.3026 34.9968C72.3857 35.6505 72.4615 36.3458 72.5229 37.0791L70.0108 41.3809C66.9804 41.8324 60.9412 42.2839 56.1192 45.1301C52.9027 32.779 63.5418 35.5097 61.1344 17.9627C58.5501 10.2747 64.2371 5.62788 70.0831 6.02339C70.6646 6.05951 71.2443 6.14981 71.8204 6.29248C73.0413 6.58866 74.2332 7.11781 75.3204 7.89619C77.7838 7.52235 80.0918 7.46637 82.1199 7.80409C83.5141 10.5058 85.0366 11.2607 83.9006 8.22669C88.2819 9.60826 90.8807 13.3196 90.0536 20.343C92.7788 31.9753 105.628 38.1988 98.1715 45.4173L98.1697 45.4119Z" fill="#363636"/>
<path d="M80.9343 21.952C80.6472 23.2559 80.2733 24.3431 79.9844 25.0023C79.6376 25.7897 79.0796 26.9004 78.312 28.058C78.1224 28.3506 77.9147 28.6468 77.6962 28.9411C77.6962 28.9411 77.6962 28.9429 77.6944 28.9466C76.3038 30.8085 74.4093 32.6127 72.0453 33.2267C70.987 33.5049 69.8312 33.541 68.5886 33.2394C62.3092 31.7043 63.3043 23.3552 64.1965 19.169C64.2019 19.1437 64.2073 19.1184 64.2127 19.0931C64.4746 17.8867 65.365 16.9368 66.5208 16.5052C67.5159 16.1349 68.3484 15.4432 68.7277 14.4301C71.9351 15.6311 74.487 12.0913 74.6242 11.8999C74.543 12.1437 72.2006 19.243 80.9325 21.9502L80.9343 21.952Z" fill="#F4E0D3"/>
<path d="M79.846 37.8266C76.9835 39.7626 75.136 42.486 74.4479 44.3967C74.3107 42.3487 72.7305 41.2435 72.6582 39.3689C72.6293 38.576 72.5806 37.8067 72.5192 37.0753C72.4578 36.3439 72.3819 35.6467 72.2988 34.993C76.9041 34.583 77.5922 30.2396 77.6951 28.9484C77.6969 28.9466 77.6969 28.9429 77.6969 28.9429C77.9136 28.6468 78.1213 28.3524 78.3127 28.0598C78.6089 30.301 79.1417 33.3243 80.0483 35.5348C80.1368 35.7479 80.2271 35.9538 80.3192 36.1506C80.6045 36.7484 80.395 37.4563 79.846 37.8266Z" fill="#F4E0D3"/>
<path d="M115.577 67.2876C114.34 66.5796 112.194 67.0185 109.7 67.8456C105.052 69.3825 99.1932 72.2612 95.7329 71.5569L99.2131 86.2287L67.6097 100.007L62.595 78.1758C59.0932 77.0868 56.1422 74.0492 56.4619 70.1103C56.5847 68.5879 56.9603 67.0347 57.4696 65.6315C52.0914 65.953 47.4121 63.9772 44.1703 62.6426C42.1585 61.8155 40.7047 61.2375 39.9805 61.6132C44.4629 58.9602 48.3241 51.525 53.789 46.7843C54.5168 46.154 55.297 45.6032 56.1151 45.1246C60.9371 42.2783 66.9763 41.8268 70.0067 41.3753L69.9291 41.509L70.3065 46.7825L70.451 48.7943C70.4925 49.3831 71.2565 49.5817 71.5815 49.0905L73.104 46.7843L74.2526 45.0469L75.4138 46.7843L76.8857 48.9858C77.3589 49.6937 78.3594 49.7966 78.9644 49.1989C79.5965 48.5758 80.4236 47.7378 81.2923 46.7861C82.999 44.9223 84.87 42.6323 85.7657 40.7144C87.9492 40.922 93.647 41.7979 98.1656 45.4117C99.3232 46.3346 100.403 47.438 101.328 48.7546C106.426 56.0201 111.228 63.7009 115.573 67.2876H115.577Z" fill="white"/>
<path d="M85.8885 40.4472C85.8524 40.5357 85.8108 40.6224 85.7693 40.7127C84.8735 42.6307 83.0025 44.9206 81.2959 46.7844C80.4272 47.7362 79.6 48.5759 78.9679 49.1972C78.3629 49.795 77.3624 49.692 76.8893 48.9841L75.4174 46.7826L74.2561 45.0453L73.1075 46.7826L71.5851 49.0888C71.26 49.5819 70.4961 49.3814 70.4545 48.7927L70.3101 46.7808L69.9326 41.5073L70.0103 41.3737L72.5224 37.0718C72.5838 37.8033 72.6326 38.5726 72.6615 39.3654C72.7319 41.24 74.3139 42.3453 74.4512 44.3933C75.1393 42.4826 76.9868 39.7591 79.8493 37.8231C80.3983 37.4529 80.6078 36.745 80.3224 36.1472C80.2303 35.9521 80.14 35.7444 80.0515 35.5313L81.0177 35.5024C81.0177 35.5024 82.905 39.0042 85.8921 40.4436L85.8885 40.4472Z" fill="#AEE7D9"/>
<path d="M44.1725 62.6427L42.7855 64.8243C41.3317 64.2699 38.8142 63.0996 39.6937 61.8607C39.7713 61.7505 39.8671 61.671 39.9808 61.6114C40.705 61.2358 42.1606 61.8137 44.1707 62.6409L44.1725 62.6427Z" fill="#70A390" fill-opacity="0.2"/>
<g style="mix-blend-mode:multiply" opacity="0.5">
<path d="M77.6958 28.9468C77.5929 30.2381 76.9048 34.5814 72.2996 34.9914C72.2183 34.3611 72.1334 33.7706 72.0449 33.227C74.409 32.6111 76.3034 30.8087 77.694 28.9468H77.6958Z" fill="#C26E58"/>
</g>
<path d="M92.9509 59.1102L99.2122 86.2306H88.8604C88.8604 86.2306 90.092 84.6269 90.4316 81.3635C90.5742 79.9801 91.116 78.66 92.0425 77.6251C94.2061 75.2105 93.3265 66.0289 92.373 59.215C92.3206 58.8447 92.866 58.7436 92.9491 59.1084L92.9509 59.1102Z" fill="#70A390" fill-opacity="0.2"/>
<path d="M67.0818 20.2945C67.0168 20.7586 66.5887 21.0837 66.1246 21.0205C65.6604 20.9555 65.3353 20.5274 65.3985 20.0633C65.4635 19.5991 65.8916 19.274 66.3557 19.3372C66.8199 19.4022 67.145 19.8303 67.0818 20.2945Z" fill="#363636"/>
<path d="M73.5203 21.1829C73.4553 21.6471 73.0272 21.9722 72.563 21.9089C72.0988 21.8439 71.7737 21.4159 71.837 20.9517C71.902 20.4875 72.33 20.1624 72.7942 20.2256C73.2584 20.2907 73.5835 20.7187 73.5203 21.1829Z" fill="#363636"/>
<path d="M57.4707 65.6334C58.6139 62.5741 59.4392 57.8135 58.2942 54.9312" stroke="#70A390" stroke-opacity="0.2" stroke-miterlimit="10" stroke-linecap="round"/>
<path d="M74.2171 48.3411C74.2171 48.3411 73.0649 59.4497 71.5154 65.6893C70.9898 67.8059 71.174 70.0291 71.9957 72.0482C74.0455 77.0815 75.521 84.2386 75.521 84.2386" stroke="#70A390" stroke-opacity="0.2" stroke-miterlimit="10" stroke-linecap="round"/>
<path d="M80.4463 77.0886C83.726 80.8577 90.6772 79.6007 92.6872 77.6756" stroke="#70A390" stroke-opacity="0.2" stroke-miterlimit="10" stroke-linecap="round"/>
<path d="M77.2521 52.9319C77.2521 53.4088 76.8655 53.7953 76.3887 53.7953C75.9119 53.7953 75.5254 53.4088 75.5254 52.9319C75.5254 52.4551 75.9119 52.0686 76.3887 52.0686C76.8655 52.0686 77.2521 52.4551 77.2521 52.9319Z" fill="#AEE7D9"/>
<path d="M75.7345 61.7669C75.7345 62.2437 75.348 62.6302 74.8711 62.6302C74.3943 62.6302 74.0078 62.2437 74.0078 61.7669C74.0078 61.2901 74.3943 60.9036 74.8711 60.9036C75.348 60.9036 75.7345 61.2901 75.7345 61.7669Z" fill="#AEE7D9"/>
<path d="M75.7345 72.1512C75.7345 72.628 75.348 73.0145 74.8711 73.0145C74.3943 73.0145 74.0078 72.628 74.0078 72.1512C74.0078 71.6744 74.3943 71.2878 74.8711 71.2878C75.348 71.2878 75.7345 71.6744 75.7345 72.1512Z" fill="#AEE7D9"/>
<path d="M77.2501 83.3268C77.7269 83.3268 78.1134 82.9402 78.1134 82.4634C78.1134 81.9866 77.7269 81.6001 77.2501 81.6001C76.7733 81.6001 76.3867 81.9866 76.3867 82.4634C76.3867 82.9402 76.7733 83.3268 77.2501 83.3268Z" fill="#AEE7D9"/>
<path d="M71.1201 18.9849C72.0484 18.0367 73.9989 18.2733 75.0824 19.729" stroke="#363636" stroke-width="0.5" stroke-miterlimit="10" stroke-linecap="round"/>
<path d="M67.5967 18.6851C67.3077 17.4769 65.7636 17.6792 65.3916 18.5352" stroke="#363636" stroke-width="0.5" stroke-miterlimit="10" stroke-linecap="round"/>
<path d="M57.4707 65.6334C56.9614 67.0366 56.584 68.588 56.4629 70.1122L46.5391 86.4076C42.4828 93.0699 32.6457 92.4974 29.366 85.4197C27.4264 81.2335 25.7324 76.9045 25.0732 73.419C23.4695 64.9363 20.3559 50.7756 19.3717 46.3347C19.2073 45.5924 18.671 44.9892 17.9558 44.7346C16.7187 44.2957 15.4888 43.2735 14.3655 42.3037C14.3655 42.3037 11.5157 42.8527 10.1088 42.3037C9.11009 41.9136 7.68337 40.337 6.93569 39.4503C6.65938 39.1216 6.71536 38.6285 7.0603 38.3721C7.19214 38.2746 7.34746 38.2258 7.50277 38.2258C7.65808 38.2258 7.80979 38.2746 7.94162 38.3703L10.5206 40.2449L13.6413 38.6322L6.20246 36.5571C5.56134 36.3783 5.19472 35.7029 5.39699 35.069C5.55592 34.5687 6.01645 34.249 6.5167 34.249C6.62867 34.249 6.74426 34.2653 6.85623 34.2996L13.3668 36.2645L5.94601 33.3623C5.42047 33.1564 5.13513 32.593 5.2778 32.0494C5.40783 31.5491 5.85933 31.224 6.34694 31.224C6.46433 31.224 6.58172 31.2403 6.6955 31.28L15.0157 34.0323C15.0157 34.0323 11.3748 31.336 9.74399 28.246C9.44781 27.6843 9.65911 26.9908 10.2099 26.6784C10.3905 26.5754 10.5874 26.5303 10.7842 26.5303C11.1707 26.5303 11.5464 26.7181 11.7703 27.0648L13.5059 29.7413L20.6792 33.998L18.9726 29.8984C18.7179 29.2916 18.875 28.5873 19.3608 28.1412C19.5288 27.9877 19.7365 27.9137 19.9424 27.9137C20.2638 27.9137 20.5799 28.0924 20.728 28.4157L22.1565 31.5256C22.1565 31.5256 26.2398 34.6843 25.0389 42.2694L38.972 70.8238L42.7862 64.8279L44.1732 62.6463C47.415 63.9809 52.0925 65.9585 57.4725 65.6352L57.4707 65.6334Z" fill="#F4E0D3"/>
<g style="mix-blend-mode:multiply" opacity="0.5">
<path d="M57.472 65.6334C52.0938 65.9549 47.4145 63.9792 44.1727 62.6445L43.584 63.5692C47.8732 64.232 53.5476 68.281 55.238 72.1241L56.4624 70.1123C56.5853 68.5898 56.9609 67.0367 57.4702 65.6334H57.472Z" fill="#C26E58"/>
</g>
<g style="mix-blend-mode:multiply" opacity="0.5">
<path d="M38.9717 70.822L41.5777 76.1135C41.8053 76.5776 42.5042 76.4187 42.5096 75.9022C42.5168 75.0715 42.3398 74.098 41.6391 73.419C41.594 71.4505 40.3171 68.709 40.3171 68.709L38.9735 70.822H38.9717Z" fill="#C26E58"/>
</g>
<path d="M15.0078 38.7783C15.0078 38.7783 20.2704 36.3077 22.2841 41.5234" stroke="#D7A08E" stroke-width="0.5" stroke-linecap="round" stroke-linejoin="round"/>
<g style="mix-blend-mode:multiply" opacity="0.5">
<path d="M110.969 72.1512L110.84 71.7141L109.701 67.8457C105.836 69.1243 101.139 71.3258 97.6748 71.6292C100.913 72.4166 107.671 70.6432 110.969 72.1494V72.1512Z" fill="#C26E58"/>
</g>
<g style="mix-blend-mode:multiply" opacity="0.5">
<path d="M100.025 89.662C101.816 89.0805 104.301 89.1293 106.36 89.6801C106.987 89.8481 107.328 88.9667 106.745 88.6832C104.41 87.5418 101.145 87.1012 99.4541 87.2583L100.023 89.6639L100.025 89.662Z" fill="#C26E58"/>
</g>
<path d="M82.1172 7.79858C83.8979 8.22118 85.0339 11.2552 83.8979 8.22118C88.2792 9.60276 90.878 13.3141 90.0509 20.3375" fill="#B0423E"/>
<path d="M82.1172 7.79858L83.8979 8.22118C88.2792 9.60276 90.878 13.3141 90.0509 20.3375" fill="#363636"/>
<path d="M68.812 20.5867C68.812 20.5867 68.6802 21.9123 67.5984 22.4215C66.5166 22.9308 68.812 23.8501 68.812 23.8501" stroke="#363636" stroke-width="0.5" stroke-miterlimit="10" stroke-linecap="round"/>
<path d="M67.5967 27.5741C67.5967 27.5741 69.9788 28.5421 72.0466 26.2991" stroke="#363636" stroke-width="0.5" stroke-miterlimit="10" stroke-linecap="round"/>
<path d="M40.732 38.5453C36.6559 38.9787 35.9787 39.6578 35.5453 43.732C35.529 43.8801 35.3141 43.8801 35.2978 43.732C34.8644 39.6559 34.1854 38.9787 30.1111 38.5453C29.963 38.529 29.963 38.3141 30.1111 38.2978C34.1872 37.8644 34.8644 37.1854 35.2978 33.1111C35.3141 32.963 35.529 32.963 35.5453 33.1111C35.9787 37.1872 36.6578 37.8644 40.732 38.2978C40.8801 38.3141 40.8801 38.529 40.732 38.5453Z" fill="white"/>
<path d="M19.602 11.282C13.3081 12.0297 12.2715 13.0916 11.6773 19.4035C11.6556 19.6329 11.3215 19.6383 11.2944 19.4089C10.5468 13.1133 9.48485 12.0767 3.17475 11.4843C2.94539 11.4626 2.93998 11.1285 3.16933 11.1014C9.46318 10.3519 10.4998 9.29003 11.094 2.97993C11.1157 2.75057 11.4498 2.74515 11.4769 2.97451C12.2245 9.26836 13.2864 10.305 19.5984 10.8992C19.8277 10.9208 19.8331 11.2549 19.6038 11.282H19.602Z" fill="white"/>
</g>
<path d="M54.8771 21.1369C50.3661 21.6166 49.6166 22.3681 49.1369 26.8771C49.1189 27.041 48.8811 27.041 48.8631 26.8771C48.3834 22.3661 47.6319 21.6166 43.1229 21.1369C42.959 21.1189 42.959 20.8811 43.1229 20.8631C47.6339 20.3834 48.3834 19.6319 48.8631 15.1229C48.8811 14.959 49.1189 14.959 49.1369 15.1229C49.6166 19.6339 50.3681 20.3834 54.8771 20.8631C55.041 20.8811 55.041 21.1189 54.8771 21.1369Z" fill="white"/>
<rect x="5.5" y="12.5" width="31" height="19" rx="1.5" fill="white" stroke="#008061"/>
<rect x="34.5" y="3.5" width="18" height="14" rx="1.5" fill="#008061" stroke="#008061"/>
<path d="M40.4707 15H39.416V8.2793C39.1621 8.52148 38.8281 8.76367 38.4141 9.00586C38.0039 9.24805 37.6348 9.42969 37.3066 9.55078V8.53125C37.8965 8.25391 38.4121 7.91797 38.8535 7.52344C39.2949 7.12891 39.6074 6.74609 39.791 6.375H40.4707V15ZM45.0408 10.3418C44.6033 10.1816 44.2791 9.95312 44.0681 9.65625C43.8572 9.35938 43.7517 9.00391 43.7517 8.58984C43.7517 7.96484 43.9763 7.43945 44.4255 7.01367C44.8748 6.58789 45.4724 6.375 46.2185 6.375C46.9685 6.375 47.572 6.59375 48.0291 7.03125C48.4861 7.46484 48.7146 7.99414 48.7146 8.61914C48.7146 9.01758 48.6091 9.36523 48.3982 9.66211C48.1912 9.95508 47.8748 10.1816 47.449 10.3418C47.9763 10.5137 48.3767 10.791 48.6502 11.1738C48.9275 11.5566 49.0662 12.0137 49.0662 12.5449C49.0662 13.2793 48.8064 13.8965 48.2869 14.3965C47.7673 14.8965 47.0837 15.1465 46.2361 15.1465C45.3884 15.1465 44.7048 14.8965 44.1853 14.3965C43.6658 13.8926 43.406 13.2656 43.406 12.5156C43.406 11.957 43.5466 11.4902 43.8279 11.1152C44.113 10.7363 44.5173 10.4785 45.0408 10.3418ZM44.8298 8.55469C44.8298 8.96094 44.9607 9.29297 45.2224 9.55078C45.4841 9.80859 45.824 9.9375 46.242 9.9375C46.6482 9.9375 46.9802 9.81055 47.238 9.55664C47.4998 9.29883 47.6306 8.98438 47.6306 8.61328C47.6306 8.22656 47.4959 7.90234 47.2263 7.64062C46.9607 7.375 46.6287 7.24219 46.2302 7.24219C45.8279 7.24219 45.4939 7.37109 45.2283 7.62891C44.9627 7.88672 44.8298 8.19531 44.8298 8.55469ZM44.49 12.5215C44.49 12.8223 44.5603 13.1133 44.7009 13.3945C44.8455 13.6758 45.0584 13.8945 45.3396 14.0508C45.6209 14.2031 45.9236 14.2793 46.2478 14.2793C46.7517 14.2793 47.1677 14.1172 47.4959 13.793C47.824 13.4688 47.988 13.0566 47.988 12.5566C47.988 12.0488 47.8181 11.6289 47.4783 11.2969C47.1423 10.9648 46.7205 10.7988 46.2127 10.7988C45.7166 10.7988 45.3045 10.9629 44.9763 11.291C44.6521 11.6191 44.49 12.0293 44.49 12.5215Z" fill="white"/>
<path d="M38 20L42.7143 17H49L38 20Z" fill="#008061" stroke="#008061" stroke-linejoin="round"/>
<path d="M10 24H20" stroke="#AEE7D9" stroke-linecap="round"/>
<path d="M10 26H20" stroke="#AEE7D9" stroke-linecap="round"/>
<rect x="23" y="17" width="10" height="10" fill="#AEE7D9"/>
<path d="M33 17.4167V19.2917C33 19.4022 32.9561 19.5082 32.878 19.5863C32.7998 19.6644 32.6938 19.7083 32.5833 19.7083C32.4728 19.7083 32.3668 19.6644 32.2887 19.5863C32.2106 19.5082 32.1667 19.4022 32.1667 19.2917V17.8333H30.7083C30.5978 17.8333 30.4918 17.7894 30.4137 17.7113C30.3356 17.6332 30.2917 17.5272 30.2917 17.4167C30.2917 17.3062 30.3356 17.2002 30.4137 17.122C30.4918 17.0439 30.5978 17 30.7083 17H32.5833C32.6938 17 32.7998 17.0439 32.878 17.122C32.9561 17.2002 33 17.3062 33 17.4167ZM32.5833 24.2917C32.4728 24.2917 32.3668 24.3356 32.2887 24.4137C32.2106 24.4918 32.1667 24.5978 32.1667 24.7083V26.1667H30.7083C30.5978 26.1667 30.4918 26.2106 30.4137 26.2887C30.3356 26.3668 30.2917 26.4728 30.2917 26.5833C30.2917 26.6938 30.3356 26.7998 30.4137 26.878C30.4918 26.9561 30.5978 27 30.7083 27H32.5833C32.6938 27 32.7998 26.9561 32.878 26.878C32.9561 26.7998 33 26.6938 33 26.5833V24.7083C33 24.5978 32.9561 24.4918 32.878 24.4137C32.7998 24.3356 32.6938 24.2917 32.5833 24.2917ZM25.2917 26.1667H23.8333V24.7083C23.8333 24.5978 23.7894 24.4918 23.7113 24.4137C23.6332 24.3356 23.5272 24.2917 23.4167 24.2917C23.3062 24.2917 23.2002 24.3356 23.122 24.4137C23.0439 24.4918 23 24.5978 23 24.7083V26.5833C23 26.6938 23.0439 26.7998 23.122 26.878C23.2002 26.9561 23.3062 27 23.4167 27H25.2917C25.4022 27 25.5082 26.9561 25.5863 26.878C25.6644 26.7998 25.7083 26.6938 25.7083 26.5833C25.7083 26.4728 25.6644 26.3668 25.5863 26.2887C25.5082 26.2106 25.4022 26.1667 25.2917 26.1667ZM23.4167 19.7083C23.5272 19.7083 23.6332 19.6644 23.7113 19.5863C23.7894 19.5082 23.8333 19.4022 23.8333 19.2917V17.8333H25.2917C25.4022 17.8333 25.5082 17.7894 25.5863 17.7113C25.6644 17.6332 25.7083 17.5272 25.7083 17.4167C25.7083 17.3062 25.6644 17.2002 25.5863 17.122C25.5082 17.0439 25.4022 17 25.2917 17H23.4167C23.3062 17 23.2002 17.0439 23.122 17.122C23.0439 17.2002 23 17.3062 23 17.4167V19.2917C23 19.4022 23.0439 19.5082 23.122 19.5863C23.2002 19.6644 23.3062 19.7083 23.4167 19.7083ZM30.5 24.5C30.4353 24.5001 30.3714 24.4852 30.3134 24.4564C30.2555 24.4275 30.2051 24.3856 30.1661 24.3339C29.9139 23.9975 29.5867 23.7245 29.2107 23.5364C28.8346 23.3484 28.4199 23.2505 27.9995 23.2505C27.579 23.2505 27.1643 23.3484 26.7883 23.5364C26.4122 23.7245 26.0851 23.9975 25.8328 24.3339C25.7664 24.4223 25.6675 24.4806 25.558 24.4962C25.4485 24.5117 25.3374 24.4831 25.249 24.4167C25.1606 24.3502 25.1022 24.2514 25.0866 24.1419C25.0711 24.0324 25.0997 23.9212 25.1661 23.8328C25.5354 23.3384 26.0276 22.9491 26.5938 22.7036C26.2835 22.4204 26.0661 22.0499 25.9702 21.6409C25.8742 21.2319 25.9042 20.8035 26.0561 20.4118C26.208 20.0201 26.4748 19.6835 26.8214 19.4461C27.168 19.2088 27.5783 19.0818 27.9984 19.0818C28.4185 19.0818 28.8288 19.2088 29.1755 19.4461C29.5221 19.6835 29.7889 20.0201 29.9408 20.4118C30.0927 20.8035 30.1227 21.2319 30.0267 21.6409C29.9307 22.0499 29.7134 22.4204 29.4031 22.7036C29.9697 22.949 30.4622 23.3382 30.8318 23.8328C30.8783 23.8946 30.9067 23.9681 30.9137 24.0451C30.9208 24.1221 30.9063 24.1996 30.8719 24.2689C30.8375 24.3381 30.7845 24.3964 30.7188 24.4372C30.6531 24.478 30.5773 24.4998 30.5 24.5ZM28 22.4167C28.2472 22.4167 28.4889 22.3434 28.6945 22.206C28.9 22.0687 29.0602 21.8734 29.1548 21.645C29.2495 21.4166 29.2742 21.1653 29.226 20.9228C29.1778 20.6803 29.0587 20.4576 28.8839 20.2828C28.7091 20.108 28.4863 19.9889 28.2439 19.9407C28.0014 19.8925 27.7501 19.9172 27.5216 20.0118C27.2932 20.1064 27.098 20.2666 26.9607 20.4722C26.8233 20.6778 26.75 20.9194 26.75 21.1667C26.75 21.4982 26.8817 21.8161 27.1161 22.0505C27.3505 22.285 27.6685 22.4167 28 22.4167Z" fill="#008061"/>
<path d="M10 19H14" stroke="#AEE7D9" stroke-width="2" stroke-linecap="round"/>
</svg>