<svg xmlns="http://www.w3.org/2000/svg" width="1440" height="198" viewBox="0 0 1440 198" fill="none">
<rect width="1440" height="198" fill="url(#paint0_linear_190_1548)"/>
<path fill-rule="evenodd" clip-rule="evenodd" d="M107.708 110.255H121.75V96.8776H107.708V110.255ZM114.728 83.307C110.54 83.3222 106.451 84.5234 102.977 86.759C99.5025 88.9946 96.7989 92.1642 95.2073 95.8678C93.6157 99.5714 93.2076 103.643 94.0345 107.568C94.8613 111.493 96.886 115.096 99.853 117.922C102.82 120.748 106.596 122.67 110.705 123.445C114.813 124.22 119.07 123.815 122.938 122.279C126.805 120.743 130.11 118.146 132.435 114.815C134.76 111.485 136 107.571 136 103.567C135.989 98.1832 133.741 93.0246 129.752 89.2254C125.763 85.4261 120.359 83.2973 114.728 83.307Z" fill="#FFD699" fill-opacity="0.24"/>
<path fill-rule="evenodd" clip-rule="evenodd" d="M114.731 68.8841H114.726V68.8537C114.725 68.3877 114.629 67.9263 114.441 67.496C114.254 67.0657 113.98 66.6749 113.635 66.3459C113.29 66.017 112.88 65.7563 112.429 65.5788C111.979 65.4013 111.496 65.3104 111.008 65.3114H93.3805V65.2903C82.7411 65.3521 72.5632 69.4523 65.0857 76.6888C57.6082 83.9254 53.4437 93.7055 53.5083 103.878C53.5729 114.05 57.8614 123.781 65.4303 130.93C72.9992 138.079 83.2285 142.061 93.868 141.999V141.953H110.99L110.999 141.942C111.977 141.945 112.917 141.578 113.613 140.921C114.309 140.265 114.706 139.372 114.717 138.437L114.731 138.423V123.651H93.3805C87.8856 123.54 82.6558 121.371 78.8162 117.611C74.9765 113.852 72.8338 108.801 72.849 103.546C72.8642 98.2917 75.0361 93.2525 78.8974 89.5131C82.7588 85.7737 88.0011 83.6328 93.4965 83.5509V83.5049H114.728V68.8822L114.731 68.8841Z" fill="#FFD699" fill-opacity="0.24"/>
<path opacity="0.12" fill-rule="evenodd" clip-rule="evenodd" d="M1446.21 38.0381L1446.23 38.0619C1447.76 39.4847 1449 41.1952 1449.87 43.0958C1450.74 44.9964 1451.23 47.0499 1451.3 49.139C1451.38 51.2281 1451.05 53.3119 1450.32 55.2713C1449.59 57.2308 1448.48 59.0275 1447.06 60.5589L1447.02 60.6013L1341.26 173.596C1338.37 176.686 1334.37 178.504 1330.14 178.652C1325.91 178.8 1321.79 177.265 1318.69 174.384L1318.66 174.359C1317.13 172.937 1315.9 171.226 1315.03 169.326C1314.16 167.425 1313.67 165.372 1313.59 163.283C1313.51 161.194 1313.85 159.11 1314.58 157.151C1315.31 155.191 1316.41 153.394 1317.84 151.863L1317.88 151.82L1423.64 38.8219C1426.53 35.733 1430.53 33.9161 1434.76 33.7691C1438.99 33.6221 1443.1 35.1575 1446.21 38.0381Z" fill="url(#paint1_linear_190_1548)"/>
<path opacity="0.12" fill-rule="evenodd" clip-rule="evenodd" d="M1528.23 24.0854L1528.25 24.1093C1529.79 25.5322 1531.02 27.2429 1531.89 29.1436C1532.76 31.0443 1533.25 33.0978 1533.33 35.1869C1533.4 37.276 1533.07 39.3598 1532.34 41.3193C1531.61 43.2787 1530.5 45.0755 1529.08 46.607L1529.04 46.6494L1423.28 159.647C1420.39 162.738 1416.39 164.556 1412.16 164.704C1407.93 164.851 1403.81 163.317 1400.71 160.436L1400.68 160.411C1399.15 158.988 1397.91 157.278 1397.04 155.377C1396.17 153.476 1395.69 151.423 1395.61 149.334C1395.53 147.245 1395.87 145.161 1396.6 143.202C1397.33 141.242 1398.43 139.445 1399.86 137.914L1399.9 137.872L1505.65 24.8773C1508.55 21.7869 1512.54 19.9687 1516.78 19.8209C1521.01 19.6732 1525.12 21.208 1528.22 24.0891L1528.23 24.0854Z" fill="url(#paint2_linear_190_1548)"/>
<defs>
<linearGradient id="paint0_linear_190_1548" x1="720" y1="0" x2="720" y2="198" gradientUnits="userSpaceOnUse">
<stop stop-color="#FFF8E5" stop-opacity="0.2"/>
<stop offset="1" stop-color="#DCEFE8" stop-opacity="0.4"/>
</linearGradient>
<linearGradient id="paint1_linear_190_1548" x1="1408.17" y1="78.6314" x2="1346.54" y2="144.712" gradientUnits="userSpaceOnUse">
<stop stop-color="#FFCA5A"/>
<stop offset="1" stop-color="#008061"/>
</linearGradient>
<linearGradient id="paint2_linear_190_1548" x1="1481.08" y1="74.3081" x2="1419.21" y2="166.924" gradientUnits="userSpaceOnUse">
<stop stop-color="#008061"/>
<stop offset="1" stop-color="#FFCA5A"/>
</linearGradient>
</defs>
</svg>