<svg xmlns="http://www.w3.org/2000/svg" width="180" height="110" viewBox="0 0 180 110" fill="none">
<path d="M35.6335 18.6336C26.2521 19.7473 24.7105 21.3298 23.8233 30.7363C23.7919 31.0793 23.2917 31.0856 23.2508 30.7426C22.1371 21.3612 20.5546 19.8197 11.148 18.9325C10.8051 18.901 10.7988 18.4008 11.1418 18.3599C20.5232 17.2462 22.0679 15.6638 22.9519 6.26035C22.9834 5.91744 23.4836 5.91115 23.5245 6.25406C24.6382 15.6355 26.2206 17.177 35.6272 18.0642C35.9701 18.0957 35.9764 18.5959 35.6335 18.6368V18.6336Z" fill="#AEE7D9"/>
<path d="M143.051 30.9692H38.8267C37.0892 30.9692 35.6807 32.3778 35.6807 34.1153V96.1075C35.6807 97.845 37.0892 99.2535 38.8267 99.2535H143.051C144.788 99.2535 146.197 97.845 146.197 96.1075V34.1153C146.197 32.3778 144.788 30.9692 143.051 30.9692Z" fill="white"/>
<path d="M35.6807 44.7803H146.197" stroke="#AEE7D9" stroke-width="4" stroke-miterlimit="10"/>
<path d="M143.051 30.9692H38.8267C37.0892 30.9692 35.6807 32.3778 35.6807 34.1153V41.6342C35.6807 43.3717 37.0892 44.7802 38.8267 44.7802H143.051C144.788 44.7802 146.197 43.3717 146.197 41.6342V34.1153C146.197 32.3778 144.788 30.9692 143.051 30.9692Z" fill="#AEE7D9"/>
<path d="M57.9512 25.5234H57.8443C56.1068 25.5234 54.6982 26.932 54.6982 28.6695V33.0393C54.6982 34.7768 56.1068 36.1853 57.8443 36.1853H57.9512C59.6887 36.1853 61.0972 34.7768 61.0972 33.0393V28.6695C61.0972 26.932 59.6887 25.5234 57.9512 25.5234Z" fill="white"/>
<path d="M126.437 25.5234H126.33C124.592 25.5234 123.184 26.932 123.184 28.6695V33.0393C123.184 34.7768 124.592 36.1853 126.33 36.1853H126.437C128.174 36.1853 129.583 34.7768 129.583 33.0393V28.6695C129.583 26.932 128.174 25.5234 126.437 25.5234Z" fill="white"/>
<path d="M61.0964 53.2524H52.5645V61.7844H61.0964V53.2524Z" fill="#CCCCCC"/>
<path d="M78.4851 53.2524H69.9531V61.7844H78.4851V53.2524Z" fill="#CCCCCC"/>
<path d="M95.8728 53.2524H87.3408V61.7844H95.8728V53.2524Z" fill="#CCCCCC"/>
<path d="M113.261 53.2524H104.729V61.7844H113.261V53.2524Z" fill="#008061"/>
<path d="M130.649 53.2524H122.117V61.7844H130.649V53.2524Z" fill="#CCCCCC"/>
<path d="M61.0964 68.4414H52.5645V76.9734H61.0964V68.4414Z" fill="#CCCCCC"/>
<path d="M78.4851 68.4414H69.9531V76.9734H78.4851V68.4414Z" fill="#CCCCCC"/>
<path d="M95.8728 68.4414H87.3408V76.9734H95.8728V68.4414Z" fill="#CCCCCC"/>
<path d="M113.261 68.4414H104.729V76.9734H113.261V68.4414Z" fill="#CCCCCC"/>
<path d="M130.649 68.4414H122.117V76.9734H130.649V68.4414Z" fill="#CCCCCC"/>
<path d="M61.0964 83.6304H52.5645V92.1624H61.0964V83.6304Z" fill="#CCCCCC"/>
<path d="M78.4851 83.6304H69.9531V92.1624H78.4851V83.6304Z" fill="#CCCCCC"/>
<path d="M95.8728 83.6304H87.3408V92.1624H95.8728V83.6304Z" fill="#CCCCCC"/>
<path d="M113.261 83.6304H104.729V92.1624H113.261V83.6304Z" fill="#CCCCCC"/>
<path d="M130.649 83.6304H122.117V92.1624H130.649V83.6304Z" fill="#CCCCCC"/>
<path d="M43.5123 88.3651C52.7584 84.5352 57.1492 73.935 53.3193 64.6888C49.4894 55.4427 38.8892 51.0519 29.643 54.8818C20.3969 58.7117 16.0061 69.3119 19.836 78.5581C23.6659 87.8042 34.2661 92.195 43.5123 88.3651Z" fill="white" stroke="#AEE7D9" stroke-width="3" stroke-miterlimit="10"/>
<path d="M28.8467 71.6249L34.3491 76.97L44.303 66.1729" stroke="#AEE7D9" stroke-width="4" stroke-linecap="round" stroke-linejoin="round"/>
<path fill-rule="evenodd" clip-rule="evenodd" d="M145 105.755C154.364 105.755 162 98.1713 162 88.8776C162 79.5839 154.361 72 145 72C135.639 72 128 79.5803 128 88.8776C128 98.175 135.635 105.755 145 105.755Z" fill="#D6B040"/>
<path fill-rule="evenodd" clip-rule="evenodd" d="M144.999 102.479C152.546 102.479 158.699 96.3697 158.699 88.8775C158.699 81.3853 152.546 75.2764 144.999 75.2764C137.453 75.2764 131.3 81.3853 131.3 88.8775C131.3 96.3697 137.453 102.479 144.999 102.479Z" fill="#F3D56D"/>
<path d="M146.648 80.8829C147.343 81.0736 147.923 81.3855 148.389 81.8258C149.036 82.4385 149.446 83.2567 149.627 84.2841L147.014 84.6253C146.944 84.2621 146.822 83.9539 146.648 83.697V80.8865V80.8829ZM146.648 87.256C147.831 87.6596 148.666 88.1476 149.154 88.7236C149.753 89.4317 150.052 90.338 150.052 91.4461C150.052 92.6825 149.675 93.7245 148.925 94.5721C148.341 95.2288 147.583 95.6875 146.652 95.9516V93.5081C146.793 93.409 146.922 93.2916 147.04 93.1558C147.365 92.7742 147.528 92.3303 147.528 91.8166C147.528 91.358 147.391 90.9654 147.118 90.6315C146.996 90.4848 146.841 90.3527 146.652 90.2353V87.2597L146.648 87.256ZM144.279 93.7209V89.4244C144.047 89.3584 143.825 89.285 143.614 89.2079V86.1039C143.799 86.2543 144.021 86.3864 144.279 86.5002V82.9485C144.024 83.0329 143.803 83.1577 143.614 83.3191V80.8205C143.829 80.7728 144.05 80.7361 144.279 80.7141V79.6978H145.773V80.7141C146.083 80.7508 146.375 80.8095 146.648 80.8829V83.6933C146.434 83.3778 146.142 83.1393 145.773 82.9816V86.9918C146.083 87.0762 146.375 87.1643 146.648 87.256V90.2316C146.412 90.0848 146.12 89.9638 145.773 89.8647V93.864C146.105 93.8016 146.397 93.6842 146.648 93.5081V95.9516C146.371 96.0287 146.079 96.0911 145.773 96.1351V98.054H144.279V96.1828C144.05 96.1534 143.825 96.1167 143.614 96.0654V93.2512C143.821 93.4494 144.043 93.6071 144.279 93.7209ZM143.614 89.2079C142.598 88.8337 141.829 88.3274 141.308 87.6853C140.68 86.9074 140.362 85.9645 140.362 84.8601C140.362 83.7557 140.717 82.7981 141.43 82.0349C142.007 81.4222 142.735 81.0186 143.614 80.8205V83.3191C143.5 83.4145 143.4 83.5246 143.308 83.6456C143.067 83.9759 142.949 84.3391 142.949 84.7354C142.949 85.0949 143.06 85.4361 143.278 85.7443C143.37 85.8764 143.485 85.9938 143.618 86.1039V89.2079H143.614ZM143.614 96.0654C142.724 95.8562 141.973 95.4527 141.375 94.8583C140.632 94.1245 140.159 93.0788 139.948 91.7322L142.646 91.4461C142.753 91.9927 142.964 92.466 143.267 92.8586C143.378 93.0054 143.492 93.1338 143.614 93.2512V96.0654Z" fill="#D6B040"/>
<path fill-rule="evenodd" clip-rule="evenodd" d="M160 68.8415C166.059 68.8415 171 63.9343 171 57.9207C171 51.9072 166.057 47 160 47C153.943 47 149 51.9048 149 57.9207C149 63.9366 153.94 68.8415 160 68.8415Z" fill="#D6B040"/>
<path fill-rule="evenodd" clip-rule="evenodd" d="M159.999 66.7215C164.882 66.7215 168.864 62.7687 168.864 57.9208C168.864 53.073 164.882 49.1201 159.999 49.1201C155.116 49.1201 151.135 53.073 151.135 57.9208C151.135 62.7687 155.116 66.7215 159.999 66.7215Z" fill="#F3D56D"/>
<path d="M161.067 52.7478C161.516 52.8712 161.892 53.073 162.193 53.3579C162.612 53.7544 162.877 54.2838 162.994 54.9485L161.304 55.1693C161.258 54.9343 161.179 54.7349 161.067 54.5687V52.7502V52.7478ZM161.067 56.8716C161.832 57.1327 162.372 57.4485 162.688 57.8212C163.075 58.2794 163.269 58.8658 163.269 59.5827C163.269 60.3828 163.025 61.057 162.54 61.6055C162.162 62.0304 161.672 62.3272 161.069 62.4981V60.917C161.16 60.8529 161.244 60.7769 161.32 60.6891C161.531 60.4422 161.636 60.1549 161.636 59.8225C161.636 59.5258 161.547 59.2717 161.37 59.0557C161.292 58.9607 161.191 58.8753 161.069 58.7993V56.8739L161.067 56.8716ZM159.534 61.0547V58.2746C159.383 58.2319 159.24 58.1844 159.104 58.1346V56.1261C159.223 56.2234 159.367 56.3089 159.534 56.3825V54.0844C159.369 54.139 159.226 54.2197 159.104 54.3242V52.7074C159.242 52.6766 159.386 52.6528 159.534 52.6386V51.981H160.5V52.6386C160.701 52.6623 160.89 52.7003 161.067 52.7478V54.5663C160.928 54.3622 160.739 54.2078 160.5 54.1058V56.7006C160.701 56.7552 160.89 56.8122 161.067 56.8716V58.7969C160.914 58.702 160.725 58.6236 160.5 58.5595V61.1473C160.715 61.1069 160.904 61.0309 161.067 60.917V62.4981C160.887 62.548 160.699 62.5883 160.5 62.6168V63.8584H159.534V62.6477C159.386 62.6287 159.24 62.6049 159.104 62.5717V60.7508C159.237 60.879 159.381 60.9811 159.534 61.0547ZM159.104 58.1346C158.446 57.8924 157.949 57.5648 157.611 57.1493C157.205 56.646 156.999 56.0359 156.999 55.3213C156.999 54.6067 157.229 53.9871 157.69 53.4932C158.063 53.0968 158.534 52.8356 159.104 52.7074V54.3242C159.029 54.3859 158.965 54.4571 158.905 54.5355C158.75 54.7491 158.673 54.9842 158.673 55.2406C158.673 55.4732 158.745 55.694 158.886 55.8934C158.946 55.9789 159.02 56.0549 159.106 56.1261V58.1346H159.104ZM159.104 62.5717C158.527 62.4364 158.042 62.1752 157.654 61.7906C157.174 61.3158 156.868 60.6392 156.731 59.7679L158.477 59.5827C158.546 59.9365 158.683 60.2427 158.879 60.4968C158.951 60.5917 159.025 60.6748 159.104 60.7508V62.5717Z" fill="#D6B040"/>
</svg>