<svg xmlns="http://www.w3.org/2000/svg" width="180" height="110" viewBox="0 0 180 110" fill="none">
<path d="M119.498 32.769C102.103 32.769 88 46.648 88 63.7709C88 80.8938 102.103 94.769 119.498 94.769C136.893 94.769 151 80.8901 151 63.7709C151 46.6517 136.897 32.769 119.498 32.769ZM140.696 84.632C135.036 90.2022 127.507 93.2715 119.498 93.2715C111.49 93.2715 103.964 90.2022 98.3005 84.632C92.6367 79.0582 89.5217 71.6524 89.5217 63.7709C89.5217 55.8895 92.6405 48.4836 98.3005 42.9098C98.4327 42.7797 98.5724 42.6571 98.7083 42.527C98.6026 42.8466 98.4855 43.1625 98.2967 43.4374C97.8512 44.0914 97.1073 44.3515 96.6391 44.9647C96.2125 45.5221 95.8726 46.3693 95.7141 46.9973C95.5441 47.6773 95.6461 48.5022 95.4044 49.1785C95.0948 50.0369 94.536 50.5497 94.6417 51.5455C95.8613 51.9023 95.3327 49.7731 96.3559 49.6616C96.6807 50.4568 96.4692 51.9357 96.3748 52.8015C96.2464 53.9943 96.0123 54.2879 96.7335 55.3098C97.3075 56.1198 97.4963 56.6624 98.6026 56.7924C99.6183 56.9113 100.041 57.361 100.464 58.3271C101.246 58.4906 101.721 58.6206 101.823 59.4716C102.163 59.6574 102.801 60.2594 103.16 60.3523C103.681 60.486 104.55 59.7577 105.037 60.3188C105.856 61.2552 103.998 63.704 103.67 64.5512C103.183 65.7886 103.111 67.6057 104.304 68.4938C104.916 68.9509 105.565 69.1701 105.765 69.9951C105.95 70.7605 105.807 71.396 106.15 72.1206C106.687 73.2502 107.918 73.6218 108.794 74.4839C109.941 75.6172 109.862 77.085 109.862 78.6866C109.862 80.2881 110.512 81.6407 110.734 83.1754C110.968 84.7584 111.44 86.2299 111.78 87.7608C112.033 88.9128 113.045 90.6555 114.506 90.4214C114.608 89.8752 114.034 89.4479 113.959 88.909C113.895 88.4185 114.034 87.9058 113.933 87.3818C113.736 86.3414 113.747 85.7282 114.446 84.8253C114.695 84.5057 115.035 84.2419 115.292 83.9223C115.786 83.3017 115.409 83.4838 115.386 82.8038C115.36 81.9529 115.624 82.3728 116.141 82.1052C116.413 81.9677 116.712 81.5515 116.919 81.3397C117.376 80.8752 118.075 80.3179 118.426 79.7642C118.822 79.1436 118.773 78.2778 119.177 77.6387C119.642 76.9029 120.302 76.9029 120.952 76.4236C121.794 75.803 121.446 75.149 121.601 74.2944C121.858 72.8675 122.515 71.2993 123.429 70.1623C124.577 68.7316 125.071 67.5203 123.674 66.1491C122.983 65.4728 122.625 65.6512 121.707 65.4171C121.008 65.2387 120.378 64.7333 119.668 64.6479C119.241 64.5958 118.988 64.7482 118.599 64.6479C118.237 64.555 118.282 64.3357 117.897 64.3394C117.327 64.3469 116.53 65.5174 116.047 64.7668C115.779 64.3506 116.594 63.1987 116.557 62.6375C116.511 61.9538 116.251 60.8353 115.567 60.46C115.311 60.3188 114.737 60.2965 114.42 60.1776C114.046 60.0364 113.683 59.8097 113.351 59.5979C112.917 59.323 112.075 58.8436 111.882 58.3531C111.346 58.3308 110.987 58.041 110.444 58.0484C109.957 58.0558 109.632 58.2751 109.107 58.2193C108.646 58.1673 108.148 57.8106 107.65 57.8775C107.317 57.9221 106.826 58.3457 106.539 58.5055C105.78 58.9254 104.972 59.2301 104.134 59.3861C102.835 59.6239 102.601 59.1372 102.677 57.9518L102.484 57.569C102.967 56.2499 102.099 56.157 101.14 55.8337C101.008 54.8936 102.182 54.221 101.691 53.1917C100.698 53.1397 99.6145 55.8969 98.7725 54.7041C98.2174 53.9163 99.0595 51.7165 99.5503 51.0513C100.041 50.3788 101.831 49.1674 102.677 49.0633C103.334 48.9816 103.908 49.2677 104.161 49.8325C104.436 50.4494 104.078 51.0328 104.157 51.7313C104.995 51.5418 104.78 50.4902 104.742 49.9291C104.682 48.989 105.18 49.0596 105.671 48.3833C106.113 47.7665 106.184 47.0604 106.736 46.4659C107.166 46.0014 107.672 45.5109 108.144 45.0836C108.684 44.5931 109.292 44.6377 109.847 44.2809C110.689 43.7347 109.575 42.7165 110.814 42.7946C111.255 42.8206 111.036 43.0918 111.618 42.9618C111.867 42.9061 112.324 42.6794 112.585 42.5753C113.766 42.1034 112.928 41.9771 112.384 41.3602C111.693 40.5762 112.671 40.7137 113.385 40.5948C113.906 40.5093 113.797 40.3421 114.257 40.6431C114.661 40.9106 114.423 41.2636 115.012 41.245C116.134 41.2079 115.356 40.1043 115.107 39.7364C114.68 39.1084 114.571 38.6699 113.668 38.6476C113.755 38.3652 113.766 37.9936 113.638 37.7224C112.879 37.819 112.747 37.2764 112.173 37.0646C111.206 36.7042 111.361 37.4845 110.965 38.0159C110.557 38.5659 109.779 38.4693 109.477 39.1381C109.167 39.833 109.462 40.3681 108.325 40.1786C108.48 39.7587 108.427 39.2236 108.397 38.774C108.065 38.7331 107.763 38.6513 107.457 38.551C107.457 37.4325 108.718 37.3359 109.575 37.2319C110.534 37.1129 110.848 36.1505 111.705 35.9907C112.505 35.8384 113.079 37.1129 114.065 36.3772C114.627 35.9573 114.367 35.7083 114.163 35.3033C114.106 35.1955 113.823 34.9503 113.747 34.85C113.74 34.8388 113.736 34.8277 113.729 34.8165C114.491 34.6716 115.265 34.5601 116.047 34.4709C116.194 34.8908 116.511 35.3962 116.685 35.686C116.813 35.8978 117.051 36.0428 117.153 36.2769C117.27 36.5407 116.995 36.8714 117.338 37.0535C117.867 37.3322 119.4 35.5263 119.77 35.2327C120.238 34.8611 120.529 34.6567 120.419 34.2963C122.889 34.3706 125.302 34.7348 127.628 35.3739C127.813 35.6006 128.001 35.8384 128.194 36.0948C128.602 36.6522 128.862 37.1575 129.598 37.4065C130.025 37.5514 131.388 37.5254 130.822 38.4841C130.297 39.3685 129.719 38.2091 129.455 37.9304C129.089 37.544 128.009 37.1167 128.043 38.001C128.092 39.3202 131.113 39.1084 130.463 40.5576C130.826 40.7657 131.539 41.115 131.422 41.6352C131.279 42.2781 130.429 41.8693 130.448 42.6868C130.471 43.8462 131.758 44.8012 132.951 44.385C134.224 43.9391 133.265 42.2 134.726 42.0217C135.3 41.9511 135.64 42.1183 136.157 42.5196C136.576 42.8466 136.848 43.5898 137.426 43.5303C137.486 43.1773 137.214 42.9246 137.169 42.5976C137.618 42.7091 138.517 43.2591 138.774 43.6418C139.163 44.2215 139.121 45.0576 140.073 44.3107C139.929 44.1955 139.857 43.9391 139.782 43.8462C140.998 43.8499 141.847 44.3441 142.368 45.3808C143.535 47.6996 140.669 45.8602 140.53 47.0679C139.823 46.8486 139.51 46.2875 138.898 45.9531C138.608 45.7933 138.071 45.8788 137.849 45.719C137.543 45.4998 137.618 45.0947 137.347 44.8792C136.289 44.0245 133.873 45.4069 132.899 45.9568C132.634 46.1055 132.355 46.124 132.174 46.4027C131.864 46.8858 132.298 47.0084 132.2 47.458C132.06 48.1009 131.211 48.3945 130.954 48.911C130.335 50.1446 131.592 51.9134 131.422 53.2883C131.328 54.0501 130.493 54.875 130.814 55.5104C130.954 55.7854 131.434 56.0195 131.619 56.3428C131.785 56.6364 131.856 57.0228 132.075 57.3275C132.789 58.3159 133.816 59.4121 134.651 60.3337C135.126 60.8576 135.772 61.0025 136.489 60.8576C137.082 60.7387 137.981 60.5418 138.528 60.2854C139.261 59.9398 139.359 59.453 140.129 59.7837C140.741 60.0476 141.281 60.813 141.998 60.1776C142.587 60.7462 141.934 61.7346 141.802 62.3663C141.632 63.1764 141.961 63.8787 142.467 64.5698C143.074 65.3948 143.214 65.5397 143.093 66.647C142.995 67.5091 142.776 68.2932 142.587 69.1478C142.406 69.9616 141.881 70.5822 141.908 71.4443C141.934 72.2395 142.285 72.8823 142.18 73.737C142.085 74.4913 142.04 75.3868 141.84 76.1263C141.636 76.8806 141.092 77.5495 140.866 78.3224C140.65 79.0582 140.711 80.0094 141.232 80.6151C141.776 81.2431 142.316 80.8827 142.954 80.407C144.211 79.4669 144.785 77.8691 145.623 76.6019C146.477 75.3051 147.337 74.1234 147.908 72.782C148.028 72.4959 148.176 72.2172 148.323 71.9348C146.941 76.6874 144.355 81.0499 140.703 84.6432L140.696 84.632Z" fill="#FFD699"/>
<path d="M35.7291 28.9963C25.9749 30.1416 24.3721 31.7691 23.4497 41.4433C23.417 41.7959 22.8969 41.8024 22.8543 41.4497C21.6964 31.8014 20.0511 30.216 10.2707 29.3036C9.91416 29.2713 9.90761 28.7568 10.2642 28.7148C20.0184 27.5694 21.6212 25.9419 22.5436 16.2678C22.5763 15.9151 23.0964 15.9086 23.1389 16.2613C24.2969 25.9096 25.9422 27.495 35.7226 28.4074C36.0791 28.4397 36.0857 28.9542 35.7291 28.9963Z" fill="#FFD699"/>
<path d="M101.743 23.6178L100.593 29.5066C100.555 29.7018 100.441 29.8739 100.276 29.985C100.111 30.0961 99.9087 30.137 99.7134 30.0989L93.8247 28.9488C93.6295 28.9107 93.4574 28.7966 93.3463 28.6316C93.2352 28.4666 93.1942 28.2642 93.2324 28.069C93.2705 27.8737 93.3846 27.7017 93.5496 27.5906C93.7146 27.4795 93.917 27.4385 94.1122 27.4766L98.2159 28.2781L96.5577 25.8327C95.6467 24.4788 94.3546 23.4255 92.845 22.806C91.3353 22.1865 89.6758 22.0286 88.0763 22.3523C86.4769 22.676 85.0094 23.4668 83.8595 24.6246C82.7095 25.7825 81.9288 27.2553 81.6159 28.8569C81.5778 29.0521 81.4637 29.2242 81.2987 29.3353C81.1337 29.4464 80.9313 29.4874 80.7361 29.4492C80.5409 29.4111 80.3688 29.297 80.2577 29.132C80.1466 28.967 80.1056 28.7646 80.1438 28.5694C80.5134 26.6767 81.4359 24.9362 82.7947 23.5679C84.1536 22.1996 85.8876 21.2649 87.7776 20.8821C89.6677 20.4993 91.6287 20.6856 93.4129 21.4174C95.197 22.1492 96.7241 23.3936 97.801 24.9933L99.4667 27.4497L100.271 23.3303C100.309 23.1351 100.423 22.963 100.588 22.8519C100.753 22.7408 100.956 22.6999 101.151 22.738C101.346 22.7761 101.518 22.8902 101.629 23.0552C101.741 23.2202 101.782 23.4226 101.743 23.6178Z" fill="#FFD699"/>
<path fill-rule="evenodd" clip-rule="evenodd" d="M61.9998 96.5397C79.6275 96.5397 93.9996 82.264 93.9996 64.7698C93.9996 47.2757 79.6205 33 61.9998 33C44.379 33 30 47.2688 30 64.7698C30 82.2709 44.3721 96.5397 61.9998 96.5397Z" fill="#D6B040"/>
<path fill-rule="evenodd" clip-rule="evenodd" d="M61.9996 90.3722C76.2047 90.3722 87.7872 78.8729 87.7872 64.7698C87.7872 50.6668 76.2047 39.1675 61.9996 39.1675C47.7944 39.1675 36.2119 50.6668 36.2119 64.7698C36.2119 78.8729 47.7944 90.3722 61.9996 90.3722Z" fill="#F3D56D"/>
<path d="M65.1033 49.7205C66.4111 50.0797 67.5033 50.6667 68.3798 51.4955C69.5972 52.6489 70.3693 54.189 70.7102 56.1229L65.792 56.7652C65.6598 56.0814 65.4303 55.5013 65.1033 55.0178V49.7275V49.7205ZM65.1033 61.7171C67.3294 62.4768 68.9015 63.3954 69.8198 64.4797C70.9467 65.8127 71.5102 67.5186 71.5102 69.6043C71.5102 71.9318 70.8007 73.8932 69.3885 75.4886C68.2894 76.7249 66.8633 77.5882 65.1103 78.0855V73.4858C65.3746 73.2993 65.6181 73.0783 65.8407 72.8227C66.4529 72.1045 66.7589 71.2688 66.7589 70.3019C66.7589 69.4386 66.5016 68.6996 65.9868 68.0711C65.7572 67.7948 65.465 67.5462 65.1103 67.3252V61.724L65.1033 61.7171ZM60.6442 73.8863V65.7988C60.2059 65.6745 59.7886 65.5364 59.392 65.3914V59.5485C59.7399 59.8316 60.1572 60.0803 60.6442 60.2944V53.6089C60.1642 53.7677 59.7468 54.0026 59.392 54.3064V49.6031C59.7955 49.5134 60.2129 49.4443 60.6442 49.4028V47.4897H63.4546V49.4028C64.039 49.4719 64.5885 49.5824 65.1033 49.7205V55.0109C64.6998 54.417 64.1503 53.968 63.4546 53.6711V61.2198C64.039 61.3787 64.5885 61.5444 65.1033 61.7171V67.3183C64.6581 67.042 64.1085 66.8141 63.4546 66.6276V74.1557C64.0807 74.0383 64.6303 73.8173 65.1033 73.4858V78.0855C64.5816 78.2305 64.032 78.3479 63.4546 78.4308V82.0429H60.6442V78.5206C60.2129 78.4653 59.7886 78.3963 59.392 78.2996V73.0023C59.7816 73.3753 60.199 73.6722 60.6442 73.8863ZM59.392 65.3914C57.479 64.6869 56.0321 63.7338 55.0512 62.5252C53.8686 61.061 53.2703 59.286 53.2703 57.2072C53.2703 55.1283 53.9382 53.3257 55.2808 51.8892C56.366 50.7358 57.7364 49.9761 59.392 49.6031V54.3064C59.1764 54.486 58.9886 54.6932 58.8146 54.9211C58.3625 55.5427 58.1399 56.2264 58.1399 56.9723C58.1399 57.6492 58.3486 58.2915 58.759 58.8716C58.9329 59.1203 59.1486 59.3413 59.399 59.5485V65.3914H59.392ZM59.392 78.2996C57.7155 77.9059 56.3034 77.1462 55.1764 76.0274C53.7782 74.6461 52.8877 72.6777 52.4912 70.143L57.5694 69.6043C57.7712 70.6334 58.1677 71.5243 58.7381 72.2633C58.9468 72.5396 59.1625 72.7813 59.392 73.0023V78.2996Z" fill="#D6B040"/>
</svg>
