<svg xmlns="http://www.w3.org/2000/svg" width="180" height="110" viewBox="0 0 180 110" fill="none">
<path d="M111.746 25.6336C102.364 26.7473 100.823 28.3298 99.9356 37.7363C99.9042 38.0793 99.404 38.0856 99.3631 37.7426C98.2494 28.3612 96.6669 26.8197 87.2604 25.9325C86.9174 25.901 86.9111 25.4008 87.2541 25.3599C96.6355 24.2462 98.1802 22.6638 99.0642 13.2604C99.0957 12.9174 99.5959 12.9111 99.6368 13.2541C100.75 22.6355 102.333 24.177 111.739 25.0642C112.082 25.0957 112.089 25.5959 111.746 25.6368V25.6336Z" fill="#76AEFA"/>
<path d="M119.951 57.5234H119.844C118.107 57.5234 116.698 58.932 116.698 60.6695V65.0393C116.698 66.7768 118.107 68.1853 119.844 68.1853H119.951C121.689 68.1853 123.097 66.7768 123.097 65.0393V60.6695C123.097 58.932 121.689 57.5234 119.951 57.5234Z" fill="white"/>
<path d="M130.307 90.7976C140.193 90.7976 148.208 87.0335 148.208 82.3902C148.208 77.747 140.193 73.9829 130.307 73.9829C120.42 73.9829 112.405 77.747 112.405 82.3902C112.405 87.0335 120.42 90.7976 130.307 90.7976Z" fill="#D6B040"/>
<path d="M148.204 78.9321H112.401V82.3901H148.204V78.9321Z" fill="#D6B040"/>
<path fill-rule="evenodd" clip-rule="evenodd" d="M130.307 87.3396C140.168 87.3396 148.208 83.5609 148.208 78.9322C148.208 74.3036 140.168 70.5249 130.307 70.5249C120.445 70.5249 112.405 74.3036 112.405 78.9322C112.405 83.5609 120.445 87.3396 130.307 87.3396Z" fill="#D6B040"/>
<path fill-rule="evenodd" clip-rule="evenodd" d="M130.307 85.709C138.876 85.709 145.869 82.6644 145.869 78.9321C145.869 75.1998 138.88 72.1553 130.307 72.1553C121.733 72.1553 114.744 75.1998 114.744 78.9321C114.744 82.6644 121.733 85.709 130.307 85.709Z" fill="#F3D56D"/>
<path d="M132.043 74.9486C132.774 75.0452 133.385 75.1997 133.876 75.42C134.557 75.7252 134.989 76.1347 135.179 76.6448L132.428 76.8148C132.354 76.6332 132.226 76.4786 132.043 76.3511V74.9486ZM132.043 78.1245C133.288 78.3254 134.168 78.5689 134.677 78.8548C135.308 79.2064 135.623 79.6584 135.623 80.2109C135.623 80.8252 135.226 81.3468 134.436 81.768C133.821 82.0964 133.024 82.3243 132.043 82.4557V81.2386C132.191 81.1884 132.327 81.1305 132.451 81.0609C132.794 80.8716 132.965 80.6475 132.965 80.3925C132.965 80.1645 132.821 79.9675 132.533 79.8014C132.405 79.728 132.241 79.6623 132.043 79.6043V78.1207V78.1245ZM129.548 81.3468V79.2064C129.303 79.1755 129.07 79.1368 128.848 79.0982V77.5527C129.042 77.63 129.276 77.6957 129.548 77.7498V75.9802C129.28 76.0227 129.046 76.0845 128.848 76.1657V74.9216C129.074 74.8984 129.307 74.8791 129.548 74.8675V74.3613H131.124V74.8675C131.451 74.8868 131.759 74.9138 132.047 74.9525V76.355C131.821 76.1966 131.514 76.0807 131.124 75.9995V77.997C131.451 78.0395 131.759 78.082 132.047 78.1284V79.612C131.798 79.5386 131.49 79.4768 131.124 79.4304V81.4241C131.475 81.3932 131.782 81.3352 132.047 81.2464V82.4634C131.755 82.5021 131.447 82.533 131.124 82.5562V83.5105H129.548V82.5793C129.307 82.5639 129.074 82.5446 128.848 82.5214V81.1189C129.066 81.2193 129.299 81.2966 129.548 81.3546V81.3468ZM128.848 79.0982C127.778 78.9127 126.968 78.6577 126.419 78.3409C125.758 77.9545 125.423 77.4832 125.423 76.9345C125.423 76.3859 125.797 75.9068 126.548 75.5282C127.155 75.2229 127.922 75.022 128.848 74.9216V76.1657C128.727 76.212 128.622 76.2661 128.525 76.3279C128.272 76.4902 128.147 76.6718 128.147 76.8688C128.147 77.0466 128.264 77.2166 128.494 77.3711C128.591 77.4368 128.712 77.4948 128.852 77.5488V79.0943L128.848 79.0982ZM128.848 82.5137C127.91 82.4093 127.124 82.2084 126.489 81.9109C125.707 81.5439 125.209 81.0261 124.991 80.3539L127.832 80.2109C127.949 80.4814 128.167 80.7171 128.486 80.9141C128.603 80.9875 128.723 81.0532 128.848 81.1073V82.5098V82.5137Z" fill="#D6B040"/>
<path fill-rule="evenodd" clip-rule="evenodd" d="M142.374 86.3195C152.236 86.3195 160.276 82.5409 160.276 77.9122C160.276 73.2835 152.236 69.5049 142.374 69.5049C132.513 69.5049 124.473 73.2835 124.473 77.9122C124.473 82.5409 132.513 86.3195 142.374 86.3195Z" fill="#D6B040"/>
<path d="M160.276 74.4541H124.473V77.9121H160.276V74.4541Z" fill="#F2A900"/>
<path d="M142.375 82.8615C152.262 82.8615 160.277 79.0974 160.277 74.4542C160.277 69.811 152.262 66.0469 142.375 66.0469C132.488 66.0469 124.474 69.811 124.474 74.4542C124.474 79.0974 132.488 82.8615 142.375 82.8615Z" fill="#D6B040"/>
<path d="M142.375 81.231C150.97 81.231 157.938 78.1969 157.938 74.4541C157.938 70.7113 150.97 67.6772 142.375 67.6772C133.78 67.6772 126.812 70.7113 126.812 74.4541C126.812 78.1969 133.78 81.231 142.375 81.231Z" fill="#F3D56D"/>
<path d="M144.111 70.475C144.843 70.5716 145.454 70.7261 145.944 70.9463C146.625 71.2516 147.057 71.6611 147.248 72.1711L144.496 72.3411C144.423 72.1595 144.294 72.005 144.111 71.8775V70.475ZM144.111 73.6509C145.357 73.8518 146.236 74.0952 146.75 74.3811C147.38 74.7327 147.695 75.1848 147.695 75.7373C147.695 76.3516 147.298 76.8732 146.508 77.2943C145.894 77.6227 145.096 77.8507 144.111 77.9821V76.765C144.259 76.7148 144.395 76.6568 144.52 76.5873C144.862 76.398 145.034 76.1777 145.034 75.9189C145.034 75.6909 144.89 75.4939 144.602 75.3277C144.473 75.2543 144.31 75.1886 144.111 75.1307V73.647V73.6509ZM141.617 76.8732V74.7327C141.371 74.7018 141.138 74.6632 140.916 74.6245V73.0791C141.111 73.1564 141.344 73.222 141.617 73.2761V71.5066C141.348 71.5491 141.115 71.6109 140.916 71.692V70.4479C141.142 70.4247 141.375 70.4054 141.617 70.3938V69.8877H143.193V70.3938C143.52 70.4132 143.827 70.4402 144.115 70.4788V71.8813C143.889 71.7229 143.582 71.607 143.193 71.5259V73.5234C143.52 73.5659 143.827 73.6084 144.115 73.6548V75.1384C143.866 75.065 143.559 75.0032 143.193 74.9568V76.9505C143.543 76.9196 143.85 76.8616 144.115 76.7727V77.9898C143.823 78.0284 143.516 78.0593 143.193 78.0825V79.0368H141.617V78.1057C141.375 78.0902 141.142 78.0748 140.916 78.0477V76.6452C141.134 76.7457 141.368 76.823 141.617 76.8771V76.8732ZM140.916 74.6245C139.846 74.4391 139.037 74.1841 138.488 73.8673C137.826 73.4809 137.492 73.0095 137.492 72.4609C137.492 71.9123 137.865 71.4332 138.616 71.0545C139.223 70.7493 139.99 70.5484 140.916 70.4479V71.692C140.796 71.7384 140.69 71.7925 140.593 71.8543C140.34 72.0166 140.216 72.1982 140.216 72.3952C140.216 72.5729 140.332 72.7429 140.562 72.8975C140.659 72.9632 140.78 73.0211 140.916 73.0752V74.6207V74.6245ZM140.916 78.04C139.978 77.9357 139.192 77.7348 138.558 77.4373C137.776 77.0702 137.278 76.5525 137.06 75.8802L139.9 75.7373C140.013 76.0077 140.235 76.2434 140.554 76.4405C140.671 76.5139 140.792 76.5796 140.916 76.6375V78.04Z" fill="#D6B040"/>
<path fill-rule="evenodd" clip-rule="evenodd" d="M127.901 79.0749C137.763 79.0749 145.803 75.2962 145.803 70.6676C145.803 66.0389 137.759 62.2603 127.901 62.2603C118.044 62.2603 110 66.035 110 70.6637C110 75.2924 118.04 79.071 127.901 79.071V79.0749Z" fill="#D6B040"/>
<path d="M145.807 67.21H110V70.6679H145.807V67.21Z" fill="#D6B040"/>
<path d="M127.901 75.6169C137.788 75.6169 145.803 71.8528 145.803 67.2096C145.803 62.5663 137.788 58.8022 127.901 58.8022C118.015 58.8022 110 62.5663 110 67.2096C110 71.8528 118.015 75.6169 127.901 75.6169Z" fill="#D6B040"/>
<path d="M127.901 73.9863C136.496 73.9863 143.464 70.9522 143.464 67.2095C143.464 63.4667 136.496 60.4326 127.901 60.4326C119.306 60.4326 112.339 63.4667 112.339 67.2095C112.339 70.9522 119.306 73.9863 127.901 73.9863Z" fill="#F3D56D"/>
<path d="M129.638 63.2259C130.369 63.3225 130.98 63.4771 131.471 63.6973C132.152 64.0025 132.584 64.4121 132.774 64.9221L130.023 65.0921C129.949 64.9105 129.82 64.756 129.638 64.6285V63.2259ZM129.638 66.4019C130.883 66.6028 131.762 66.8462 132.272 67.1321C132.903 67.4837 133.218 67.9357 133.218 68.4883C133.218 69.1026 132.821 69.6242 132.031 70.0453C131.416 70.3737 130.618 70.6017 129.638 70.733V69.516C129.785 69.4658 129.922 69.4078 130.046 69.3383C130.389 69.1489 130.56 68.9248 130.56 68.6698C130.56 68.4419 130.416 68.2448 130.128 68.0787C129.999 68.0053 129.836 67.9396 129.638 67.8817V66.398V66.4019ZM127.143 69.6242V67.4837C126.898 67.4489 126.664 67.4142 126.443 67.3755V65.8301C126.637 65.9073 126.871 65.973 127.143 66.0271V64.2575C126.875 64.3 126.641 64.3619 126.443 64.443V63.1989C126.668 63.1757 126.902 63.1564 127.143 63.1448V62.6387H128.719V63.1448C129.046 63.1641 129.353 63.1912 129.641 63.2298V64.6323C129.416 64.4739 129.108 64.358 128.719 64.2769V66.2744C129.046 66.3169 129.353 66.3594 129.641 66.4057V67.8894C129.392 67.816 129.085 67.7542 128.719 67.7078V69.7014C129.069 69.6705 129.377 69.6126 129.641 69.5237V70.7408C129.35 70.7794 129.042 70.8103 128.719 70.8335V71.7878H127.143V70.8567C126.902 70.8412 126.668 70.8219 126.443 70.7987V69.3962C126.66 69.4967 126.894 69.5739 127.143 69.6319V69.6242ZM126.443 67.3755C125.372 67.1901 124.563 66.9389 124.014 66.6182C123.353 66.2319 123.018 65.7605 123.018 65.2119C123.018 64.6632 123.392 64.1841 124.143 63.8055C124.75 63.5003 125.516 63.2994 126.443 63.1989V64.443C126.322 64.4894 126.217 64.5435 126.12 64.6053C125.867 64.7675 125.742 64.9491 125.742 65.1462C125.742 65.3239 125.859 65.4939 126.088 65.6485C126.186 65.7141 126.306 65.7721 126.446 65.8262V67.3717L126.443 67.3755ZM126.443 70.791C125.505 70.6867 124.715 70.4858 124.084 70.1883C123.302 69.8212 122.804 69.3035 122.586 68.6312L125.427 68.4883C125.544 68.7587 125.762 68.9944 126.081 69.1914C126.197 69.2648 126.318 69.3305 126.446 69.3846V70.7871L126.443 70.791Z" fill="#D6B040"/>
<path d="M140.713 72.9704C150.6 72.9704 158.614 69.2063 158.614 64.5631C158.614 59.9198 150.6 56.1558 140.713 56.1558C130.826 56.1558 122.812 59.9198 122.812 64.5631C122.812 69.2063 130.826 72.9704 140.713 72.9704Z" fill="#D6B040"/>
<path d="M158.614 61.1094H122.812V64.5673H158.614V61.1094Z" fill="#D6B040"/>
<path d="M140.713 69.5163C150.6 69.5163 158.614 65.7522 158.614 61.109C158.614 56.4657 150.6 52.7017 140.713 52.7017C130.826 52.7017 122.812 56.4657 122.812 61.109C122.812 65.7522 130.826 69.5163 140.713 69.5163Z" fill="#D6B040"/>
<path fill-rule="evenodd" clip-rule="evenodd" d="M140.713 67.8818C149.282 67.8818 156.276 64.8373 156.276 61.105C156.276 57.3727 149.286 54.3281 140.713 54.3281C132.14 54.3281 125.15 57.3727 125.15 61.105C125.15 64.8373 132.14 67.8818 140.713 67.8818Z" fill="#F3D56D"/>
<path d="M142.449 57.1254C143.181 57.222 143.792 57.3765 144.282 57.5967C144.963 57.902 145.395 58.3115 145.586 58.8215L142.834 58.9915C142.76 58.8099 142.632 58.6554 142.449 58.5279V57.1254ZM142.449 60.3013C143.694 60.5022 144.574 60.7456 145.088 61.0315C145.718 61.3831 146.033 61.8352 146.033 62.3877C146.033 63.002 145.636 63.5236 144.846 63.9447C144.235 64.2731 143.434 64.5011 142.453 64.6325V63.4154C142.601 63.3652 142.737 63.3072 142.862 63.2377C143.204 63.0484 143.375 62.8243 143.375 62.5693C143.375 62.3413 143.231 62.1443 142.943 61.9781C142.815 61.9047 142.651 61.839 142.453 61.7811V60.2974L142.449 60.3013ZM139.955 63.5236V61.3831C139.709 61.3483 139.476 61.3136 139.25 61.2749V59.7295C139.445 59.8067 139.678 59.8724 139.955 59.9265V58.157C139.686 58.1995 139.453 58.2613 139.25 58.3424V57.0983C139.476 57.0751 139.709 57.0558 139.955 57.0442V56.5381H141.527V57.0442C141.854 57.0635 142.161 57.0906 142.449 57.1292V58.5317C142.223 58.3733 141.916 58.2574 141.527 58.1763V60.1738C141.854 60.2163 142.161 60.2588 142.449 60.3052V61.7888C142.2 61.7154 141.893 61.6536 141.527 61.6072V63.6009C141.877 63.5699 142.184 63.512 142.449 63.4231V64.6402C142.157 64.6788 141.85 64.7097 141.527 64.7329V65.6872H139.955V64.7561C139.713 64.7406 139.476 64.7213 139.25 64.6981V63.2956C139.468 63.3961 139.702 63.4734 139.955 63.5313V63.5236ZM139.25 61.2749C138.18 61.0895 137.37 60.8345 136.822 60.5177C136.16 60.1313 135.826 59.6599 135.826 59.1113C135.826 58.5626 136.199 58.0835 136.95 57.7049C137.557 57.3997 138.324 57.1988 139.25 57.1022V58.3463C139.13 58.3926 139.024 58.4467 138.927 58.5086C138.674 58.6708 138.546 58.8524 138.546 59.0495C138.546 59.2272 138.663 59.3972 138.892 59.5517C138.989 59.6174 139.11 59.6754 139.246 59.7295V61.2749H139.25ZM139.25 64.6904C138.312 64.5861 137.526 64.3852 136.892 64.0877C136.11 63.7206 135.611 63.2029 135.394 62.5306L138.234 62.3877C138.351 62.6581 138.569 62.8938 138.888 63.0909C139.005 63.1643 139.126 63.2299 139.25 63.284V64.6865V64.6904Z" fill="#D6B040"/>
<path d="M135.219 66.8659C145.106 66.8659 153.12 63.1018 153.12 58.4586C153.12 53.8154 145.106 50.0513 135.219 50.0513C125.332 50.0513 117.317 53.8154 117.317 58.4586C117.317 63.1018 125.332 66.8659 135.219 66.8659Z" fill="#D6B040"/>
<path d="M153.12 55.0044H117.317V58.4624H153.12V55.0044Z" fill="#D6B040"/>
<path fill-rule="evenodd" clip-rule="evenodd" d="M135.219 63.4118C145.08 63.4118 153.12 59.6332 153.12 55.0045C153.12 50.3758 145.076 46.5972 135.219 46.5972C125.361 46.5972 117.317 50.3758 117.317 55.0045C117.317 59.6332 125.361 63.4118 135.219 63.4118Z" fill="#D6B040"/>
<path fill-rule="evenodd" clip-rule="evenodd" d="M135.219 61.7774C143.788 61.7774 150.781 58.7328 150.781 55.0005C150.781 51.2682 143.792 48.2236 135.219 48.2236C126.646 48.2236 119.656 51.2682 119.656 55.0005C119.656 58.7328 126.646 61.7774 135.219 61.7774Z" fill="#F3D56D"/>
<path d="M136.954 51.0209C137.686 51.1175 138.297 51.272 138.791 51.4922C139.472 51.7975 139.904 52.207 140.095 52.717L137.343 52.887C137.269 52.7054 137.141 52.5509 136.958 52.4234V51.0209H136.954ZM136.954 54.1968C138.199 54.3977 139.083 54.6411 139.592 54.927C140.223 55.2786 140.538 55.7307 140.538 56.2832C140.538 56.8975 140.141 57.4191 139.347 57.8402C138.736 58.1686 137.935 58.3966 136.954 58.528V57.3109C137.102 57.2607 137.238 57.2027 137.363 57.1332C137.705 56.9439 137.876 56.7198 137.876 56.4648C137.876 56.2368 137.732 56.0398 137.444 55.8736C137.316 55.8002 137.152 55.7345 136.954 55.6766V54.1929V54.1968ZM134.459 57.4191V55.2786C134.214 55.2438 133.981 55.2091 133.759 55.1704V53.625C133.954 53.7022 134.187 53.7679 134.459 53.822V52.0525C134.191 52.095 133.957 52.1568 133.759 52.2379V50.9938C133.985 50.9706 134.218 50.9513 134.459 50.9397V50.4336H136.036V50.9397C136.362 50.9591 136.67 50.9861 136.958 51.0247V52.4272C136.732 52.2688 136.425 52.1529 136.036 52.0718V54.0693C136.362 54.1118 136.67 54.1543 136.958 54.2007V55.6843C136.709 55.6109 136.401 55.5491 136.036 55.5027V57.4964C136.386 57.4655 136.693 57.4075 136.958 57.3186V58.5357C136.666 58.5743 136.359 58.6052 136.036 58.6284V59.5827H134.459V58.6516C134.218 58.6361 133.985 58.6168 133.759 58.5936V57.1911C133.977 57.2916 134.21 57.3689 134.459 57.4268V57.4191ZM133.759 55.1704C132.689 54.985 131.879 54.73 131.331 54.4132C130.669 54.0268 130.334 53.5554 130.334 53.0068C130.334 52.4582 130.708 51.9791 131.459 51.6004C132.066 51.2952 132.833 51.0943 133.759 50.9938V52.2379C133.638 52.2843 133.533 52.3384 133.436 52.4002C133.183 52.5625 133.058 52.7441 133.058 52.9411C133.058 53.1188 133.175 53.2888 133.405 53.4434C133.502 53.5091 133.623 53.567 133.763 53.6211V55.1666L133.759 55.1704ZM133.759 58.5859C132.821 58.4816 132.031 58.2807 131.401 57.9832C130.618 57.6161 130.12 57.0984 129.902 56.4261L132.743 56.2832C132.86 56.5536 133.078 56.7893 133.397 56.9864C133.514 57.0598 133.634 57.1255 133.763 57.1795V58.5821L133.759 58.5859Z" fill="#D6B040"/>
<path fill-rule="evenodd" clip-rule="evenodd" d="M139.795 62.0559C149.656 62.0559 157.697 58.2772 157.697 53.6485C157.697 49.0199 149.653 45.2412 139.795 45.2412C129.938 45.2412 121.894 49.0199 121.894 53.6485C121.894 58.2772 129.934 62.0559 139.795 62.0559Z" fill="#D6B040"/>
<path d="M157.7 50.1904H121.894V53.6484H157.7V50.1904Z" fill="#D6B040"/>
<path fill-rule="evenodd" clip-rule="evenodd" d="M139.794 58.5978C149.655 58.5978 157.696 54.8191 157.696 50.1905C157.696 45.5618 149.652 41.7793 139.794 41.7793C129.937 41.7793 121.893 45.558 121.893 50.1905C121.893 54.823 129.933 58.5978 139.794 58.5978Z" fill="#D6B040"/>
<path fill-rule="evenodd" clip-rule="evenodd" d="M139.794 56.9673C148.363 56.9673 155.357 53.9227 155.357 50.1904C155.357 46.4581 148.367 43.4136 139.794 43.4136C131.221 43.4136 124.231 46.4581 124.231 50.1904C124.231 53.9227 131.221 56.9673 139.794 56.9673Z" fill="#F3D56D"/>
<path d="M141.53 46.2074C142.262 46.304 142.873 46.4585 143.363 46.6788C144.044 46.984 144.476 47.3935 144.667 47.9035L141.915 48.0735C141.841 47.892 141.713 47.7374 141.53 47.6099V46.2074ZM141.53 49.3833C142.775 49.5842 143.655 49.8276 144.169 50.1136C144.799 50.4651 145.114 50.9172 145.114 51.4697C145.114 52.084 144.717 52.6056 143.927 53.0268C143.313 53.3552 142.515 53.5831 141.534 53.7145V52.4974C141.682 52.4472 141.818 52.3893 141.943 52.3197C142.285 52.1304 142.456 51.9063 142.456 51.6513C142.456 51.4233 142.312 51.2263 142.024 51.0602C141.896 50.9867 141.733 50.9211 141.534 50.8631V49.3795L141.53 49.3833ZM139.036 52.6056V50.4651C138.79 50.4304 138.557 50.3956 138.335 50.357V48.8115C138.53 48.8888 138.763 48.9545 139.036 49.0085V47.239C138.767 47.2815 138.534 47.3433 138.335 47.4244V46.1803C138.561 46.1572 138.794 46.1378 139.036 46.1263V45.6201H140.612V46.1263C140.939 46.1456 141.246 46.1726 141.534 46.2113V47.6138C141.308 47.4554 141.001 47.3394 140.612 47.2583V49.2558C140.939 49.2983 141.246 49.3408 141.534 49.3872V50.8708C141.285 50.7974 140.978 50.7356 140.612 50.6892V52.6829C140.962 52.652 141.269 52.594 141.534 52.5052V53.7222C141.242 53.7608 140.935 53.7918 140.612 53.8149V54.7693H139.036V53.8381C138.794 53.8227 138.557 53.8034 138.335 53.7802V52.3777C138.553 52.4781 138.787 52.5554 139.036 52.6133V52.6056ZM138.335 50.357C137.265 50.1715 136.455 49.9165 135.907 49.5997C135.245 49.2133 134.91 48.742 134.91 48.1933C134.91 47.6447 135.284 47.1656 136.035 46.7869C136.642 46.4817 137.409 46.2808 138.335 46.1842V47.4283C138.214 47.4747 138.109 47.5288 138.012 47.5906C137.759 47.7529 137.635 47.9344 137.635 48.1315C137.635 48.3131 137.751 48.4792 137.981 48.6338C138.078 48.6995 138.199 48.7574 138.339 48.8115V50.357H138.335ZM138.335 53.7724C137.397 53.6681 136.611 53.4672 135.977 53.1697C135.195 52.8027 134.696 52.2849 134.479 51.6127L137.319 51.4697C137.432 51.7402 137.654 51.9758 137.973 52.1729C138.09 52.2463 138.211 52.312 138.339 52.3661V53.7686L138.335 53.7724Z" fill="#D6B040"/>
<path d="M133.646 57.0061C143.532 57.0061 151.547 53.242 151.547 48.5987C151.547 43.9555 143.532 40.1914 133.646 40.1914C123.759 40.1914 115.744 43.9555 115.744 48.5987C115.744 53.242 123.759 57.0061 133.646 57.0061Z" fill="#D6B040"/>
<path d="M151.547 45.1445H115.744V48.6025H151.547V45.1445Z" fill="#D6B040"/>
<path fill-rule="evenodd" clip-rule="evenodd" d="M133.646 53.552C143.507 53.552 151.547 49.7733 151.547 45.1446C151.547 40.516 143.507 36.7373 133.646 36.7373C123.784 36.7373 115.744 40.5121 115.744 45.1446C115.744 49.7772 123.784 53.552 133.646 53.552Z" fill="#D6B040"/>
<path fill-rule="evenodd" clip-rule="evenodd" d="M133.646 51.9214C142.215 51.9214 149.208 48.8768 149.208 45.1445C149.208 41.4122 142.219 38.3677 133.646 38.3677C125.072 38.3677 118.083 41.4122 118.083 45.1445C118.083 48.8768 125.072 51.9214 133.646 51.9214Z" fill="#F3D56D"/>
<path d="M135.382 41.161C136.113 41.2576 136.724 41.4121 137.215 41.6324C137.896 41.9376 138.328 42.3472 138.518 42.8572L135.767 43.0272C135.693 42.8456 135.565 42.691 135.382 42.5635V41.161ZM135.382 44.3369C136.627 44.5378 137.507 44.7813 138.016 45.0672C138.647 45.4188 138.962 45.8708 138.962 46.4233C138.962 47.0376 138.565 47.5592 137.775 47.9804C137.16 48.3088 136.362 48.5367 135.378 48.6681V47.451C135.526 47.4008 135.662 47.3429 135.786 47.2733C136.129 47.084 136.3 46.8599 136.3 46.6049C136.3 46.3769 136.156 46.1799 135.868 46.0138C135.74 45.9404 135.576 45.8747 135.378 45.8167V44.3331L135.382 44.3369ZM132.887 47.5592V45.4188C132.642 45.384 132.409 45.3492 132.187 45.3106V43.7651C132.381 43.8424 132.615 43.9081 132.887 43.9622V42.1926C132.619 42.2351 132.385 42.2969 132.187 42.3781V41.134C132.412 41.1108 132.646 41.0915 132.887 41.0799V40.5737H134.463V41.0799C134.79 41.0992 135.098 41.1262 135.386 41.1649V42.5674C135.16 42.409 134.852 42.2931 134.463 42.2119V44.2094C134.79 44.2519 135.098 44.2944 135.386 44.3408V45.8244C135.137 45.751 134.829 45.6892 134.463 45.6429V47.6365C134.814 47.6056 135.121 47.5476 135.386 47.4588V48.6758C135.094 48.7145 134.786 48.7454 134.463 48.7686V49.7229H132.887V48.7917C132.646 48.7763 132.412 48.757 132.187 48.7338V47.3313C132.405 47.4317 132.638 47.509 132.887 47.567V47.5592ZM132.187 45.3106C131.116 45.1251 130.307 44.8701 129.758 44.5533C129.097 44.1669 128.762 43.6956 128.762 43.1469C128.762 42.5983 129.136 42.1192 129.887 41.7406C130.494 41.4353 131.26 41.2344 132.187 41.1378V42.3819C132.066 42.4283 131.961 42.4824 131.864 42.5442C131.611 42.7065 131.486 42.8881 131.486 43.0851C131.486 43.2628 131.603 43.4328 131.833 43.5874C131.93 43.6531 132.05 43.711 132.191 43.7651V45.3106H132.187ZM132.187 48.7261C131.249 48.6217 130.459 48.4208 129.828 48.1233C129.046 47.7563 128.548 47.2385 128.33 46.5663L131.171 46.4233C131.288 46.6938 131.506 46.9295 131.825 47.1265C131.942 47.1999 132.062 47.2656 132.191 47.3197V48.7222L132.187 48.7261Z" fill="#D6B040"/>
<path d="M129.186 52.3464C139.072 52.3464 147.087 48.5823 147.087 43.9391C147.087 39.2958 139.072 35.5317 129.186 35.5317C119.299 35.5317 111.284 39.2958 111.284 43.9391C111.284 48.5823 119.299 52.3464 129.186 52.3464Z" fill="#D6B040"/>
<path d="M147.087 40.481H111.284V43.9389H147.087V40.481Z" fill="#D6B040"/>
<path fill-rule="evenodd" clip-rule="evenodd" d="M129.187 48.8884C139.048 48.8884 147.088 45.1097 147.088 40.4811C147.088 35.8524 139.048 32.0737 129.187 32.0737C119.325 32.0737 111.285 35.8485 111.285 40.4811C111.285 45.1136 119.325 48.8884 129.187 48.8884Z" fill="#D6B040"/>
<path fill-rule="evenodd" clip-rule="evenodd" d="M129.187 47.2578C137.756 47.2578 144.749 44.2133 144.749 40.481C144.749 36.7487 137.76 33.7041 129.187 33.7041C120.613 33.7041 113.624 36.7487 113.624 40.481C113.624 44.2133 120.613 47.2578 129.187 47.2578Z" fill="#F3D56D"/>
<path d="M130.923 36.4974C131.654 36.594 132.265 36.7486 132.756 36.9688C133.437 37.274 133.869 37.6836 134.059 38.1936L131.308 38.3636C131.234 38.182 131.106 38.0274 130.923 37.8999V36.4974ZM130.923 39.6734C132.168 39.8743 133.048 40.1177 133.557 40.4036C134.188 40.7552 134.503 41.2072 134.503 41.7597C134.503 42.3741 134.106 42.8957 133.316 43.3168C132.701 43.6452 131.903 43.8732 130.923 44.0045V42.7875C131.071 42.7372 131.207 42.6793 131.331 42.6097C131.674 42.4204 131.845 42.1963 131.845 41.9413C131.845 41.7134 131.701 41.5163 131.413 41.3502C131.285 41.2768 131.121 41.2111 130.923 41.1531V39.6695V39.6734ZM128.428 42.8957V40.7552C128.183 40.7243 127.95 40.6856 127.728 40.647V39.1015C127.922 39.1788 128.156 39.2445 128.428 39.2986V37.529C128.16 37.5715 127.926 37.6333 127.728 37.7145V36.4704C127.953 36.4472 128.187 36.4279 128.428 36.4163V35.9102H130.004V36.4163C130.331 36.4356 130.639 36.4627 130.927 36.5013V37.9038C130.701 37.7454 130.393 37.6295 130.004 37.5483V39.5459C130.331 39.5884 130.639 39.6309 130.927 39.6772V41.1609C130.678 41.0875 130.37 41.0256 130.004 40.9793V42.9729C130.355 42.942 130.662 42.8841 130.927 42.7952V44.0123C130.635 44.0509 130.327 44.0818 130.004 44.105V45.0593H128.428V44.1282C128.187 44.1127 127.953 44.0934 127.728 44.0702V42.6677C127.946 42.7682 128.179 42.8454 128.428 42.9034V42.8957ZM127.728 40.647C126.657 40.4615 125.848 40.2065 125.299 39.8897C124.638 39.5034 124.303 39.032 124.303 38.4834C124.303 37.9347 124.677 37.4556 125.428 37.077C126.035 36.7718 126.801 36.5708 127.728 36.4704V37.7145C127.607 37.7608 127.502 37.8188 127.405 37.8768C127.152 38.039 127.027 38.2206 127.027 38.4177C127.027 38.5954 127.144 38.7654 127.374 38.9199C127.471 38.9856 127.591 39.0436 127.732 39.0977V40.6431L127.728 40.647ZM127.728 44.0625C126.79 43.9582 126 43.7572 125.369 43.4597C124.587 43.0927 124.089 42.575 123.871 41.9027L126.712 41.7597C126.829 42.0302 127.047 42.2659 127.366 42.4629C127.483 42.5363 127.603 42.602 127.732 42.6561V44.0586L127.728 44.0625Z" fill="#D6B040"/>
<path d="M137.285 46.2727C147.172 46.2727 155.187 42.5086 155.187 37.8653C155.187 33.2221 147.172 29.458 137.285 29.458C127.399 29.458 119.384 33.2221 119.384 37.8653C119.384 42.5086 127.399 46.2727 137.285 46.2727Z" fill="#D6B040"/>
<path d="M155.191 34.4072H119.384V37.8652H155.191V34.4072Z" fill="#D6B040"/>
<path fill-rule="evenodd" clip-rule="evenodd" d="M137.285 42.8185C147.147 42.8185 155.187 39.0399 155.187 34.4112C155.187 29.7825 147.147 26 137.285 26C127.424 26 119.384 29.7787 119.384 34.4073C119.384 39.036 127.424 42.8146 137.285 42.8146V42.8185Z" fill="#D6B040"/>
<path fill-rule="evenodd" clip-rule="evenodd" d="M137.285 41.1841C145.855 41.1841 152.848 38.1396 152.848 34.4073C152.848 30.675 145.859 27.6343 137.285 27.6343C128.712 27.6343 121.723 30.675 121.723 34.4073C121.723 38.1396 128.712 41.1841 137.285 41.1841Z" fill="#F3D56D"/>
<path d="M139.021 30.4281C139.753 30.5247 140.364 30.6792 140.854 30.8995C141.535 31.2047 141.967 31.6142 142.158 32.1242L139.407 32.2942C139.333 32.1127 139.204 31.9581 139.021 31.8306V30.4281ZM139.021 33.604C140.267 33.8049 141.146 34.0483 141.656 34.3343C142.286 34.6859 142.602 35.1379 142.602 35.6904C142.602 36.3047 142.205 36.8263 141.415 37.2475C140.8 37.5759 140.002 37.8038 139.021 37.9352V36.7181C139.169 36.6679 139.305 36.61 139.43 36.5404C139.772 36.3511 139.944 36.127 139.944 35.872C139.944 35.644 139.8 35.447 139.512 35.2809C139.383 35.2074 139.22 35.1418 139.021 35.0838V33.6002V33.604ZM136.527 36.8263V34.6859C136.282 34.6511 136.048 34.6163 135.826 34.5777V33.0322C136.021 33.1095 136.254 33.1752 136.527 33.2292V31.4597C136.258 31.5022 136.025 31.564 135.826 31.6451V30.4011C136.052 30.3779 136.286 30.3586 136.527 30.347V29.8408H138.103V30.347C138.43 30.3663 138.737 30.3933 139.025 30.432V31.8345C138.8 31.6761 138.492 31.5601 138.103 31.479V33.4765C138.43 33.519 138.737 33.5615 139.025 33.6079V35.0915C138.776 35.0181 138.469 34.9563 138.103 34.9099V36.9036C138.453 36.8727 138.761 36.8147 139.025 36.7259V37.9429C138.733 37.9816 138.426 38.0125 138.103 38.0356V38.99H136.527V38.0588C136.286 38.0434 136.048 38.0241 135.826 38.0009V36.5984C136.044 36.6988 136.278 36.7761 136.527 36.834V36.8263ZM135.826 34.5777C134.756 34.3922 133.947 34.1411 133.398 33.8204C132.736 33.434 132.402 32.9627 132.402 32.414C132.402 31.8654 132.775 31.3863 133.526 31.0076C134.133 30.7024 134.9 30.5015 135.826 30.4049V31.649C135.706 31.6954 135.601 31.7495 135.503 31.8113C135.25 31.9736 135.126 32.1552 135.126 32.3522C135.126 32.5299 135.243 32.6999 135.472 32.8545C135.569 32.9202 135.69 32.9781 135.83 33.0322V34.5777H135.826ZM135.826 37.9931C134.888 37.8888 134.098 37.6879 133.468 37.3904C132.686 37.0234 132.188 36.5056 131.97 35.8334L134.811 35.6904C134.927 35.9609 135.145 36.1965 135.464 36.3936C135.581 36.467 135.702 36.5327 135.83 36.5868V37.9893L135.826 37.9931Z" fill="#D6B040"/>
<path fill-rule="evenodd" clip-rule="evenodd" d="M160.479 98.9998C170.34 98.9998 178.38 91.0136 178.38 81.2269C178.38 71.4403 170.336 63.4541 160.479 63.4541C150.621 63.4541 142.577 71.4364 142.577 81.2269C142.577 91.0175 150.617 98.9998 160.479 98.9998Z" fill="#D6B040"/>
<path fill-rule="evenodd" clip-rule="evenodd" d="M160.478 95.5495C168.425 95.5495 174.904 89.1165 174.904 81.2269C174.904 73.3373 168.425 66.9043 160.478 66.9043C152.531 66.9043 146.052 73.3373 146.052 81.2269C146.052 89.1165 152.531 95.5495 160.478 95.5495Z" fill="#F3D56D"/>
<path d="M162.215 72.808C162.946 73.0089 163.557 73.3373 164.048 73.801C164.729 74.4462 165.161 75.3078 165.351 76.3896L162.6 76.749C162.526 76.3665 162.398 76.0419 162.215 75.7715V72.8119V72.808ZM162.215 79.5192C163.46 79.9442 164.34 80.4581 164.853 81.0647C165.484 81.8104 165.799 82.7647 165.799 83.9315C165.799 85.2336 165.402 86.3308 164.612 87.2233C163.997 87.9149 163.199 88.3979 162.219 88.6761V86.1029C162.366 85.9986 162.503 85.8749 162.627 85.732C162.97 85.3301 163.141 84.8626 163.141 84.3217C163.141 83.8388 162.997 83.4254 162.709 83.0738C162.581 82.9192 162.417 82.7801 162.219 82.6565V79.5231L162.215 79.5192ZM159.72 86.327V81.8026C159.475 81.7331 159.241 81.6558 159.02 81.5747V78.306C159.214 78.4644 159.448 78.6035 159.72 78.7233V74.9833C159.452 75.0721 159.218 75.2035 159.02 75.3735V72.7423C159.245 72.6921 159.479 72.6535 159.72 72.6303V71.5601H161.292V72.6303C161.619 72.6689 161.927 72.7307 162.215 72.808V75.7676C161.989 75.4353 161.682 75.1842 161.292 75.018V79.241C161.619 79.3299 161.927 79.4226 162.215 79.5192V82.6526C161.966 82.4981 161.658 82.3706 161.292 82.2663V86.4777C161.643 86.412 161.95 86.2883 162.215 86.1029V88.6761C161.923 88.7572 161.615 88.8229 161.292 88.8693V90.89H159.72V88.9195C159.479 88.8886 159.241 88.8499 159.02 88.7958V85.8324C159.238 86.0411 159.471 86.2072 159.72 86.327ZM159.02 81.5747C157.949 81.1806 157.14 80.6474 156.591 79.9712C155.93 79.1522 155.595 78.1592 155.595 76.9962C155.595 75.8333 155.969 74.8249 156.72 74.0212C157.327 73.376 158.093 72.951 159.02 72.7423V75.3735C158.899 75.4739 158.794 75.5899 158.697 75.7174C158.444 76.0651 158.319 76.4476 158.319 76.8649C158.319 77.2435 158.436 77.6028 158.666 77.9274C158.763 78.0665 158.883 78.1901 159.024 78.306V81.5747H159.02ZM159.02 88.7958C158.082 88.5756 157.292 88.1506 156.661 87.5247C155.879 86.752 155.381 85.6508 155.159 84.2329L158 83.9315C158.113 84.5072 158.335 85.0056 158.654 85.419C158.771 85.5736 158.891 85.7088 159.02 85.8324V88.7958Z" fill="#D6B040"/>
<path fill-rule="evenodd" clip-rule="evenodd" d="M23.3728 78.4672C34.0447 78.4672 42.7457 69.8247 42.7457 59.2336C42.7457 48.6426 34.0405 40 23.3728 40C12.7051 40 4 48.6384 4 59.2336C4 69.8288 12.7009 78.4672 23.3728 78.4672Z" fill="#D6B040"/>
<path fill-rule="evenodd" clip-rule="evenodd" d="M23.3727 74.7335C31.9726 74.7335 38.9847 67.7717 38.9847 59.2337C38.9847 50.6956 31.9726 43.7339 23.3727 43.7339C14.7729 43.7339 7.76074 50.6956 7.76074 59.2337C7.76074 67.7717 14.7729 74.7335 23.3727 74.7335Z" fill="#F3D56D"/>
<path d="M25.2516 50.1225C26.0434 50.3399 26.7046 50.6953 27.2352 51.1971C27.9723 51.8953 28.4397 52.8278 28.6461 53.9985L25.6686 54.3874C25.5886 53.9734 25.4496 53.6222 25.2516 53.3295V50.1267V50.1225ZM25.2516 57.3853C26.5993 57.8452 27.5511 58.4013 28.107 59.0578C28.7893 59.8648 29.1304 60.8975 29.1304 62.1602C29.1304 63.5693 28.7008 64.7568 27.8459 65.7226C27.1805 66.4711 26.3171 66.9937 25.2558 67.2948V64.5101C25.4159 64.3972 25.5633 64.2634 25.698 64.1087C26.0687 63.6739 26.254 63.1679 26.254 62.5825C26.254 62.0599 26.0981 61.6125 25.7865 61.232C25.6475 61.0648 25.4706 60.9142 25.2558 60.7804V57.3895L25.2516 57.3853ZM22.5521 64.7526V59.8564C22.2867 59.7811 22.0341 59.6975 21.794 59.6097V56.0724C22.0046 56.2438 22.2573 56.3943 22.5521 56.524V52.4765C22.2615 52.5727 22.0088 52.7149 21.794 52.8988V50.0514C22.0383 49.9971 22.291 49.9553 22.5521 49.9302V48.772H24.2535V49.9302C24.6073 49.972 24.94 50.0389 25.2516 50.1225V53.3253C25.0074 52.9657 24.6747 52.694 24.2535 52.5142V57.0842C24.6073 57.1804 24.94 57.2808 25.2516 57.3853V60.7763C24.9821 60.609 24.6494 60.471 24.2535 60.3581V64.9157C24.6325 64.8446 24.9653 64.7108 25.2516 64.5101V67.2948C24.9358 67.3826 24.6031 67.4537 24.2535 67.5038V69.6906H22.5521V67.5582C22.291 67.5248 22.0341 67.4829 21.794 67.4244V64.2174C22.0298 64.4432 22.2825 64.623 22.5521 64.7526ZM21.794 59.6097C20.6358 59.1832 19.7599 58.6062 19.166 57.8745C18.4501 56.9881 18.0879 55.9135 18.0879 54.655C18.0879 53.3964 18.4922 52.3051 19.305 51.4354C19.962 50.7371 20.7917 50.2772 21.794 50.0514V52.8988C21.6634 53.0076 21.5497 53.133 21.4444 53.271C21.1707 53.6473 21.0359 54.0612 21.0359 54.5128C21.0359 54.9225 21.1623 55.3114 21.4108 55.6626C21.516 55.8131 21.6466 55.947 21.7982 56.0724V59.6097H21.794ZM21.794 67.4244C20.779 67.1861 19.9241 66.7261 19.2418 66.0488C18.3953 65.2125 17.8563 64.0209 17.6162 62.4864L20.6906 62.1602C20.8127 62.7832 21.0528 63.3226 21.3981 63.77C21.5245 63.9373 21.655 64.0836 21.794 64.2174V67.4244Z" fill="#D6B040"/>
<rect x="43" y="51" width="51" height="19" fill="url(#paint0_linear_735_4729)"/>
<path d="M94 45C103 53.5 104.5 55 110 60.5L94 77V45Z" fill="white"/>
<defs>
<linearGradient id="paint0_linear_735_4729" x1="43" y1="60.5" x2="94" y2="60.5" gradientUnits="userSpaceOnUse">
<stop stop-color="white" stop-opacity="0"/>
<stop offset="1" stop-color="white"/>
</linearGradient>
</defs>
</svg>