<svg xmlns="http://www.w3.org/2000/svg" width="18" height="16" viewBox="0 0 18 16" fill="none">
<path d="M18 9.6V14.72C18 15.0595 17.8645 15.385 17.6234 15.6251C17.3823 15.8651 17.0553 16 16.7143 16H1.28571C0.944722 16 0.617695 15.8651 0.376577 15.6251C0.135459 15.385 0 15.0595 0 14.72V9.6C0 9.26052 0.135459 8.93495 0.376577 8.6949C0.617695 8.45486 0.944722 8.32 1.28571 8.32H4.5C4.6705 8.32 4.83401 8.38743 4.95457 8.50745C5.07513 8.62747 5.14286 8.79026 5.14286 8.96C5.14286 9.12974 5.07513 9.29253 4.95457 9.41255C4.83401 9.53257 4.6705 9.6 4.5 9.6H1.28571V14.72H16.7143V9.6H13.5C13.3295 9.6 13.166 9.53257 13.0454 9.41255C12.9249 9.29253 12.8571 9.12974 12.8571 8.96C12.8571 8.79026 12.9249 8.62747 13.0454 8.50745C13.166 8.38743 13.3295 8.32 13.5 8.32H16.7143C17.0553 8.32 17.3823 8.45486 17.6234 8.6949C17.8645 8.93495 18 9.26052 18 9.6ZM8.54518 9.4128C8.60488 9.47231 8.67578 9.51951 8.75382 9.55172C8.83187 9.58393 8.91552 9.6005 9 9.6005C9.08448 9.6005 9.16813 9.58393 9.24618 9.55172C9.32422 9.51951 9.39512 9.47231 9.45482 9.4128L13.312 5.5728C13.4326 5.45271 13.5004 5.28983 13.5004 5.12C13.5004 4.95017 13.4326 4.78729 13.312 4.6672C13.1913 4.54711 13.0277 4.47964 12.8571 4.47964C12.6866 4.47964 12.5229 4.54711 12.4023 4.6672L9.64286 7.4152V0.64C9.64286 0.470261 9.57513 0.307475 9.45457 0.187452C9.33401 0.0674284 9.1705 0 9 0C8.8295 0 8.66599 0.0674284 8.54543 0.187452C8.42487 0.307475 8.35714 0.470261 8.35714 0.64V7.4152L5.59768 4.6672C5.47705 4.54711 5.31345 4.47964 5.14286 4.47964C4.97227 4.47964 4.80866 4.54711 4.68804 4.6672C4.56741 4.78729 4.49964 4.95017 4.49964 5.12C4.49964 5.28983 4.56741 5.45271 4.68804 5.5728L8.54518 9.4128ZM14.7857 12.16C14.7857 11.9701 14.7292 11.7845 14.6232 11.6267C14.5172 11.4688 14.3666 11.3457 14.1904 11.2731C14.0142 11.2004 13.8204 11.1814 13.6333 11.2184C13.4463 11.2555 13.2744 11.3469 13.1396 11.4812C13.0047 11.6154 12.9129 11.7865 12.8757 11.9727C12.8385 12.1589 12.8576 12.352 12.9305 12.5274C13.0035 12.7028 13.1271 12.8527 13.2857 12.9582C13.4443 13.0637 13.6307 13.12 13.8214 13.12C14.0772 13.12 14.3224 13.0189 14.5033 12.8388C14.6841 12.6588 14.7857 12.4146 14.7857 12.16Z" fill="#2A2A2A"/>
</svg>