<svg xmlns="http://www.w3.org/2000/svg" width="21" height="23" viewBox="0 0 21 23" fill="none">
<path d="M17.96 3.14813C16.9938 2.15561 15.8446 1.36667 14.5782 0.826466C13.3118 0.286265 11.953 0.00541561 10.5797 0H10.5C7.7152 0 5.04449 1.12506 3.07537 3.12768C1.10624 5.1303 0 7.84644 0 10.6786V16.4286C0 17.0821 0.255287 17.7089 0.7097 18.1711C1.16411 18.6332 1.78043 18.8929 2.42307 18.8929H4.03845C4.68108 18.8929 5.2974 18.6332 5.75181 18.1711C6.20623 17.7089 6.46151 17.0821 6.46151 16.4286V12.3214C6.46151 11.6679 6.20623 11.0411 5.75181 10.5789C5.2974 10.1168 4.68108 9.85714 4.03845 9.85714H1.65172C1.80749 8.1444 2.44007 6.51229 3.47531 5.15211C4.51056 3.79193 5.90558 2.76003 7.49687 2.17737C9.08816 1.5947 10.8098 1.4854 12.46 1.86229C14.1102 2.23917 15.6205 3.08662 16.8141 4.30531C18.2729 5.79651 19.1701 7.76154 19.3492 9.85714H16.9615C16.3188 9.85714 15.7025 10.1168 15.2481 10.5789C14.7937 11.0411 14.5384 11.6679 14.5384 12.3214V16.4286C14.5384 17.0821 14.7937 17.7089 15.2481 18.1711C15.7025 18.6332 16.3188 18.8929 16.9615 18.8929H19.3845C19.3845 19.5464 19.1293 20.1732 18.6748 20.6354C18.2204 21.0975 17.6041 21.3571 16.9615 21.3571H11.3077C11.0934 21.3571 10.888 21.4437 10.7365 21.5977C10.5851 21.7518 10.5 21.9607 10.5 22.1786C10.5 22.3964 10.5851 22.6054 10.7365 22.7594C10.888 22.9135 11.0934 23 11.3077 23H16.9615C18.0325 23 19.0597 22.5673 19.8171 21.797C20.5744 21.0268 20.9999 19.9821 20.9999 18.8929V10.6786C21.0052 9.28171 20.7394 7.89751 20.2177 6.6053C19.6961 5.31309 18.9288 4.13826 17.96 3.14813ZM4.03845 11.5C4.25266 11.5 4.4581 11.5865 4.60957 11.7406C4.76104 11.8946 4.84614 12.1036 4.84614 12.3214V16.4286C4.84614 16.6464 4.76104 16.8554 4.60957 17.0094C4.4581 17.1635 4.25266 17.25 4.03845 17.25H2.42307C2.20886 17.25 2.00342 17.1635 1.85195 17.0094C1.70047 16.8554 1.61538 16.6464 1.61538 16.4286V11.5H4.03845ZM16.9615 17.25C16.7473 17.25 16.5418 17.1635 16.3904 17.0094C16.2389 16.8554 16.1538 16.6464 16.1538 16.4286V12.3214C16.1538 12.1036 16.2389 11.8946 16.3904 11.7406C16.5418 11.5865 16.7473 11.5 16.9615 11.5H19.3845V17.25H16.9615Z" fill="#2A2A2A"/>
</svg>