<svg xmlns="http://www.w3.org/2000/svg" width="90" height="68" viewBox="0 0 90 68" fill="none">
<mask id="mask0_2308_8204" style="mask-type:alpha" maskUnits="userSpaceOnUse" x="0" y="0" width="90" height="68">
<path d="M0 0H83C86.866 0 90 3.13401 90 7V68H0V0Z" fill="#D9D9D9"/>
</mask>
<g mask="url(#mask0_2308_8204)">
<path opacity="0.12" fill-rule="evenodd" clip-rule="evenodd" d="M89.1097 -33.0981L89.1234 -33.0854C89.9388 -32.328 90.597 -31.4173 91.0605 -30.4055C91.5239 -29.3936 91.7835 -28.3004 91.8244 -27.1882C91.8653 -26.076 91.6868 -24.9666 91.2989 -23.9235C90.911 -22.8803 90.3214 -21.9238 89.5638 -21.1085L89.5428 -21.0859L33.24 39.0697C31.6999 40.715 29.5707 41.683 27.3184 41.7616C25.0662 41.8403 22.8746 41.0232 21.2236 39.4894L21.2095 39.4763C20.3941 38.7189 19.7359 37.8083 19.2725 36.7965C18.809 35.7847 18.5494 34.6915 18.5085 33.5793C18.4675 32.4672 18.6461 31.3579 19.0339 30.3148C19.4217 29.2716 20.0112 28.3151 20.7687 27.4998L20.7901 27.4768L77.0947 -32.6808C78.635 -34.3253 80.764 -35.2925 83.0158 -35.3708C85.2676 -35.4491 87.459 -34.6317 89.1097 -33.0981Z" fill="url(#paint0_linear_2308_8204)"/>
<path opacity="0.12" fill-rule="evenodd" clip-rule="evenodd" d="M125.777 -34.0981L125.79 -34.0854C126.606 -33.3279 127.264 -32.4171 127.727 -31.4052C128.191 -30.3934 128.45 -29.3001 128.491 -28.1879C128.532 -27.0757 128.353 -25.9664 127.965 -24.9232C127.578 -23.88 126.988 -22.9234 126.23 -22.1081L126.209 -22.0855L69.9048 38.0721C68.3648 39.7174 66.2355 40.6853 63.9833 40.764C61.731 40.8426 59.5394 40.0255 57.8884 38.4917L57.8744 38.4786C57.0589 37.7212 56.4007 36.8105 55.9372 35.7987C55.4738 34.7868 55.2142 33.6936 55.1733 32.5814C55.1324 31.4692 55.311 30.3599 55.6989 29.3167C56.0867 28.2735 56.6763 27.317 57.4339 26.5017L57.455 26.4791L113.758 -33.6765C115.298 -35.3218 117.427 -36.2898 119.679 -36.3684C121.932 -36.4471 124.123 -35.63 125.774 -34.0961L125.777 -34.0981Z" fill="url(#paint1_linear_2308_8204)"/>
</g>
<defs>
<linearGradient id="paint0_linear_2308_8204" x1="68.8582" y1="-11.4871" x2="36.0523" y2="23.6929" gradientUnits="userSpaceOnUse">
<stop stop-color="#FFCA5A"/>
<stop offset="1" stop-color="#008061"/>
</linearGradient>
<linearGradient id="paint1_linear_2308_8204" x1="100.674" y1="-7.36066" x2="67.7375" y2="41.9462" gradientUnits="userSpaceOnUse">
<stop stop-color="#008061"/>
<stop offset="1" stop-color="#FFCA5A"/>
</linearGradient>
</defs>
</svg>