<svg xmlns="http://www.w3.org/2000/svg" width="10" height="2" viewBox="0 0 10 2" fill="none">
<path d="M1.99547 1.00004C1.99547 0.810169 1.93891 0.624564 1.83295 0.466692C1.727 0.308821 1.5764 0.185776 1.4002 0.113116C1.224 0.0404556 1.03011 0.0214436 0.843058 0.0584854C0.656004 0.0955272 0.484186 0.186959 0.349328 0.321217C0.21447 0.455475 0.122631 0.626531 0.0854234 0.812753C0.0482163 0.998975 0.0673124 1.192 0.140297 1.36741C0.213281 1.54283 0.336876 1.69276 0.495452 1.79825C0.654028 1.90374 0.840463 1.96004 1.03118 1.96004C1.28692 1.96004 1.53219 1.8589 1.71303 1.67886C1.89387 1.49883 1.99547 1.25465 1.99547 1.00004Z" fill="#2A2A2A"/>
<path d="M5.93297 1.00004C5.93297 0.810169 5.87641 0.624564 5.77045 0.466692C5.6645 0.308821 5.5139 0.185776 5.3377 0.113116C5.1615 0.0404556 4.96761 0.0214436 4.78056 0.0584854C4.5935 0.0955272 4.42169 0.186959 4.28683 0.321217C4.15197 0.455475 4.06013 0.626531 4.02292 0.812753C3.98572 0.998975 4.00481 1.192 4.0778 1.36741C4.15078 1.54283 4.27438 1.69276 4.43295 1.79825C4.59153 1.90374 4.77796 1.96004 4.96868 1.96004C5.22442 1.96004 5.46969 1.8589 5.65053 1.67886C5.83137 1.49883 5.93297 1.25465 5.93297 1.00004Z" fill="#2A2A2A"/>
<path d="M9.93297 1.00004C9.93297 0.810169 9.87641 0.624564 9.77045 0.466692C9.6645 0.308821 9.5139 0.185776 9.3377 0.113116C9.1615 0.0404556 8.96761 0.0214436 8.78056 0.0584854C8.5935 0.0955272 8.42169 0.186959 8.28683 0.321217C8.15197 0.455475 8.06013 0.626531 8.02292 0.812753C7.98572 0.998975 8.00481 1.192 8.0778 1.36741C8.15078 1.54283 8.27438 1.69276 8.43295 1.79825C8.59153 1.90374 8.77796 1.96004 8.96868 1.96004C9.22442 1.96004 9.46969 1.8589 9.65053 1.67886C9.83137 1.49883 9.93297 1.25465 9.93297 1.00004Z" fill="#2A2A2A"/>
</svg>