<svg xmlns="http://www.w3.org/2000/svg" width="594" height="175" viewBox="0 0 594 175" fill="none">
<rect width="594" height="175" rx="8" fill="white"/>
<rect x="0.5" y="0.5" width="593" height="174" rx="7.5" stroke="#D9D9D9" stroke-opacity="0.6"/>
<mask id="mask0_607_3165" style="mask-type:alpha" maskUnits="userSpaceOnUse" x="503" y="1" width="90" height="68">
<path d="M503 1H586C589.866 1 593 4.13401 593 8V69H503V1Z" fill="#D9D9D9"/>
</mask>
<g mask="url(#mask0_607_3165)">
<path opacity="0.12" fill-rule="evenodd" clip-rule="evenodd" d="M592.11 -32.0981L592.123 -32.0854C592.939 -31.328 593.597 -30.4173 594.06 -29.4055C594.524 -28.3936 594.784 -27.3004 594.824 -26.1882C594.865 -25.076 594.687 -23.9666 594.299 -22.9235C593.911 -21.8803 593.321 -20.9238 592.564 -20.1085L592.543 -20.0859L536.24 40.0697C534.7 41.715 532.571 42.683 530.318 42.7616C528.066 42.8403 525.875 42.0232 524.224 40.4894L524.21 40.4763C523.394 39.7189 522.736 38.8083 522.272 37.7965C521.809 36.7847 521.549 35.6915 521.508 34.5793C521.468 33.4672 521.646 32.3579 522.034 31.3148C522.422 30.2716 523.011 29.3151 523.769 28.4998L523.79 28.4768L580.095 -31.6808C581.635 -33.3253 583.764 -34.2925 586.016 -34.3708C588.268 -34.4491 590.459 -33.6317 592.11 -32.0981Z" fill="url(#paint0_linear_607_3165)"/>
<path opacity="0.12" fill-rule="evenodd" clip-rule="evenodd" d="M628.777 -33.0981L628.79 -33.0854C629.606 -32.3279 630.264 -31.4171 630.727 -30.4052C631.191 -29.3934 631.45 -28.3001 631.491 -27.1879C631.532 -26.0757 631.353 -24.9664 630.965 -23.9232C630.578 -22.88 629.988 -21.9234 629.23 -21.1081L629.209 -21.0855L572.905 39.0721C571.365 40.7174 569.235 41.6853 566.983 41.764C564.731 41.8426 562.539 41.0255 560.888 39.4917L560.874 39.4786C560.059 38.7212 559.401 37.8105 558.937 36.7987C558.474 35.7868 558.214 34.6936 558.173 33.5814C558.132 32.4692 558.311 31.3599 558.699 30.3167C559.087 29.2735 559.676 28.317 560.434 27.5017L560.455 27.4791L616.758 -32.6765C618.298 -34.3218 620.427 -35.2898 622.679 -35.3684C624.932 -35.4471 627.123 -34.63 628.774 -33.0961L628.777 -33.0981Z" fill="url(#paint1_linear_607_3165)"/>
</g>
<defs>
<linearGradient id="paint0_linear_607_3165" x1="571.858" y1="-10.4871" x2="539.052" y2="24.6929" gradientUnits="userSpaceOnUse">
<stop stop-color="#FFCA5A"/>
<stop offset="1" stop-color="#008061"/>
</linearGradient>
<linearGradient id="paint1_linear_607_3165" x1="603.674" y1="-6.36066" x2="570.737" y2="42.9462" gradientUnits="userSpaceOnUse">
<stop stop-color="#008061"/>
<stop offset="1" stop-color="#FFCA5A"/>
</linearGradient>
</defs>
</svg>