<svg xmlns="http://www.w3.org/2000/svg" width="100" height="60" viewBox="0 0 100 60" fill="none">
<path d="M29 30C29 24.4305 31.2125 19.089 35.1508 15.1508C39.089 11.2125 44.4305 9 50 9C55.8708 9.02209 61.5057 11.3129 65.7267 15.3933L71 20.6667M71 20.6667V15.3933M71 20.6667H65.7267M71 30C71 35.5695 68.7875 40.911 64.8492 44.8492C60.911 48.7875 55.5695 51 50 51C44.1292 50.9779 38.4943 48.6871 34.2733 44.6067L29 39.3333M29 39.3333H34.2733M29 39.3333V44.6067" stroke="#008061" stroke-width="2" stroke-linecap="round" stroke-linejoin="round"/>
<path d="M61.5 29.9138C61.5 36.1946 56.3376 41.3275 50 41.3275C43.6623 41.3275 38.5 36.1972 38.5 29.9138C38.5 23.6304 43.6648 18.5 50 18.5C56.3351 18.5 61.5 23.633 61.5 29.9138Z" stroke="#008061"/>
<path fill-rule="evenodd" clip-rule="evenodd" d="M50.0005 39.5149C55.3275 39.5149 59.6709 35.2026 59.6709 29.9139C59.6709 24.6253 55.3275 20.313 50.0005 20.313C44.6736 20.313 40.3301 24.6253 40.3301 29.9139C40.3301 35.2026 44.6736 39.5149 50.0005 39.5149Z" fill="#AEE7D9" fill-opacity="0.2"/>
<path d="M51.1641 24.2704C51.6546 24.4051 52.0641 24.6252 52.3928 24.936C52.8494 25.3685 53.1389 25.9461 53.2667 26.6713L51.4224 26.9121C51.3728 26.6557 51.2867 26.4382 51.1641 26.2569V24.273V24.2704ZM51.1641 28.7691C51.9989 29.054 52.5885 29.3985 52.9328 29.8051C53.3554 30.305 53.5667 30.9447 53.5667 31.7269C53.5667 32.5997 53.3007 33.3352 52.7711 33.9335C52.3589 34.3971 51.8241 34.7208 51.1667 34.9073V33.1824C51.2659 33.1125 51.3572 33.0296 51.4407 32.9338C51.6702 32.6644 51.785 32.351 51.785 31.9884C51.785 31.6647 51.6885 31.3876 51.4954 31.1519C51.4094 31.0483 51.2998 30.9551 51.1667 30.8722V28.7717L51.1641 28.7691ZM49.492 33.3326V30.2998C49.3276 30.2532 49.1711 30.2014 49.0224 30.147V27.9559C49.1528 28.0621 49.3094 28.1553 49.492 28.2356V25.7285C49.312 25.7881 49.1554 25.8762 49.0224 25.9901V24.2264C49.1737 24.1927 49.3302 24.1668 49.492 24.1513V23.4338H50.5459V24.1513C50.765 24.1772 50.9711 24.2186 51.1641 24.2704V26.2543C51.0128 26.0316 50.8067 25.8632 50.5459 25.7518V28.5827C50.765 28.6422 50.9711 28.7044 51.1641 28.7691V30.8696C50.9972 30.766 50.7911 30.6805 50.5459 30.6106V33.4336C50.7807 33.3896 50.9867 33.3067 51.1641 33.1824V34.9073C50.9685 34.9617 50.7624 35.0057 50.5459 35.0368V36.3914H49.492V35.0705C49.3302 35.0498 49.1711 35.0239 49.0224 34.9876V33.0011C49.1685 33.141 49.325 33.2523 49.492 33.3326ZM49.0224 30.147C48.305 29.8828 47.7624 29.5254 47.3946 29.0722C46.9511 28.5231 46.7267 27.8575 46.7267 27.0779C46.7267 26.2983 46.9772 25.6223 47.4807 25.0836C47.8876 24.6511 48.4015 24.3662 49.0224 24.2264V25.9901C48.9415 26.0575 48.8711 26.1352 48.8059 26.2206C48.6363 26.4537 48.5528 26.7101 48.5528 26.9898C48.5528 27.2437 48.6311 27.4845 48.785 27.7021C48.8502 27.7953 48.9311 27.8782 49.025 27.9559V30.147H49.0224ZM49.0224 34.9876C48.3937 34.84 47.8641 34.5551 47.4415 34.1355C46.9172 33.6175 46.5833 32.8794 46.4346 31.9289L48.3389 31.7269C48.4146 32.1128 48.5633 32.4469 48.7772 32.724C48.8554 32.8276 48.9363 32.9182 49.0224 33.0011V34.9876Z" fill="#008061"/>
</svg>