<svg xmlns="http://www.w3.org/2000/svg" width="100" height="60" viewBox="0 0 100 60" fill="none">
<path d="M48.8 40.8006L51.2 43.2006C51.4364 43.437 51.717 43.6245 52.0258 43.7524C52.3347 43.8803 52.6657 43.9462 53 43.9462C53.3343 43.9462 53.6653 43.8803 53.9742 43.7524C54.283 43.6245 54.5636 43.437 54.8 43.2006C55.0364 42.9642 55.2239 42.6836 55.3518 42.3747C55.4797 42.0659 55.5456 41.7349 55.5456 41.4006C55.5456 41.0663 55.4797 40.7353 55.3518 40.4264C55.2239 40.1176 55.0364 39.837 54.8 39.6006M52.4 37.2006L55.4 40.2006C55.8774 40.678 56.5248 40.9462 57.2 40.9462C57.8751 40.9462 58.5226 40.678 59 40.2006C59.4774 39.7232 59.7456 39.0757 59.7456 38.4006C59.7456 37.7255 59.4774 37.078 59 36.6006L54.344 31.9446C53.669 31.2704 52.754 30.8918 51.8 30.8918C50.846 30.8918 49.931 31.2704 49.256 31.9446L48.2 33.0006C47.7226 33.478 47.0751 33.7462 46.4 33.7462C45.7248 33.7462 45.0774 33.478 44.6 33.0006C44.1226 32.5232 43.8544 31.8757 43.8544 31.2006C43.8544 30.5255 44.1226 29.878 44.6 29.4006L47.972 26.0286C49.0667 24.9368 50.4943 24.2413 52.0287 24.0522C53.5632 23.8631 55.117 24.1912 56.444 24.9846L57.008 25.3206C57.5189 25.629 58.1264 25.7359 58.712 25.6206L60.8 25.2006M60.8 24.0006L62 37.2006H59.6M39.2 24.0006L38 37.2006L45.8 45.0006C46.2774 45.478 46.9249 45.7462 47.6 45.7462C48.2751 45.7462 48.9226 45.478 49.4 45.0006C49.8774 44.5232 50.1456 43.8757 50.1456 43.2006C50.1456 42.5255 49.8774 41.878 49.4 41.4006M39.2 25.2006H48.8" stroke="#008061" stroke-width="2" stroke-linecap="round" stroke-linejoin="round"/>
<rect x="36.459" y="22" width="4" height="16.7908" rx="2" transform="rotate(5.58718 36.459 22)" fill="#008061"/>
<rect x="58.6533" y="22.6006" width="4" height="16.7908" rx="2" transform="rotate(-9.50861 58.6533 22.6006)" fill="#008061"/>
<path d="M70.9515 22.1249C70.8845 21.8654 70.7492 21.6285 70.5597 21.439C70.3701 21.2495 70.1333 21.1142 69.8737 21.0472L65.2726 19.8607C65.1941 19.8385 65.125 19.7912 65.0758 19.7261C65.0266 19.661 65 19.5816 65 19.5C65 19.4184 65.0266 19.339 65.0758 19.2739C65.125 19.2088 65.1941 19.1615 65.2726 19.1393L69.8737 17.952C70.1332 17.8851 70.37 17.75 70.5595 17.5606C70.749 17.3712 70.8844 17.1345 70.9515 16.8751L72.1379 12.2739C72.16 12.1951 72.2072 12.1257 72.2724 12.0762C72.3376 12.0268 72.4172 12 72.499 12C72.5809 12 72.6605 12.0268 72.7257 12.0762C72.7909 12.1257 72.8381 12.1951 72.8602 12.2739L74.0459 16.8751C74.1128 17.1346 74.2481 17.3715 74.4376 17.561C74.6272 17.7505 74.864 17.8858 75.1236 17.9528L79.7247 19.1385C79.8038 19.1603 79.8736 19.2075 79.9233 19.2728C79.9731 19.3381 80 19.4179 80 19.5C80 19.5821 79.9731 19.6619 79.9233 19.7272C79.8736 19.7925 79.8038 19.8397 79.7247 19.8615L75.1236 21.0472C74.864 21.1142 74.6272 21.2495 74.4376 21.439C74.2481 21.6285 74.1128 21.8654 74.0459 22.1249L72.8594 26.7261C72.8373 26.8049 72.7901 26.8743 72.7249 26.9238C72.6597 26.9732 72.5801 27 72.4983 27C72.4164 27 72.3369 26.9732 72.2717 26.9238C72.2065 26.8743 72.1592 26.8049 72.1372 26.7261L70.9515 22.1249Z" stroke="#008061" stroke-width="2" stroke-linecap="round" stroke-linejoin="round"/>
</svg>