<svg xmlns="http://www.w3.org/2000/svg" width="100" height="60" viewBox="0 0 100 60" fill="none">
<path d="M29 30C29 24.4305 31.2125 19.089 35.1508 15.1508C39.089 11.2125 44.4305 9 50 9C55.8708 9.02209 61.5057 11.3129 65.7267 15.3933L71 20.6667M71 20.6667V15.3933M71 20.6667H65.7267M71 30C71 35.5695 68.7875 40.911 64.8492 44.8492C60.911 48.7875 55.5695 51 50 51C44.1292 50.9779 38.4943 48.6871 34.2733 44.6067L29 39.3333M29 39.3333H34.2733M29 39.3333V44.6067" stroke="#008061" stroke-width="2" stroke-linecap="round" stroke-linejoin="round"/>
<path d="M42 38C42 35.4737 43.5579 33.4863 46.2779 32.9474C48.3158 32.5432 50.4211 31.2632 51.2632 30.4211M49.5789 37.1579C48.1002 37.1624 46.6739 36.611 45.5827 35.613C44.4916 34.615 43.8154 33.2434 43.6882 31.7702C43.561 30.297 43.9921 28.8298 44.8961 27.6596C45.8001 26.4894 47.1108 25.7016 48.5684 25.4526C53.3684 24.5263 54.6316 24.0884 56.3158 22C57.1579 23.6842 58 25.52 58 28.7368C58 33.3684 53.9747 37.1579 49.5789 37.1579Z" stroke="#008061" stroke-width="2" stroke-linecap="round" stroke-linejoin="round"/>
</svg>