<svg xmlns="http://www.w3.org/2000/svg" width="100" height="60" viewBox="0 0 100 60" fill="none">
<circle cx="50" cy="33" r="19" stroke="#008061" stroke-width="2"/>
<circle cx="50" cy="15" r="8" fill="#008061"/>
<path d="M50 14.75C51.0355 14.75 51.875 13.9105 51.875 12.875C51.875 11.8395 51.0355 11 50 11C48.9645 11 48.125 11.8395 48.125 12.875C48.125 13.9105 48.9645 14.75 50 14.75ZM50 14.75C50.7956 14.75 51.5587 15.0661 52.1213 15.6287C52.6839 16.1913 53 16.9543 53 17.75M50 14.75C49.2044 14.75 48.4413 15.0661 47.8787 15.6287C47.3161 16.1913 47 16.9543 47 17.75" stroke="white" stroke-width="2" stroke-linecap="round" stroke-linejoin="round"/>
<circle cx="31" cy="38" r="8" fill="#008061"/>
<path d="M31 37.75C32.0355 37.75 32.875 36.9105 32.875 35.875C32.875 34.8395 32.0355 34 31 34C29.9645 34 29.125 34.8395 29.125 35.875C29.125 36.9105 29.9645 37.75 31 37.75ZM31 37.75C31.7956 37.75 32.5587 38.0661 33.1213 38.6287C33.6839 39.1913 34 39.9543 34 40.75M31 37.75C30.2044 37.75 29.4413 38.0661 28.8787 38.6287C28.3161 39.1913 28 39.9543 28 40.75" stroke="white" stroke-width="2" stroke-linecap="round" stroke-linejoin="round"/>
<circle cx="69" cy="38" r="8" fill="#008061"/>
<path d="M69 37.75C70.0355 37.75 70.875 36.9105 70.875 35.875C70.875 34.8395 70.0355 34 69 34C67.9645 34 67.125 34.8395 67.125 35.875C67.125 36.9105 67.9645 37.75 69 37.75ZM69 37.75C69.7956 37.75 70.5587 38.0661 71.1213 38.6287C71.6839 39.1913 72 39.9543 72 40.75M69 37.75C68.2044 37.75 67.4413 38.0661 66.8787 38.6287C66.3161 39.1913 66 39.9543 66 40.75" stroke="white" stroke-width="2" stroke-linecap="round" stroke-linejoin="round"/>
</svg>