<svg xmlns="http://www.w3.org/2000/svg" width="100" height="60" viewBox="0 0 100 60" fill="none">
<path d="M48.9863 42.0569H50.9863C51.5168 42.0569 52.0255 41.8462 52.4005 41.4711C52.7756 41.096 52.9863 40.5873 52.9863 40.0569C52.9863 39.5265 52.7756 39.0177 52.4005 38.6427C52.0255 38.2676 51.5168 38.0569 50.9863 38.0569H47.9863C47.3863 38.0569 46.8863 38.2569 46.5863 38.6569L40.9863 44.0569M44.9863 48.0569L46.5863 46.6569C46.8863 46.2569 47.3863 46.0569 47.9863 46.0569H51.9863C53.0863 46.0569 54.0863 45.6569 54.7863 44.8569L59.3863 40.4569C59.7722 40.0922 59.9974 39.5892 60.0124 39.0585C60.0274 38.5278 59.831 38.0128 59.4663 37.6269C59.1017 37.241 58.5986 37.0158 58.0679 37.0008C57.5372 36.9858 57.0222 37.1822 56.6363 37.5469L52.4363 41.4469M39.9863 43.0569L45.9863 49.0569" stroke="#008061" stroke-width="2" stroke-linecap="round" stroke-linejoin="round"/>
<path d="M50 31.9999V25.4299M52 21H52.01M52 17H52.01M54 25.4299V31.9999M55 26C54.1345 25.3509 53.0819 25 52 25C50.9181 25 49.8655 25.3509 49 26M56 21H56.01M56 17H56.01M48 21H48.01M48 17H48.01M46 12H58C59.1046 12 60 12.8954 60 14V30C60 31.1046 59.1046 32 58 32H46C44.8954 32 44 31.1046 44 30V14C44 12.8954 44.8954 12 46 12Z" stroke="#008061" stroke-width="2" stroke-linecap="round" stroke-linejoin="round"/>
</svg>