<svg xmlns="http://www.w3.org/2000/svg" width="100" height="60" viewBox="0 0 100 60" fill="none">
<path d="M40.1905 34.7995L40.1903 34.7992C39.5125 34.1322 38.5953 33.7577 37.6395 33.7565C36.685 33.7554 35.7682 34.1266 35.0891 34.7901L34.5022 35.328L33.9146 34.7881C33.2357 34.1217 32.3172 33.7487 31.3607 33.75C30.4028 33.7513 29.484 34.128 28.8066 34.7983C28.1291 35.4686 27.7487 36.3778 27.75 37.3259C27.7514 38.2737 28.1341 39.1815 28.813 39.8499C28.8133 39.8501 28.8135 39.8504 28.8138 39.8507L33.9972 45.04C34.0638 45.1067 34.143 45.1595 34.2302 45.1955C34.3173 45.2315 34.4107 45.25 34.5049 45.25C34.5992 45.25 34.6926 45.2315 34.7797 45.1955C34.8668 45.1595 34.946 45.1067 35.0126 45.04L35.0127 45.0399L40.1905 39.8504C40.1908 39.8501 40.191 39.8499 40.1913 39.8496C40.8688 39.1804 41.25 38.2724 41.25 37.3249C41.25 36.3771 40.8685 35.4688 40.1905 34.7995ZM39.1308 38.9008L34.5021 43.5328L29.8218 38.8476L29.8218 38.8476L29.8205 38.8463C29.4106 38.442 29.181 37.8942 29.181 37.3238C29.181 36.7534 29.4106 36.2056 29.8205 35.8012C30.2304 35.3967 30.7872 35.1689 31.3684 35.1689C31.9496 35.1689 32.5063 35.3967 32.9163 35.8012L32.9279 35.8127L32.9278 35.8128L32.9344 35.8189L34.0167 36.8123C34.149 36.9338 34.3225 37.0008 34.502 37.0008C34.6816 37.0008 34.855 36.9338 34.9873 36.8123C34.9874 36.8123 34.9874 36.8123 34.9874 36.8123L36.0696 35.8189L36.0697 35.819L36.0761 35.8127L36.0876 35.8013C36.4979 35.3971 37.0548 35.1696 37.636 35.17C38.2172 35.1704 38.7738 35.3986 39.1835 35.8034L39.3592 35.6255L39.1835 35.8034C39.593 36.208 39.8223 36.756 39.8219 37.3264C39.8215 37.8968 39.5915 38.4444 39.1814 38.8485L39.1317 38.8975L39.1308 38.9008Z" fill="#008061" stroke="#008061" stroke-width="0.5"/>
<path d="M60.3998 40.1999C60.3998 37.2295 59.2198 34.3808 57.1194 32.2804C55.019 30.18 52.1703 29 49.1998 29M49.1998 29C46.2294 29 43.3807 30.18 41.2803 32.2804M49.1998 29C53.0658 29 56.1998 25.866 56.1998 22C56.1998 18.134 53.0658 15 49.1998 15C45.3339 15 42.1999 18.134 42.1999 22C42.1999 25.866 45.3339 29 49.1998 29ZM65.9999 38.7999C65.9999 34.0819 63.1999 29.6999 60.3999 27.5999C61.3203 26.9094 62.0562 26.0026 62.5427 24.9599C63.0291 23.9171 63.251 22.7706 63.1887 21.6216C63.1264 20.4727 62.7819 19.3568 62.1856 18.3728C61.5892 17.3888 60.7595 16.5669 59.7699 15.9799" stroke="#008061" stroke-width="2" stroke-linecap="round" stroke-linejoin="round"/>
</svg>