<svg width="20" height="20" viewBox="0 0 20 20" fill="none" xmlns="http://www.w3.org/2000/svg">
<rect x="0.5" y="0.5" width="19" height="19" rx="9.5" fill="white" fill-opacity="0.12"/>
<rect x="0.5" y="0.5" width="19" height="19" rx="9.5" stroke="white"/>
<path d="M14.984 10.4006C15.0903 10.2943 15.15 10.1502 15.15 9.99992C15.15 9.84963 15.0903 9.7055 14.984 9.59923C14.8778 9.49295 14.7336 9.43325 14.5833 9.43325H14.5502H14.5173H14.4846H14.452H14.4196H14.3874H14.3554H14.3236H14.2919H14.2605H14.2292H14.1981H14.1671H14.1364H14.1058H14.0754H14.0451H14.015H13.9852H13.9554H13.9259H13.8965H13.8673H13.8382H13.8094H13.7807H13.7521H13.7237H13.6955H13.6675H13.6396H13.6119H13.5843H13.5569H13.5297H13.5026H13.4757H13.449H13.4223H13.3959H13.3696H13.3435H13.3175H13.2917H13.266H13.2405H13.2151H13.1899H13.1649H13.1399H13.1152H13.0906H13.0661H13.0418H13.0176H12.9936H12.9697H12.9459H12.9223H12.8989H12.8755H12.8524H12.8293H12.8064H12.7837H12.761H12.7386H12.7162H12.694H12.6719H12.65H12.6282H12.6065H12.5849H12.5635H12.5422H12.5211H12.5H12.4791H12.4584H12.4377H12.4172H12.3968H12.3766H12.3564H12.3364H12.3165H12.2967H12.277H12.2575H12.2381H12.2188H12.1996H12.1805H12.1616H12.1428H12.124H12.1054H12.0869H12.0686H12.0503H12.0321H12.0141H11.9962H11.9783H11.9606H11.943H11.9255H11.9081H11.8908H11.8736H11.8565H11.8396H11.8227H11.8059H11.7892H11.7727H11.7562H11.7398H11.7235H11.7073H11.6912H11.6753H11.6594H11.6436H11.6279H11.6122H11.5967H11.5813H11.5659H11.5507H11.5355H11.5204H11.5055H11.4906H11.4757H11.461H11.4464H11.4318H11.4173H11.4029H11.3886H11.3744H11.3602H11.3462H11.3322H11.3183H11.3044H11.2907H11.277H11.2634H11.2498H11.2364H11.223H11.2096H11.1964H11.1832H11.1701H11.1571H11.1441H11.1312H11.1184H11.1056H11.0929H11.0803H11.0677H11.0552H11.0427H11.0303H11.018H11.0057H10.9935H10.9814H10.9693H10.9573H10.9453H10.9334H10.9215H10.9097H10.8979H10.8862H10.8746H10.863H10.8514H10.8399H10.8285H10.8171H10.8057H10.7944H10.7831H10.7719H10.7607H10.7496H10.7385H10.7275H10.7165H10.7055H10.6946H10.6837H10.6729H10.6621H10.6513H10.6406H10.6299H10.6193H10.6086H10.598H10.5875H10.577H10.5665H10.556H10.5456H10.5352H10.5248H10.5145H10.5041H10.4938H10.4836H10.4733H10.4631H10.4529H10.4428H10.4326H10.4225H10.4124H10.4023H10.3922H10.3822H10.3721H10.3621H10.3521H10.3421H10.3321H10.3222H10.3122H10.3023H10.2924H10.2825H10.2726H10.2627H10.2528H10.2429H10.2331H10.2232H10.2133H10.2035H10.1936H10.1838H10.174H10.1641H10.1543H10.1444H10.1346H10.1248H10.1149H10.1051H10.0952H10.0854H10.0755H10.0657H10.0558H10.0459H10.0361H10.0262H10.0163H10.0064H9.99646H9.98653H9.97659H9.96663H9.95666H9.94668H9.93669H9.92667H9.91664H9.9066H9.89653H9.88645H9.87635H9.86623H9.85608H9.84592H9.83573H9.82552H9.81528H9.80502H9.79474H9.78443H9.77409H9.76373H9.75333H9.74291H9.73246H9.72198H9.71146H9.70092H9.69034H9.67973H9.66908H9.6584H9.64768H9.63693H9.62614H9.61531H9.60444H9.59354H9.58259H9.5716H9.56057H9.5495H9.53839H9.52723H9.51603H9.50478H9.49349H9.48215H9.47076H9.45932H9.44784H9.4363H9.42472H9.41308H9.40139H9.38965H9.37785H9.36601H9.3541H9.34214H9.33013H9.31806H9.30593H9.29374H9.28149H9.26918H9.25681H9.24438H9.23189H9.21933H9.20671H9.19403H9.18128H9.16847H9.15558H9.14263H9.12962H9.11653H9.10338H9.09015H9.07685H9.06348H9.05004H9.03653H9.02294H9.00927H8.99554H8.98172H8.96783H8.95386H8.93981H8.92568H8.91147H8.89718H8.88281H8.86836H8.85383H8.83921H8.82451H8.80972H8.79484H8.77988H8.76483H8.7497H8.73447H8.71916H8.70375H8.68826H8.67267H8.65699H8.64122H8.62535H8.60939H8.59333H8.57718H8.56093H8.54458H8.52813H8.51159H8.49494H8.4782H8.46135H8.4444H8.42735H8.41019H8.39293H8.37557H8.35809H8.34052H8.32283H8.30504H8.28714H8.26913H8.25101H8.23277H8.21443H8.19597H8.1774H8.15872H8.13992H8.12101H8.10198H8.08283H8.06357H8.04419H8.02469H8.00506H7.98532H7.96546H7.94548H7.92537H7.90514H7.88478H7.8643H7.8437H7.82296H7.8021H7.78112H7.76H7.73875H7.71738H7.69587H7.67423H7.65246H7.63056H7.60852H7.58635H7.56404H7.5416H7.51902H7.4963H7.47344H7.45045H7.42731H7.40404H7.38062H7.35707H7.33336H7.30952H7.28553H7.2614H7.23712H7.21269H7.18812H7.1634H7.13853H7.11351H7.08835H7.06303H7.03756H7.01193H6.98616H6.96023H6.93414H6.9079H6.88151H6.85496H6.82825H6.80138H6.77435H6.74717H6.71982H6.69231H6.66464H6.63681H6.60882H6.58066H6.55233H6.52384H6.49519H6.46636H6.43737H6.40821H6.37888H6.34939H6.31972H6.28988H6.25986H6.22968H6.19932H6.16878H6.13807H6.10719H6.07613H6.04489H6.01347H5.98188H5.9501H5.91814H5.88601H5.85369H5.82119H5.7885H5.75563H5.72258H5.68934H5.65592H5.62231H5.58851H5.55452H5.52034H5.48597H5.45142H5.41667C5.26638 9.43325 5.12224 9.49295 5.01597 9.59923C4.9097 9.7055 4.85 9.84963 4.85 9.99992C4.85 10.1502 4.9097 10.2943 5.01597 10.4006C5.12224 10.5069 5.26638 10.5666 5.41667 10.5666H5.44978H5.4827H5.51544H5.548H5.58038H5.61257H5.64458H5.67641H5.70806H5.73953H5.77083H5.80194H5.83288H5.86365H5.89423H5.92465H5.95489H5.98495H6.01485H6.04457H6.07412H6.1035H6.13271H6.16175H6.19063H6.21934H6.24788H6.27625H6.30446H6.33251H6.36039H6.38811H6.41567H6.44306H6.4703H6.49738H6.52429H6.55105H6.57765H6.60409H6.63038H6.65651H6.68249H6.70831H6.73398H6.7595H6.78486H6.81008H6.83514H6.86006H6.88482H6.90944H6.93391H6.95824H6.98241H7.00645H7.03034H7.05408H7.07768H7.10114H7.12446H7.14764H7.17068H7.19358H7.21634H7.23896H7.26144H7.28379H7.30601H7.32808H7.35003H7.37184H7.39352H7.41507H7.43648H7.45777H7.47892H7.49995H7.52085H7.54162H7.56227H7.58279H7.60318H7.62345H7.64359H7.66362H7.68352H7.7033H7.72295H7.74249H7.76191H7.78121H7.80039H7.81946H7.83841H7.85724H7.87596H7.89456H7.91306H7.93143H7.9497H7.96786H7.9859H8.00384H8.02166H8.03938H8.05699H8.07449H8.09189H8.10918H8.12637H8.14346H8.16044H8.17732H8.19409H8.21077H8.22735H8.24382H8.2602H8.27648H8.29267H8.30875H8.32474H8.34064H8.35644H8.37215H8.38777H8.40329H8.41872H8.43406H8.44932H8.46448H8.47955H8.49454H8.50944H8.52426H8.53899H8.55363H8.56819H8.58267H8.59706H8.61138H8.62561H8.63976H8.65384H8.66783H8.68175H8.69559H8.70935H8.72303H8.73665H8.75018H8.76365H8.77704H8.79036H8.80361H8.81678H8.82989H8.84293H8.8559H8.8688H8.88164H8.89441H8.90711H8.91975H8.93232H8.94484H8.95729H8.96967H8.982H8.99427H9.00647H9.01862H9.03071H9.04275H9.05472H9.06664H9.07851H9.09032H9.10208H9.11378H9.12543H9.13703H9.14858H9.16008H9.17154H9.18294H9.19429H9.2056H9.21686H9.22808H9.23925H9.25038H9.26146H9.27251H9.28351H9.29446H9.30538H9.31626H9.3271H9.3379H9.34867H9.3594H9.37009H9.38075H9.39137H9.40196H9.41251H9.42304H9.43353H9.44399H9.45442H9.46482H9.4752H9.48554H9.49586H9.50615H9.51642H9.52666H9.53688H9.54708H9.55725H9.5674H9.57753H9.58764H9.59772H9.6078H9.61785H9.62788H9.6379H9.6479H9.65789H9.66786H9.67782H9.68776H9.69769H9.70762H9.71753H9.72743H9.73732H9.7472H9.75707H9.76694H9.7768H9.78666H9.79651H9.80636H9.8162H9.82604H9.83588H9.84571H9.85555H9.86539H9.87523H9.88507H9.89491H9.90475H9.9146H9.92446H9.93431H9.94418H9.95405H9.96393H9.97382H9.98372H9.99363H10.0035H10.0135H10.0234H10.0334H10.0433H10.0533H10.0633H10.0733H10.0834H10.0934H10.1035H10.1135H10.1237H10.1338H10.1439H10.1541H10.1643H10.1745H10.1847H10.195H10.2053H10.2156H10.2259H10.2363H10.2467H10.2571H10.2675H10.278H10.2885H10.2991H10.3097H10.3203H10.3309H10.3416H10.3523H10.3631H10.3739H10.3847H10.3956H10.4065H10.4174H10.4284H10.4394H10.4505H10.4616H10.4728H10.484H10.4952H10.5065H10.5179H10.5292H10.5407H10.5522H10.5637H10.5753H10.5869H10.5986H10.6104H10.6221H10.634H10.6459H10.6579H10.6699H10.6819H10.6941H10.7063H10.7185H10.7308H10.7432H10.7556H10.7681H10.7807H10.7933H10.806H10.8187H10.8315H10.8444H10.8574H10.8704H10.8835H10.8966H10.9098H10.9231H10.9365H10.95H10.9635H10.9771H10.9907H11.0045H11.0183H11.0322H11.0461H11.0602H11.0743H11.0885H11.1028H11.1172H11.1316H11.1462H11.1608H11.1755H11.1903H11.2052H11.2201H11.2352H11.2503H11.2655H11.2808H11.2962H11.3117H11.3273H11.343H11.3588H11.3746H11.3906H11.4067H11.4228H11.4391H11.4554H11.4719H11.4884H11.5051H11.5218H11.5387H11.5556H11.5727H11.5898H11.6071H11.6244H11.6419H11.6595H11.6772H11.695H11.7129H11.7309H11.749H11.7672H11.7856H11.804H11.8226H11.8413H11.8601H11.879H11.898H11.9172H11.9364H11.9558H11.9753H11.9949H12.0147H12.0345H12.0545H12.0746H12.0949H12.1152H12.1357H12.1563H12.177H12.1979H12.2189H12.24H12.2612H12.2826H12.3041H12.3258H12.3475H12.3694H12.3915H12.4137H12.436H12.4584H12.481H12.5037H12.5266H12.5496H12.5727H12.596H12.6194H12.6429H12.6666H12.6905H12.7145H12.7386H12.7629H12.7873H12.8119H12.8366H12.8615H12.8865H12.9117H12.937H12.9624H12.9881H13.0138H13.0398H13.0659H13.0921H13.1185H13.145H13.1718H13.1986H13.2256H13.2528H13.2802H13.3077H13.3354H13.3632H13.3912H13.4193H13.4477H13.4762H13.5048H13.5336H13.5626H13.5918H13.6211H13.6506H13.6803H13.7101H13.7401H13.7703H13.8007H13.8312H13.8619H13.8928H13.9239H13.9551H13.9865H14.0181H14.0499H14.0819H14.114H14.1463H14.1788H14.2115H14.2444H14.2774H14.3107H14.3441H14.3777H14.4115H14.4455H14.4797H14.514H14.5486H14.5833C14.7336 10.5666 14.8778 10.5069 14.984 10.4006Z" fill="white" stroke="white" stroke-width="0.3"/>
</svg>
