<svg width="233" height="174" viewBox="0 0 233 174" fill="none" xmlns="http://www.w3.org/2000/svg">
<path opacity="0.12" fill-rule="evenodd" clip-rule="evenodd" d="M139.288 25.9038L139.313 25.9276C140.845 27.3504 142.081 29.0609 142.952 30.9615C143.822 32.8622 144.31 34.9157 144.387 37.0048C144.464 39.0939 144.128 41.1776 143.4 43.1371C142.671 45.0965 141.564 46.8932 140.141 48.4246L140.101 48.4671L34.3438 161.461C31.451 164.552 27.4515 166.37 23.221 166.518C18.9905 166.665 14.8738 165.131 11.7725 162.25L11.7462 162.225C10.2146 160.802 8.97821 159.092 8.10768 157.191C7.23715 155.291 6.74952 153.237 6.67263 151.148C6.59573 149.059 6.93109 146.976 7.65954 145.016C8.38799 143.057 9.49528 141.26 10.9182 139.729L10.9584 139.686L116.719 26.6876C119.612 23.5987 123.611 21.7819 127.841 21.6348C132.071 21.4878 136.187 23.0232 139.288 25.9038Z" fill="url(#paint0_linear_677_2901)"/>
<path opacity="0.12" fill-rule="evenodd" clip-rule="evenodd" d="M221.311 11.9511L221.336 11.975C222.868 13.398 224.104 15.1086 224.974 17.0093C225.845 18.91 226.332 20.9635 226.409 23.0527C226.486 25.1418 226.15 27.2255 225.422 29.185C224.693 31.1445 223.586 32.9412 222.163 34.4727L222.123 34.5152L116.363 147.513C113.47 150.604 109.47 152.422 105.24 152.569C101.009 152.717 96.8927 151.182 93.7914 148.301L93.7651 148.277C92.2334 146.854 90.997 145.143 90.1264 143.243C89.2559 141.342 88.7683 139.289 88.6915 137.2C88.6146 135.111 88.9501 133.027 89.6787 131.067C90.4073 129.108 91.5147 127.311 92.9377 125.78L92.9773 125.737L198.734 12.743C201.627 9.65258 205.627 7.8344 209.857 7.68667C214.088 7.53894 218.204 9.07369 221.306 11.9548L221.311 11.9511Z" fill="url(#paint1_linear_677_2901)"/>
<defs>
<linearGradient id="paint0_linear_677_2901" x1="101.248" y1="66.4971" x2="39.6263" y2="132.578" gradientUnits="userSpaceOnUse">
<stop stop-color="#FFCA5A"/>
<stop offset="1" stop-color="#008061"/>
</linearGradient>
<linearGradient id="paint1_linear_677_2901" x1="174.159" y1="62.1738" x2="112.292" y2="154.79" gradientUnits="userSpaceOnUse">
<stop stop-color="#008061"/>
<stop offset="1" stop-color="#FFCA5A"/>
</linearGradient>
</defs>
</svg>
