<svg xmlns="http://www.w3.org/2000/svg" width="32" height="32" viewBox="0 0 32 32" fill="none">
<path d="M26.7901 11.2668L21.7661 6.21125C21.6994 6.1442 21.6203 6.09104 21.5331 6.05479C21.446 6.01854 21.3527 5.99993 21.2584 6H6.43541C6.05471 6 5.68961 6.15218 5.42042 6.42307C5.15123 6.69395 5 7.06135 5 7.44444V18.2778C5 18.4693 5.07562 18.653 5.21021 18.7885C5.34481 18.9239 5.52736 19 5.7177 19C5.90805 19 6.0906 18.9239 6.2252 18.7885C6.35979 18.653 6.43541 18.4693 6.43541 18.2778V7.44444H20.5407V11.7778C20.5407 11.9693 20.6163 12.153 20.7509 12.2885C20.8855 12.4239 21.068 12.5 21.2584 12.5H25.5646V18.2778C25.5646 18.4693 25.6402 18.653 25.7748 18.7885C25.9094 18.9239 26.0919 19 26.2823 19C26.4726 19 26.6552 18.9239 26.7898 18.7885C26.9244 18.653 27 18.4693 27 18.2778V11.7778C27.0001 11.6829 26.9816 11.5889 26.9456 11.5013C26.9095 11.4136 26.8567 11.3339 26.7901 11.2668ZM21.9761 11.0556V8.46549L24.5499 11.0556H21.9761Z" fill="#2A2A2A"/>
<path d="M24 24.1305V27.0575C24 29.1381 23.2484 30.5414 23.2166 30.6008C23.1578 30.7087 23.0674 30.7995 22.9556 30.863C22.8438 30.9264 22.715 30.9601 22.5836 30.9601C22.4738 30.9602 22.3656 30.9365 22.2676 30.891C22.0996 30.8139 21.9719 30.6787 21.9125 30.5151C21.853 30.3515 21.8668 30.1729 21.9507 30.0186C21.956 30.0089 22.5845 28.8145 22.5845 27.0575V24.1305C22.5845 23.8717 22.4726 23.6236 22.2734 23.4406C22.0742 23.2576 21.804 23.1549 21.5222 23.1549C21.2405 23.1549 20.9703 23.2576 20.7711 23.4406C20.5719 23.6236 20.46 23.8717 20.46 24.1305V24.4557C20.46 24.6282 20.3853 24.7937 20.2525 24.9157C20.1197 25.0376 19.9396 25.1062 19.7518 25.1062C19.5639 25.1062 19.3838 25.0376 19.251 24.9157C19.1182 24.7937 19.0436 24.6282 19.0436 24.4557V22.8296C19.0436 22.5709 18.9317 22.3227 18.7324 22.1397C18.5332 21.9568 18.263 21.854 17.9813 21.854C17.6996 21.854 17.4294 21.9568 17.2302 22.1397C17.0309 22.3227 16.919 22.5709 16.919 22.8296V23.8053C16.919 23.9778 16.8444 24.1432 16.7116 24.2652C16.5788 24.3872 16.3987 24.4557 16.2108 24.4557C16.023 24.4557 15.8429 24.3872 15.7101 24.2652C15.5773 24.1432 15.5027 23.9778 15.5027 23.8053V18.2765C15.5027 18.0178 15.3907 17.7696 15.1915 17.5866C14.9923 17.4037 14.7221 17.3009 14.4404 17.3009C14.1586 17.3009 13.8884 17.4037 13.6892 17.5866C13.49 17.7696 13.3781 18.0178 13.3781 18.2765V27.0575C13.3781 27.1988 13.328 27.3363 13.2353 27.4491C13.1427 27.5619 13.0126 27.644 12.8646 27.6828C12.7167 27.7217 12.559 27.7152 12.4154 27.6645C12.2719 27.6137 12.1502 27.5214 12.0688 27.4014L10.4152 24.9623L10.4028 24.9436C10.3331 24.8325 10.2402 24.7352 10.1295 24.6571C10.0188 24.579 9.89241 24.5218 9.7576 24.4885C9.62279 24.4553 9.48218 24.4468 9.34379 24.4635C9.2054 24.4802 9.07194 24.5218 8.95104 24.5858C8.83014 24.6499 8.72416 24.7352 8.63916 24.8369C8.55415 24.9386 8.49179 25.0546 8.45562 25.1784C8.41945 25.3022 8.41019 25.4314 8.42836 25.5585C8.44654 25.6856 8.49179 25.8082 8.56154 25.9192L11.1544 29.9845C11.209 30.0584 11.2464 30.1418 11.2643 30.2296C11.2822 30.3174 11.2803 30.4076 11.2586 30.4946C11.2369 30.5817 11.196 30.6637 11.1383 30.7356C11.0806 30.8074 11.0074 30.8676 10.9233 30.9124C10.8391 30.9571 10.7459 30.9855 10.6493 30.9957C10.5527 31.0059 10.4548 30.9978 10.3618 30.9718C10.2688 30.9457 10.1827 30.9024 10.1087 30.8444C10.0347 30.7865 9.97454 30.7152 9.93188 30.6349L7.33638 26.5697C7.00569 26.0477 6.9143 25.4265 7.08231 24.8427C7.25031 24.2588 7.66395 23.7602 8.23223 23.4565C8.80051 23.1528 9.47688 23.0688 10.1125 23.2231C10.7482 23.3774 11.2911 23.7574 11.6218 24.2793L11.9608 24.781V18.2765C11.9608 17.6728 12.222 17.0937 12.6868 16.6668C13.1517 16.2398 13.7821 16 14.4395 16C15.0969 16 15.7273 16.2398 16.1922 16.6668C16.657 17.0937 16.9181 17.6728 16.9181 18.2765V20.7726C17.2368 20.6337 17.5842 20.5588 17.9369 20.5531C18.2896 20.5473 18.6396 20.6108 18.9635 20.7393C19.2874 20.8677 19.5777 21.0582 19.815 21.298C20.0523 21.5377 20.2311 21.8213 20.3396 22.1296C20.7171 21.9415 21.1413 21.8468 21.5707 21.8546C22.0001 21.8625 22.42 21.9727 22.789 22.1744C23.1581 22.3762 23.4637 22.6625 23.676 23.0054C23.8883 23.3484 24 23.736 24 24.1305Z" fill="#2A2A2A"/>
<path d="M10 10.5H17" stroke="#008061" stroke-width="1.5" stroke-linecap="round"/>
<path d="M10 13H14" stroke="#008061" stroke-width="1.5" stroke-linecap="round"/>
</svg>