<svg xmlns="http://www.w3.org/2000/svg" width="18" height="19" viewBox="0 0 18 19" fill="none">
<path d="M17.5603 8.06387L10.0603 0.56387C9.77905 0.282778 9.39766 0.124878 9.00001 0.124878C8.60236 0.124878 8.22097 0.282778 7.9397 0.56387L0.439697 8.06387C0.299732 8.2028 0.188783 8.36816 0.1133 8.55035C0.0378174 8.73254 -0.00069249 8.92792 9.42514e-06 9.12512V18.1251C9.42514e-06 18.324 0.0790272 18.5148 0.219679 18.6555C0.360332 18.7961 0.551097 18.8751 0.750009 18.8751H6.75001C6.94892 18.8751 7.13969 18.7961 7.28034 18.6555C7.42099 18.5148 7.50001 18.324 7.50001 18.1251V12.8751H10.5V18.1251C10.5 18.324 10.579 18.5148 10.7197 18.6555C10.8603 18.7961 11.0511 18.8751 11.25 18.8751H17.25C17.4489 18.8751 17.6397 18.7961 17.7803 18.6555C17.921 18.5148 18 18.324 18 18.1251V9.12512C18.0007 8.92792 17.9622 8.73254 17.8867 8.55035C17.8112 8.36816 17.7003 8.2028 17.5603 8.06387ZM16.5 17.3751H12V12.1251C12 11.9262 11.921 11.7354 11.7803 11.5948C11.6397 11.4541 11.4489 11.3751 11.25 11.3751H6.75001C6.5511 11.3751 6.36033 11.4541 6.21968 11.5948C6.07903 11.7354 6.00001 11.9262 6.00001 12.1251V17.3751H1.50001V9.12512L9.00001 1.62512L16.5 9.12512V17.3751Z" fill="#008061"/>
</svg>