<svg width="24" height="19" viewBox="0 0 24 19" fill="none" xmlns="http://www.w3.org/2000/svg">
<path d="M24 9.12C24 9.50191 23.8483 9.86817 23.5782 10.1382C23.3082 10.4083 22.9419 10.56 22.56 10.56H1.44C1.05809 10.56 0.691819 10.4083 0.421766 10.1382C0.151714 9.86818 0 9.50191 0 9.12C0 8.73809 0.151714 8.37182 0.421766 8.10177C0.691819 7.83171 1.05809 7.68 1.44 7.68H22.56C22.9419 7.68001 23.3082 7.83173 23.5782 8.10178C23.8483 8.37183 24 8.73809 24 9.12ZM1.44 2.88H22.56C22.9419 2.88 23.3082 2.72829 23.5782 2.45823C23.8483 2.18818 24 1.82191 24 1.44C24 1.05809 23.8483 0.691818 23.5782 0.421766C23.3082 0.151714 22.9419 0 22.56 0H1.44C1.05809 0 0.691819 0.151714 0.421766 0.421766C0.151714 0.691818 0 1.05809 0 1.44C0 1.82191 0.151714 2.18818 0.421766 2.45823C0.691819 2.72829 1.05809 2.88 1.44 2.88ZM22.56 15.36H1.44C1.05809 15.36 0.691819 15.5117 0.421766 15.7818C0.151714 16.0518 0 16.4181 0 16.8C0 17.1819 0.151714 17.5482 0.421766 17.8182C0.691819 18.0883 1.05809 18.24 1.44 18.24H22.56C22.9419 18.24 23.3082 18.0883 23.5782 17.8182C23.8483 17.5482 24 17.1819 24 16.8C24 16.4181 23.8483 16.0518 23.5782 15.7818C23.3082 15.5117 22.9419 15.36 22.56 15.36Z" fill="#008061"/>
</svg>
