<svg xmlns="http://www.w3.org/2000/svg" width="104" height="104" viewBox="0 0 104 104" fill="none">
<path fill-rule="evenodd" clip-rule="evenodd" d="M48.2233 11.2498C35.8408 12.1389 24.081 17.0381 15.7344 26.0314C7.76385 34.6196 4.90217 46.2192 5.00254 57.8195C5.10191 69.3045 7.7608 81.1721 16.2799 89.0739C24.6278 96.8168 36.7333 98.4392 48.2233 97.9082C59.0947 97.4058 68.9111 93.0563 77.2853 86.2546C86.7363 78.5783 96.0141 69.7396 97.5801 57.8195C99.3215 44.5639 95.6907 30.2733 85.8584 20.9962C76.1476 11.8337 61.6776 10.2837 48.2233 11.2498Z" fill="#FCEAD2"/>
<rect x="24.7027" y="40.0394" width="39" height="23" rx="1.5" transform="rotate(-38.6101 24.7027 40.0394)" fill="white" stroke="#FFD699"/>
<rect x="31.0273" y="40.7476" width="13" height="13" transform="rotate(-38.6101 31.0273 40.7476)" fill="#FFF4E5"/>
<path d="M41.5237 33.0586L43.0447 34.9633C43.1344 35.0755 43.1758 35.2188 43.1598 35.3616C43.1438 35.5043 43.0717 35.6349 42.9595 35.7246C42.8472 35.8142 42.7039 35.8556 42.5612 35.8396C42.4184 35.8236 42.2878 35.7516 42.1982 35.6393L41.0152 34.1579L39.5337 35.3409C39.4215 35.4306 39.2782 35.4719 39.1355 35.456C38.9927 35.44 38.8621 35.3679 38.7725 35.2557C38.6828 35.1434 38.6414 35.0001 38.6574 34.8574C38.6734 34.7146 38.7455 34.584 38.8577 34.4944L40.7624 32.9733C40.8747 32.8837 41.0179 32.8423 41.1607 32.8583C41.3035 32.8743 41.434 32.9463 41.5237 33.0586ZM46.6776 40.3805C46.5653 40.4701 46.4933 40.6007 46.4773 40.7434C46.4613 40.8862 46.5027 41.0295 46.5923 41.1417L47.7754 42.6232L46.2939 43.8062C46.1817 43.8958 46.1096 44.0264 46.0936 44.1692C46.0777 44.3119 46.119 44.4552 46.2087 44.5675C46.2983 44.6797 46.4289 44.7518 46.5717 44.7678C46.7144 44.7837 46.8577 44.7424 46.97 44.6527L48.8746 43.1317C48.9869 43.042 49.0589 42.9115 49.0749 42.7687C49.0909 42.6259 49.0495 42.4827 48.9599 42.3704L47.4389 40.4657C47.3492 40.3535 47.2186 40.2814 47.0759 40.2654C46.9331 40.2494 46.7898 40.2908 46.6776 40.3805ZM40.7915 48.2003L39.3101 49.3833L38.127 47.9019C38.0374 47.7897 37.9068 47.7176 37.7641 47.7016C37.6213 47.6856 37.478 47.727 37.3658 47.8167C37.2535 47.9063 37.1815 48.0369 37.1655 48.1796C37.1495 48.3224 37.1909 48.4657 37.2805 48.5779L38.8016 50.4826C38.8912 50.5949 39.0218 50.6669 39.1645 50.6829C39.3073 50.6989 39.4506 50.6575 39.5628 50.5679L41.4675 49.0468C41.5798 48.9572 41.6518 48.8266 41.6678 48.6839C41.6838 48.5411 41.6424 48.3978 41.5528 48.2856C41.4631 48.1733 41.3326 48.1013 41.1898 48.0853C41.047 48.0693 40.9038 48.1107 40.7915 48.2003ZM33.6477 43.1608C33.7599 43.0711 33.832 42.9406 33.848 42.7978C33.8639 42.655 33.8226 42.5117 33.7329 42.3995L32.5499 40.9181L34.0313 39.735C34.1436 39.6454 34.2156 39.5148 34.2316 39.3721C34.2476 39.2293 34.2062 39.086 34.1166 38.9738C34.0269 38.8615 33.8964 38.7895 33.7536 38.7735C33.6108 38.7575 33.4676 38.7989 33.3553 38.8885L31.4506 40.4095C31.3384 40.4992 31.2663 40.6298 31.2503 40.7725C31.2343 40.9153 31.2757 41.0586 31.3654 41.1708L32.8864 43.0755C32.976 43.1878 33.1066 43.2598 33.2494 43.2758C33.3921 43.2918 33.5354 43.2504 33.6477 43.1608ZM44.7303 42.2821C44.6646 42.3348 44.5876 42.3714 44.5054 42.3891C44.4231 42.4069 44.3378 42.4052 44.2563 42.3842C43.7272 42.2472 43.1734 42.2352 42.6389 42.3493C42.1043 42.4633 41.6037 42.7003 41.1765 43.0414C40.7494 43.3824 40.4076 43.8183 40.1781 44.3144C39.9486 44.8105 39.8378 45.3532 39.8544 45.8995C39.8586 46.0432 39.8056 46.1827 39.707 46.2873C39.6083 46.3919 39.4722 46.453 39.3285 46.4573C39.1848 46.4615 39.0453 46.4084 38.9407 46.3098C38.8361 46.2112 38.7749 46.075 38.7707 45.9313C38.7447 45.1295 38.9289 44.3348 39.3049 43.6262C38.76 43.5901 38.2386 43.3901 37.8094 43.0525C37.3801 42.7149 37.0629 42.2553 36.8995 41.7342C36.7361 41.2131 36.734 40.6547 36.8936 40.1324C37.0532 39.6101 37.3669 39.1482 37.7937 38.8074C38.2205 38.4666 38.7403 38.2628 39.285 38.2227C39.8296 38.1826 40.3737 38.3082 40.8458 38.5828C41.3178 38.8575 41.6958 39.2684 41.9301 39.7618C42.1645 40.2551 42.2442 40.8077 42.1588 41.3472C42.9333 41.1367 43.7494 41.1326 44.5261 41.3353C44.6234 41.3603 44.7119 41.412 44.7816 41.4844C44.8512 41.5569 44.8994 41.6474 44.9206 41.7456C44.9418 41.8439 44.9352 41.9461 44.9016 42.0409C44.868 42.1357 44.8086 42.2192 44.7303 42.2821ZM40.5006 42.1939C40.7518 41.9933 40.9378 41.7228 41.0352 41.4165C41.1326 41.1102 41.137 40.7819 41.0478 40.4732C40.9586 40.1644 40.7799 39.889 40.5342 39.6818C40.2885 39.4746 39.9869 39.3449 39.6675 39.3092C39.3481 39.2734 39.0252 39.3332 38.7398 39.4809C38.4543 39.6286 38.2191 39.8576 38.0638 40.139C37.9086 40.4204 37.8402 40.7415 37.8674 41.0618C37.8947 41.382 38.0163 41.687 38.2168 41.9381C38.4858 42.2749 38.8775 42.491 39.3058 42.539C39.7341 42.587 40.1639 42.4628 40.5006 42.1939Z" fill="#2A2A2A" fill-opacity="0.8"/>
<path d="M48.4766 35.5149L58.6349 27.4027" stroke="#CCCCCC" stroke-linecap="round"/>
<path d="M50.0996 37.5466L60.2579 29.4344" stroke="#CCCCCC" stroke-linecap="round"/>
<path d="M46.6055 33.1707L56.7638 25.0584" stroke="#CCCCCC" stroke-linecap="round"/>
<rect x="28.9529" y="39.3421" width="39" height="23" rx="1.5" transform="rotate(-24.3947 28.9529 39.3421)" fill="white" stroke="#FFD699"/>
<rect x="51.002" y="34.3694" width="13" height="13" transform="rotate(-24.3947 51.002 34.3694)" fill="#FFF4E5"/>
<path d="M63.0631 29.4934L64.0698 31.7133C64.1292 31.8441 64.1341 31.9932 64.0835 32.1277C64.033 32.2621 63.9311 32.371 63.8003 32.4303C63.6694 32.4897 63.5204 32.4946 63.3859 32.444C63.2514 32.3935 63.1426 32.2916 63.0832 32.1607L62.3002 30.4342L60.5736 31.2172C60.4428 31.2765 60.2937 31.2815 60.1593 31.2309C60.0248 31.1803 59.9159 31.0784 59.8566 30.9476C59.7973 30.8168 59.7923 30.6677 59.8429 30.5333C59.8935 30.3988 59.9954 30.2899 60.1262 30.2306L62.3461 29.2238C62.4769 29.1645 62.626 29.1596 62.7604 29.2101C62.8949 29.2607 63.0038 29.3626 63.0631 29.4934ZM66.2612 37.8567C66.1303 37.916 66.0284 38.0249 65.9779 38.1594C65.9273 38.2939 65.9322 38.4429 65.9916 38.5737L66.7746 40.3003L65.048 41.0833C64.9172 41.1427 64.8153 41.2515 64.7647 41.386C64.7142 41.5205 64.7191 41.6695 64.7784 41.8004C64.8378 41.9312 64.9466 42.0331 65.0811 42.0837C65.2156 42.1342 65.3646 42.1293 65.4955 42.07L67.7153 41.0632C67.8462 41.0039 67.9481 40.895 67.9986 40.7605C68.0492 40.6261 68.0443 40.477 67.9849 40.3462L66.9782 38.1263C66.9189 37.9955 66.81 37.8936 66.6755 37.843C66.541 37.7924 66.392 37.7974 66.2612 37.8567ZM58.635 43.9917L56.9084 44.7747L56.1254 43.0481C56.0661 42.9173 55.9572 42.8154 55.8227 42.7648C55.6883 42.7143 55.5392 42.7192 55.4084 42.7785C55.2776 42.8379 55.1757 42.9468 55.1251 43.0812C55.0745 43.2157 55.0795 43.3647 55.1388 43.4956L56.1456 45.7155C56.2049 45.8463 56.3138 45.9482 56.4482 45.9988C56.5827 46.0493 56.7317 46.0444 56.8626 45.985L59.0825 44.9783C59.2133 44.919 59.3152 44.8101 59.3658 44.6756C59.4163 44.5412 59.4114 44.3921 59.3521 44.2613C59.2927 44.1304 59.1838 44.0285 59.0494 43.978C58.9149 43.9274 58.7659 43.9324 58.635 43.9917ZM52.9475 37.3522C53.0783 37.2928 53.1802 37.184 53.2308 37.0495C53.2813 36.915 53.2764 36.766 53.2171 36.6351L52.4341 34.9086L54.1606 34.1255C54.2915 34.0662 54.3934 33.9573 54.4439 33.8229C54.4945 33.6884 54.4896 33.5393 54.4302 33.4085C54.3709 33.2777 54.262 33.1758 54.1275 33.1252C53.9931 33.0747 53.844 33.0796 53.7132 33.1389L51.4933 34.1457C51.3625 34.205 51.2606 34.3139 51.21 34.4483C51.1595 34.5828 51.1644 34.7319 51.2237 34.8627L52.2305 37.0826C52.2898 37.2134 52.3987 37.3153 52.5331 37.3659C52.6676 37.4164 52.8167 37.4115 52.9475 37.3522ZM63.9065 39.222C63.8299 39.2569 63.7463 39.2735 63.6622 39.2705C63.5781 39.2674 63.4959 39.2449 63.422 39.2045C62.9427 38.9417 62.4089 38.7941 61.8627 38.7734C61.3165 38.7527 60.7729 38.8595 60.2751 39.0853C59.7774 39.311 59.339 39.6496 58.9947 40.0741C58.6504 40.4986 58.4097 40.9975 58.2916 41.5312C58.2604 41.6715 58.1748 41.7937 58.0535 41.8709C57.9322 41.9481 57.7852 41.9739 57.6448 41.9427C57.5045 41.9115 57.3823 41.8259 57.3051 41.7046C57.2279 41.5833 57.2021 41.4363 57.2333 41.2959C57.405 40.5123 57.7787 39.7872 58.3172 39.1926C57.7978 39.0238 57.3416 38.7019 57.0083 38.2692C56.6751 37.8365 56.4805 37.3131 56.4501 36.7678C56.4196 36.2225 56.5547 35.6808 56.8377 35.2136C57.1206 34.7465 57.5382 34.3758 58.0356 34.1503C58.533 33.9247 59.0869 33.8548 59.6248 33.9497C60.1626 34.0446 60.6592 34.2998 61.0494 34.682C61.4395 35.0642 61.705 35.5554 61.811 36.0911C61.917 36.6269 61.8586 37.1822 61.6433 37.6841C62.4458 37.6704 63.238 37.8668 63.9411 38.2539C64.0293 38.3021 64.1024 38.3739 64.1521 38.4613C64.2018 38.5487 64.2263 38.6481 64.2227 38.7486C64.2191 38.8491 64.1876 38.9466 64.1318 39.0302C64.0759 39.1138 63.9979 39.1802 63.9065 39.222ZM59.828 38.0977C60.1207 37.965 60.3675 37.7484 60.5371 37.4755C60.7068 37.2025 60.7916 36.8853 60.781 36.5641C60.7704 36.2429 60.6647 35.932 60.4774 35.6708C60.2901 35.4097 60.0296 35.2099 59.7288 35.0968C59.4279 34.9837 59.1003 34.9623 58.7873 35.0354C58.4744 35.1085 58.1901 35.2727 57.9705 35.5074C57.7509 35.742 57.6057 36.0366 57.5535 36.3537C57.5013 36.6708 57.5442 36.9963 57.677 37.289C57.855 37.6815 58.1816 37.9872 58.585 38.1389C58.9884 38.2905 59.4355 38.2757 59.828 38.0977Z" fill="#2A2A2A" fill-opacity="0.8"/>
<path d="M40.2402 50.1016L52.0796 44.7323" stroke="#CCCCCC" stroke-linecap="round"/>
<path d="M41.3164 52.4692L53.1558 47.1" stroke="#CCCCCC" stroke-linecap="round"/>
<path d="M38 43.6521L41.6429 42" stroke="#CCCCCC" stroke-width="3" stroke-linecap="round"/>
<path d="M16.5 56C16.5 55.1716 17.1716 54.5 18 54.5H58C58.8284 54.5 59.5 55.1716 59.5 56V76C59.5 76.8284 58.8284 77.5 58 77.5H18C17.1716 77.5 16.5 76.8284 16.5 76V56Z" fill="#FFF4E5" stroke="#FFD699"/>
<path d="M16.2147 55.7534C16.3352 55.0301 16.961 54.5 17.6943 54.5H57.6391C58.566 54.5 59.2711 55.3323 59.1187 56.2466L55.7853 76.2466C55.6648 76.9699 55.039 77.5 54.3057 77.5H14.3609C13.434 77.5 12.7289 76.6677 12.8813 75.7534L16.2147 55.7534Z" fill="white" stroke="#FFD699"/>
<path d="M18.8773 66.8586C18.9477 66.3659 19.3696 66 19.8673 66H26.847C27.4555 66 27.923 66.539 27.8369 67.1414L27.1227 72.1414C27.0523 72.6341 26.6304 73 26.1327 73H19.153C18.5445 73 18.077 72.461 18.1631 71.8586L18.8773 66.8586Z" fill="#FCEAD2"/>
<path d="M30 68.5H42" stroke="#FFD699" stroke-linecap="round"/>
<path d="M30 71H42" stroke="#FFD699" stroke-linecap="round"/>
<path d="M92.8361 36.1825C86.8215 36.8221 85.8221 37.8241 85.1825 43.8361C85.1586 44.0546 84.8414 44.0546 84.8175 43.8361C84.1779 37.8215 83.1759 36.8221 77.1639 36.1825C76.9454 36.1586 76.9454 35.8414 77.1639 35.8175C83.1785 35.1779 84.1779 34.1759 84.8175 28.1639C84.8414 27.9454 85.1586 27.9454 85.1825 28.1639C85.8221 34.1785 86.8241 35.1779 92.8361 35.8175C93.0546 35.8414 93.0546 36.1586 92.8361 36.1825Z" fill="#FFD699"/>
<path d="M80 89C88.8366 89 96 81.8366 96 73C96 64.1634 88.8366 57 80 57C71.1634 57 64 64.1634 64 73C64 81.8366 71.1634 89 80 89Z" fill="white" stroke="#FFD699" stroke-miterlimit="10"/>
<path d="M73 72.5446L77.6262 77L86 68" stroke="#FFD699" stroke-width="2" stroke-linecap="round" stroke-linejoin="round"/>
</svg>