<svg xmlns="http://www.w3.org/2000/svg" width="30" height="22" viewBox="0 0 30 22" fill="none">
<path d="M28.087 16.276H27.2239V2.93469C27.2239 2.19496 26.9301 1.48554 26.407 0.962474C25.8839 0.439411 25.1745 0.145557 24.4348 0.145557H5.56522C4.82549 0.145557 4.11607 0.439411 3.593 0.962474C3.06994 1.48554 2.77609 2.19496 2.77609 2.93469V16.276H1.91304C1.65763 16.276 1.41267 16.3775 1.23207 16.5581C1.05146 16.7387 0.95 16.9836 0.95 17.239V19.0651C0.95 19.8048 1.24385 20.5143 1.76692 21.0373C2.28998 21.5604 2.99941 21.8543 3.73913 21.8543H26.2609C27.0006 21.8543 27.71 21.5604 28.2331 21.0373C28.7561 20.5143 29.05 19.8048 29.05 19.0651V17.239C29.05 16.9836 28.9485 16.7387 28.7679 16.5581C28.5873 16.3775 28.3424 16.276 28.087 16.276ZM4.70217 2.93469C4.70217 2.70579 4.7931 2.48628 4.95495 2.32442C5.11681 2.16257 5.33632 2.07164 5.56522 2.07164H24.4348C24.6637 2.07164 24.8832 2.16257 25.045 2.32442C25.2069 2.48628 25.2978 2.70579 25.2978 2.93469V16.276H4.70217V2.93469ZM27.1239 19.0651C27.1239 19.294 27.033 19.5135 26.8711 19.6754C26.7093 19.8372 26.4898 19.9282 26.2609 19.9282H3.73913C3.51024 19.9282 3.29072 19.8372 3.12887 19.6754C2.96701 19.5135 2.87609 19.294 2.87609 19.0651V18.2021H27.1239V19.0651ZM17.5071 5.44175C17.6877 5.26114 17.7891 5.01619 17.7891 4.76077C17.7891 4.50536 17.6877 4.26041 17.5071 4.0798C17.3265 3.89919 17.0815 3.79773 16.8261 3.79773H13.1739C12.9185 3.79773 12.6735 3.89919 12.4929 4.0798C12.3123 4.26041 12.2109 4.50536 12.2109 4.76077C12.2109 5.01619 12.3123 5.26114 12.4929 5.44175C12.6735 5.62235 12.9185 5.72382 13.1739 5.72382H16.8261C17.0815 5.72382 17.3265 5.62235 17.5071 5.44175Z" fill="#BDBDBD" stroke="#BDBDBD" stroke-width="0.1"/>
</svg>