<svg width="99" height="186" viewBox="0 0 99 186" fill="none" xmlns="http://www.w3.org/2000/svg">
<path fill-rule="evenodd" clip-rule="evenodd" d="M30.4062 109.017H64.4512V76.5826H30.4062V109.017ZM47.4275 43.6812C37.2742 43.718 27.36 46.6303 18.9365 52.0504C10.5131 57.4704 3.95822 65.1552 0.0995269 74.1344C-3.75917 83.1136 -4.74866 92.9846 -2.74401 102.501C-0.739364 112.018 4.16954 120.753 11.3629 127.604C18.5562 134.455 27.7115 139.115 37.6726 140.995C47.6338 142.874 57.9543 141.89 67.3309 138.167C76.7076 134.443 84.7199 128.146 90.3564 120.072C95.9929 111.997 99.0007 102.507 99.0001 92.7997C98.9722 79.748 93.5235 67.2412 83.8521 58.03C74.1807 48.8189 61.0787 43.6575 47.4275 43.6812Z" fill="#008061" fill-opacity="0.08"/>
<path fill-rule="evenodd" clip-rule="evenodd" d="M47.4333 8.71303H47.4217V8.63942C47.4203 7.50954 47.186 6.391 46.7322 5.34775C46.2784 4.30449 45.614 3.35698 44.7769 2.55939C43.9399 1.76179 42.9466 1.12975 41.8539 0.699393C40.7613 0.269039 39.5906 0.0488132 38.4088 0.0513056H-4.32935V0C-30.1242 0.149826 -54.8004 10.0906 -72.9293 27.6354C-91.0582 45.1802 -101.155 68.8918 -100.998 93.5541C-100.841 118.216 -90.4442 141.809 -72.0937 159.142C-53.7431 176.475 -28.9425 186.128 -3.14761 185.978V185.867H38.3645L38.3866 185.84C40.7577 185.846 43.0352 184.957 44.7234 183.365C46.4115 181.773 47.3734 179.608 47.3995 177.341L47.4333 177.309V141.493H-4.32935C-17.6515 141.224 -30.331 135.966 -39.6402 126.851C-48.9493 117.736 -54.1443 105.491 -54.1074 92.7507C-54.0706 80.0107 -48.8049 67.7936 -39.4432 58.7275C-30.0814 49.6613 -17.3717 44.4707 -4.04819 44.2723V44.1608H47.4275V8.70857L47.4333 8.71303Z" fill="#008061" fill-opacity="0.08"/>
</svg>
