<svg xmlns="http://www.w3.org/2000/svg" width="26" height="26" viewBox="0 0 26 26" fill="none">
<path d="M14.5 12.9959C14.5 13.2926 14.412 13.5826 14.2472 13.8292C14.0824 14.0759 13.8481 14.2682 13.574 14.3817C13.2999 14.4952 12.9983 14.5249 12.7074 14.4671C12.4164 14.4092 12.1491 14.2663 11.9393 14.0565C11.7296 13.8468 11.5867 13.5795 11.5288 13.2885C11.4709 12.9976 11.5006 12.696 11.6142 12.4219C11.7277 12.1478 11.92 11.9135 12.1666 11.7487C12.4133 11.5839 12.7033 11.4959 13 11.4959C13.3978 11.4959 13.7794 11.6539 14.0607 11.9352C14.342 12.2165 14.5 12.5981 14.5 12.9959ZM7.5 11.4959C7.20333 11.4959 6.91332 11.5839 6.66664 11.7487C6.41997 11.9135 6.22771 12.1478 6.11418 12.4219C6.00065 12.696 5.97094 12.9976 6.02882 13.2885C6.0867 13.5795 6.22956 13.8468 6.43934 14.0565C6.64912 14.2663 6.91639 14.4092 7.20736 14.4671C7.49833 14.5249 7.79994 14.4952 8.07403 14.3817C8.34811 14.2682 8.58238 14.0759 8.7472 13.8292C8.91203 13.5826 9 13.2926 9 12.9959C9 12.5981 8.84196 12.2165 8.56066 11.9352C8.27936 11.6539 7.89782 11.4959 7.5 11.4959ZM18.5 11.4959C18.2033 11.4959 17.9133 11.5839 17.6666 11.7487C17.42 11.9135 17.2277 12.1478 17.1142 12.4219C17.0007 12.696 16.9709 12.9976 17.0288 13.2885C17.0867 13.5795 17.2296 13.8468 17.4393 14.0565C17.6491 14.2663 17.9164 14.4092 18.2074 14.4671C18.4983 14.5249 18.7999 14.4952 19.074 14.3817C19.3481 14.2682 19.5824 14.0759 19.7472 13.8292C19.912 13.5826 20 13.2926 20 12.9959C20 12.5981 19.842 12.2165 19.5607 11.9352C19.2794 11.6539 18.8978 11.4959 18.5 11.4959ZM26 12.9959C26.0005 15.2403 25.4199 17.4466 24.3147 19.4001C23.2095 21.3535 21.6174 22.9876 19.6934 24.1432C17.7693 25.2988 15.5788 25.9365 13.3352 25.9944C11.0915 26.0523 8.87107 25.5283 6.89 24.4734L2.63375 25.8921C2.28136 26.0097 1.9032 26.0267 1.54166 25.9414C1.18012 25.8561 0.849484 25.6717 0.586814 25.4091C0.324144 25.1464 0.139818 24.8158 0.0544969 24.4542C-0.0308244 24.0927 -0.0137696 23.7145 0.10375 23.3621L1.5225 19.1059C0.595185 17.3624 0.0772463 15.4306 0.00799667 13.4571C-0.061253 11.4836 0.320007 9.52023 1.12284 7.71606C1.92567 5.91189 3.12897 4.31432 4.6414 3.04463C6.15383 1.77494 7.93564 0.866485 9.85158 0.388232C11.7675 -0.0900199 13.7672 -0.125504 15.699 0.284474C17.6307 0.694452 19.4436 1.53912 21.0001 2.75435C22.5566 3.96959 23.8158 5.52345 24.6822 7.29801C25.5485 9.07256 25.9992 11.0212 26 12.9959ZM24 12.9959C23.9995 11.3085 23.6109 9.64392 22.8641 8.13082C22.1174 6.61771 21.0325 5.29668 19.6935 4.26993C18.3545 3.24318 16.7973 2.53823 15.1422 2.20962C13.4872 1.88102 11.7787 1.93756 10.149 2.37489C8.51935 2.81221 7.01212 3.61859 5.74394 4.73163C4.47577 5.84467 3.48065 7.23454 2.83558 8.79372C2.1905 10.3529 1.91277 12.0396 2.02387 13.7232C2.13496 15.4069 2.63191 17.0425 3.47625 18.5034C3.54712 18.626 3.59112 18.7623 3.60534 18.9033C3.61956 19.0442 3.60368 19.1866 3.55875 19.3209L2 23.9959L6.675 22.4371C6.77683 22.4024 6.88367 22.3847 6.99125 22.3846C7.16688 22.3849 7.33933 22.4315 7.49125 22.5196C9.1635 23.4872 11.0611 23.9972 12.9931 23.9984C14.925 23.9996 16.8232 23.492 18.4967 22.5266C20.1702 21.5612 21.5599 20.172 22.526 18.499C23.492 16.8259 24.0004 14.9279 24 12.9959Z" fill="#BDBDBD"/>
</svg>