<svg width="168" height="135" viewBox="0 0 168 135" fill="none" xmlns="http://www.w3.org/2000/svg">
<rect x="1" y="0.5" width="166.5" height="134" rx="7.5" fill="#D1FBEC" fill-opacity="0.72"/>
<rect x="1" y="0.5" width="166.5" height="134" rx="7.5" stroke="#EEEEEE"/>
<path d="M44.71 22.14H50.25V23.94H44.71V22.14ZM47.39 18.22H53.83V20.04H47.39V18.22ZM54.55 19.12C55.83 24.06 58.57 28.08 63.05 29.78C62.61 30.16 62.01 30.94 61.73 31.46C57.07 29.4 54.41 25.1 52.95 19.48L54.55 19.12ZM60.61 19.72L62.35 20.98C60.65 22.54 58.51 24.3 56.83 25.42L55.49 24.32C57.13 23.16 59.33 21.22 60.61 19.72ZM52.71 18.22H54.73V30.38C54.73 31.48 54.49 32.02 53.75 32.34C53.01 32.64 51.89 32.66 50.21 32.66C50.11 32.12 49.83 31.28 49.55 30.76C50.67 30.82 51.89 30.82 52.23 30.8C52.59 30.78 52.71 30.68 52.71 30.36V18.22ZM49.11 15.72L50.05 14.18C52.45 14.7 55.75 15.8 57.45 16.7L56.47 18.46C54.83 17.54 51.59 16.36 49.11 15.72ZM49.53 22.14H49.91L50.25 22.06L51.51 22.6C50.51 26.74 48.29 29.8 45.77 31.46C45.47 31.04 44.71 30.32 44.25 30.02C46.71 28.6 48.73 25.88 49.53 22.52V22.14ZM71.41 15.12H82.97V16.38H71.41V15.12ZM72.19 17.28H82.25V18.48H72.19V17.28ZM76.37 14.12H78.21V17.98H76.37V14.12ZM73.07 20.4V21.86H81.23V20.4H73.07ZM71.51 19.2H82.87V23.06H71.51V19.2ZM73.87 26.4V27.16H80.45V26.4H73.87ZM73.87 27.94V28.74H80.45V27.94H73.87ZM73.87 24.88V25.6H80.45V24.88H73.87ZM72.17 23.82H82.21V29.78H72.17V23.82ZM78.19 30.82L78.87 29.62C80.43 30.14 82.17 30.84 83.25 31.34L82.47 32.66C81.41 32.14 79.71 31.4 78.19 30.82ZM75.39 29.62L76.65 30.82C75.11 31.52 73.17 32.26 71.73 32.78C71.59 32.42 71.27 31.84 71.03 31.46C72.35 31 74.29 30.22 75.39 29.62ZM74.97 19.6H76.41V22.64H74.97V19.6ZM78.15 19.62H79.59V22.62H78.15V19.62ZM69.29 22.22L70.59 21.9C71.07 23.28 71.55 25.06 71.71 26.12L70.31 26.56C70.17 25.46 69.75 23.62 69.29 22.22ZM67.57 27.32L68.89 27.08C69.13 28.56 69.33 30.44 69.37 31.72L67.99 31.96C67.99 30.7 67.79 28.78 67.57 27.32ZM65.59 27.14L67.07 27.38C66.87 29.26 66.51 31.28 66.07 32.58C65.75 32.4 65.05 32.18 64.65 32.08C65.13 30.78 65.41 28.88 65.59 27.14ZM65.23 21.82C65.13 21.48 64.87 20.7 64.69 20.26C65.03 20.18 65.35 19.76 65.73 19.16C66.13 18.58 67.35 16.28 68.05 14.1L69.63 14.74C68.73 16.96 67.47 19.3 66.27 20.9V20.94C66.27 20.94 65.23 21.48 65.23 21.82ZM65.23 21.82L65.17 20.48L65.99 19.98L69.41 19.7C69.33 20.16 69.27 20.82 69.27 21.18C66.17 21.52 65.59 21.64 65.23 21.82ZM65.37 26.38C65.27 26.04 65.01 25.24 64.81 24.8C65.25 24.7 65.67 24.2 66.25 23.44C66.87 22.72 68.81 19.8 69.99 17.06L71.45 17.92C70.07 20.66 68.23 23.48 66.41 25.48V25.54C66.41 25.54 65.37 26.04 65.37 26.38ZM65.37 26.38L65.29 25.04L66.11 24.48L70.77 23.9C70.71 24.36 70.67 25.02 70.69 25.38C66.45 26 65.77 26.16 65.37 26.38ZM69.41 26.94L70.61 26.58C71.03 27.74 71.47 29.26 71.67 30.24L70.39 30.66C70.23 29.66 69.79 28.12 69.41 26.94ZM95.27 20.12H99.37V21.58H95.27V20.12ZM93.75 25.94H100.53V27.26H93.75V25.94ZM87.13 14.9H92.69V16.42H87.13V14.9ZM92.19 14.9H92.51L92.81 14.84L93.99 15.42C92.51 18.84 89.27 21.1 85.97 22.26C85.73 21.86 85.27 21.2 84.95 20.88C87.95 19.96 91.03 17.84 92.19 15.2V14.9ZM95.81 14.18C97.21 17.22 100.13 19.6 103.85 20.58C103.45 20.94 102.97 21.6 102.71 22.06C98.85 20.84 95.91 18.2 94.29 14.64L95.81 14.18ZM99.43 14.26L100.81 15.22C99.85 16.1 98.67 17 97.77 17.62L96.67 16.76C97.53 16.12 98.75 15.04 99.43 14.26ZM101.91 16.26L103.29 17.22C102.33 18.1 101.11 19 100.19 19.6L99.05 18.74C99.95 18.1 101.21 17.02 101.91 16.26ZM88.01 20.2H92.87V24.92H91.17V21.66H88.01V20.2ZM87.37 23.48H88.93C88.73 25.02 88.47 26.9 88.23 28.1H86.63C86.91 26.86 87.19 24.96 87.37 23.48ZM91.17 26.68H92.89C92.89 26.68 92.87 27.14 92.83 27.38C92.61 30.14 92.37 31.38 91.87 31.88C91.47 32.28 91.05 32.42 90.41 32.46C89.87 32.5 88.83 32.5 87.73 32.44C87.71 31.94 87.49 31.28 87.19 30.84C88.25 30.92 89.31 30.94 89.69 30.94C90.05 30.94 90.27 30.92 90.43 30.76C90.77 30.48 90.99 29.42 91.17 26.92V26.68ZM94.57 20.12H96.17V21.66C96.17 23.04 95.75 24.62 93.97 25.7C93.73 25.36 93.11 24.74 92.77 24.52C94.33 23.66 94.57 22.58 94.57 21.62V20.12ZM100.13 25.94H100.47L100.77 25.88L101.81 26.26C100.47 29.94 97.33 31.8 93.55 32.7C93.39 32.3 93.03 31.68 92.73 31.32C96.11 30.68 99.05 29 100.13 26.16V25.94ZM88.07 23.48H91.77V24.92H87.81L88.07 23.48ZM87.49 26.68H91.65V28.1H87.21L87.49 26.68ZM86.55 17.62L87.63 16.62C88.51 17.1 89.61 17.84 90.15 18.38L89.01 19.52C88.51 18.96 87.43 18.16 86.55 17.62ZM98.51 20.12H100.09V23.2C100.09 23.68 100.13 23.82 100.41 23.82C100.63 23.82 101.45 23.82 101.67 23.82C101.95 23.82 102.43 23.8 102.67 23.74C102.69 24.12 102.73 24.68 102.79 25.04C102.53 25.14 102.11 25.14 101.71 25.14C101.43 25.14 100.49 25.14 100.21 25.14C98.79 25.14 98.51 24.58 98.51 23.18V20.12ZM93.61 28.24L94.51 27.18C96.89 28.44 100.23 30.32 101.93 31.48L100.97 32.72C99.35 31.56 96.05 29.58 93.61 28.24ZM110.01 21.76H123.07V23.36H110.01V21.76ZM109.51 25.16H123.89V26.78H109.51V25.16ZM112.81 20.02H114.55V25.98H112.81V20.02ZM118.13 20.02H119.91V25.96H118.13V20.02ZM107.55 15.04H109.47V20.94C109.47 24.4 109.17 29.44 107.07 32.72C106.69 32.44 105.85 31.94 105.39 31.76C107.39 28.64 107.55 24.14 107.55 20.94V15.04ZM108.71 15.04H122.75V20.02H108.71V18.38H120.85V16.66H108.71V15.04ZM117.01 25.78C118.11 28.54 120.57 30.44 124.13 31.12C123.75 31.5 123.25 32.2 123.01 32.7C119.21 31.74 116.75 29.52 115.43 26.14L117.01 25.78ZM121.57 26.72L122.99 27.7C121.91 28.52 120.49 29.32 119.41 29.86L118.21 28.94C119.25 28.38 120.73 27.42 121.57 26.72ZM111.21 32.74L111.13 31.34L111.87 30.74L117.15 29.62C117.07 30.1 117.01 30.82 117.03 31.2C112.27 32.32 111.61 32.5 111.21 32.74ZM111.21 32.76C111.11 32.32 110.75 31.56 110.49 31.2C110.87 30.98 111.49 30.46 111.49 29.52V25.9L113.25 25.96V30.8C113.25 30.8 111.21 32.08 111.21 32.76Z" fill="#2A2A2A"/>
<mask id="mask0_1123_3735" style="mask-type:alpha" maskUnits="userSpaceOnUse" x="22" y="48" width="41" height="57">
<path d="M41.0789 97.1771C44.3961 75.8916 53.864 64.6959 62.1571 58.4762L62.1571 51.5653L59.7383 48.4554L41.0789 49.492L27.9482 59.5128L22.074 79.5543L23.4562 92.3395L26.9116 102.015L33.8225 104.433C35.3198 104.433 38.8674 102.982 41.0789 97.1771Z" fill="#D9D9D9" fill-opacity="0.8"/>
</mask>
<g mask="url(#mask0_1123_3735)">
<path d="M43.7601 93.8109C43.7601 93.8109 42.5228 99.4583 37.2727 101.7C32.0227 103.941 27.7762 95.7273 35.928 89.8557C35.928 89.8557 26.2848 92.9491 23.7332 87.2459C21.1809 81.5396 33.3519 79.5371 35.6917 80.8789C35.6917 80.8789 33.2496 78.8213 34.1486 75.9856C35.0444 73.1506 41.1516 72.475 44.6972 80.0161C48.2428 87.5573 43.7632 93.8101 43.7632 93.8101L43.7601 93.8109Z" fill="#008061" fill-opacity="0.4"/>
<path d="M43.9145 87.9553C41.1804 90.1143 38.5131 93.4689 38.4883 93.5015L38.3481 93.3881C38.376 93.3548 41.0534 89.9878 43.8038 87.8149L43.9145 87.9553Z" fill="white"/>
<path d="M29.776 84.8548L42.3536 83.9386L42.3406 83.7601L29.763 84.6763L29.776 84.8548Z" fill="white"/>
<path d="M41.058 78.6682C39.0725 79.2279 35.0169 76.6822 34.8449 76.5735L34.942 76.4208C34.9846 76.4465 39.1022 79.0294 41.0109 78.4921L41.0603 78.6643L41.058 78.6682Z" fill="white"/>
<path d="M61.9173 58.5513C61.9173 58.5513 60.0008 53.1357 55.1049 52.7063C50.2091 52.2769 49.0437 57.3852 51.5703 61.4747C51.5703 61.4747 47.1575 57.7987 40.3769 57.465C33.598 57.1299 28.1646 61.6855 29.1421 67.3959C30.1195 73.1063 37.5484 75.043 39.7543 74.6451C39.7543 74.6451 31.8474 79.2774 34.3623 84.3354C36.8774 89.3917 46.5053 85.4042 46.5053 85.4042L61.9173 58.5513Z" fill="#008061"/>
<path d="M50.8438 71.2403C50.7629 71.1987 42.7334 67.0289 38.5105 66.2312L38.5844 65.8368C42.8642 66.6458 50.9478 70.8422 51.0286 70.8853L50.8438 71.2403Z" fill="white"/>
<path d="M38.3082 70.1134L38.1003 69.7708C39.8805 68.6918 43.2882 67.7544 43.4326 67.7154L43.5379 68.1022C43.5026 68.1116 40.0404 69.0645 38.3082 70.1134Z" fill="white"/>
<path d="M47.1428 69.3546C47.1075 69.2215 46.2747 66.0846 46.2857 64.8389L46.6863 64.8428C46.6755 66.0337 47.5212 69.2187 47.5294 69.2508L47.1428 69.3546Z" fill="white"/>
<path d="M38.8226 82.4537L38.6509 82.0909C43.0121 80.0361 46.3471 79.8348 46.3802 79.833L46.4012 80.2342C46.3682 80.236 43.107 80.4345 38.8211 82.4536L38.8226 82.4537Z" fill="white"/>
<path d="M58.4524 63.7343C58.3344 63.5799 55.5342 59.9299 54.9321 57.1078L55.3248 57.0234C55.9081 59.7561 58.742 63.4513 58.7716 63.4884L58.4541 63.7329L58.4524 63.7343Z" fill="white"/>
</g>
<path d="M30.1484 53.0339C24.1213 53.7424 23.1286 54.7486 22.5596 60.7294C22.5388 60.9468 22.2189 60.9519 22.1929 60.7346C21.4769 54.7691 20.46 53.7869 14.4173 53.2239C14.1977 53.2033 14.1925 52.8868 14.4122 52.8611C20.4393 52.1526 21.432 51.1464 22.001 45.1656C22.0217 44.9483 22.3417 44.9431 22.3676 45.1605C23.0836 51.1242 24.1005 52.1064 30.1449 52.6694C30.3646 52.69 30.3698 53.0065 30.1501 53.0322L30.1484 53.0339Z" fill="white"/>
<mask id="mask1_1123_3735" style="mask-type:alpha" maskUnits="userSpaceOnUse" x="35" y="45" width="120" height="81">
<rect x="35.3828" y="45" width="118.867" height="80.1662" fill="#D9D9D9"/>
</mask>
<g mask="url(#mask1_1123_3735)">
<path d="M151.832 119.958C152.177 118.335 152.515 116.707 152.772 115.067C153.044 113.328 152.712 111.636 152.104 110.003C151.181 107.526 150.988 104.924 150.751 102.33C150.611 100.8 150.393 98.8124 148.897 97.962C148.29 97.6175 147.504 97.5518 146.893 97.8871C146.465 98.121 146.153 98.5278 145.946 98.9679C145.57 99.7687 145.509 101.072 144.281 101.03C143.847 101.015 143.424 100.734 143.005 100.845C142.323 101.026 142.098 102.069 141.57 102.493C140.765 103.139 139.724 103.28 138.72 103.22C138.404 103.201 138.086 103.209 137.77 103.206L137.78 103.137C134.545 102.561 132.003 99.9589 131.531 96.7245C131.447 96.1576 131.379 95.5884 131.333 95.0169C131.233 93.784 130.887 92.5718 130.26 91.5002C129.658 90.4701 128.716 89.6693 128.113 88.6161C127.569 87.6655 127.232 86.5582 127.378 85.4728C127.552 84.1869 128.375 83.0796 129.303 82.167C130.026 81.4572 130.884 80.7197 130.967 79.7115C131.083 78.3046 129.622 77.2192 129.448 75.8181C129.318 74.7764 130.031 73.6933 131.042 73.3926C131.742 73.184 132.563 73.3039 133.144 72.8649C133.98 72.2369 133.603 71.2978 133.816 70.4567C134.033 69.6086 134.915 68.8239 135.707 68.5243C137.52 67.8387 138.275 69.3251 139.403 70.3576C140.635 71.4833 142.192 71.1273 142.821 69.6409C143.102 68.976 143.335 68.2708 143.906 67.788C144.144 67.5864 144.36 67.3375 144.586 67.099C141.677 63.413 138.328 60.0899 134.616 57.2046C134.792 57.7059 135.127 58.138 135.59 58.5067C136.206 58.9964 136.191 59.5207 136.394 60.2028C136.824 61.6581 138.144 62.3817 138.692 63.6918C138.785 63.913 138.833 64.1619 138.771 64.3947C138.708 64.6274 138.517 64.8337 138.279 64.8648C137.828 64.9236 137.456 64.382 137.008 64.4569C137.226 64.6655 137.227 65.0399 137.043 65.2784C136.199 66.3708 134.883 64.6631 134.165 64.2633C133.198 63.7252 131.911 63.7241 130.986 64.3578C129.762 65.1978 129.362 67.0287 130.128 68.2973C130.409 68.7652 130.82 69.1523 131.048 69.6478C131.216 70.013 131.29 70.6111 130.989 70.9371C130.713 71.2333 130.236 71.1065 129.916 71.3646C129.548 71.6619 129.633 72.2519 129.385 72.6528C129.268 72.8418 129.085 72.9697 128.875 73.0377C128.601 73.1264 128.284 73.1161 128.014 73.0089C127.537 72.8211 127.187 72.4074 126.915 71.9742C126.641 71.5421 126.422 71.0731 126.096 70.6802C125.74 70.2504 125.272 69.9289 124.857 69.5544C124.442 69.1788 124.066 68.7168 123.985 68.166C123.829 67.1048 124.793 66.7464 125.652 66.6761C126.053 66.6427 126.484 66.5759 126.767 66.2924C127.654 65.4063 126.012 64.6574 125.402 64.4857C124.765 64.3071 124.126 64.1273 123.489 63.9476C123.197 63.8658 122.879 63.7655 122.716 63.5109C122.496 63.1664 122.665 62.702 122.927 62.3898C123.189 62.0775 123.538 61.8355 123.751 61.4887C124.054 60.9909 123.859 60.0449 123.157 60.4805C122.893 60.6453 122.733 60.9252 122.558 61.1787C122.382 61.4334 122.155 61.6846 121.849 61.7353C121.457 61.7987 121.092 61.5014 120.888 61.1626C120.685 60.8238 120.584 60.4309 120.368 60.1002C120.051 59.6105 119.062 59.2522 118.808 60.0219C118.709 60.3203 118.857 60.6372 118.974 60.931C119.089 61.2237 119.164 61.5901 118.955 61.8263C118.745 62.0637 118.342 62.0303 118.09 61.8378C117.837 61.6454 117.699 61.3435 117.575 61.0531C117.048 59.8214 116.599 58.5574 116.12 57.306C116.012 57.0214 115.903 56.7046 116.018 56.4234C116.149 56.1054 116.537 55.9533 116.883 55.9879C117.228 56.0213 117.539 56.1964 117.84 56.3681C119.07 57.0733 120.301 57.7785 121.531 58.4848C122.092 58.8063 122.785 59.1323 123.352 58.8212C123.71 58.6254 123.9 58.229 124.06 57.8545C124.484 56.8636 125.188 55.5846 125.287 54.5026C125.384 53.4483 124.378 53.5854 123.59 53.4356C123.038 53.3308 122.667 52.8641 122.376 52.4147C122.04 51.8951 121.838 51.304 121.602 50.7336C121.49 50.4617 121.351 50.1736 121.088 50.0376C120.328 49.6459 120.235 51.032 119.679 51.206C119.246 51.3408 118.763 51.2049 118.392 50.9445C118.023 50.684 117.748 50.3119 117.5 49.9339C117.396 49.7761 117.29 49.6102 117.129 49.5099C116.968 49.4097 116.736 49.3947 116.605 49.5318C115.776 50.3948 119.037 51.7464 119.531 51.9515C120.657 52.4182 121.857 52.9367 122.513 53.961C122.703 54.2572 122.84 54.6063 122.793 54.9543C122.744 55.3023 122.462 55.633 122.108 55.6433C121.776 55.6537 121.494 55.3933 121.323 55.1098C121.151 54.8264 121.045 54.5026 120.837 54.2433C120.63 53.9841 120.269 53.7997 119.964 53.9334C119.71 54.044 119.591 54.3252 119.45 54.5625C119.145 55.073 118.594 55.0545 118.086 54.8748C117.177 54.5533 116.164 53.0323 116.27 52.0783C116.317 51.66 116.126 51.5183 115.856 51.3408C114.844 50.6806 113.834 50.0169 112.828 49.3474C112.418 49.0755 112.031 48.7771 111.826 48.3058C111.462 47.4727 111.772 47.0164 112.675 47.066C112.875 47.0775 113.082 47.1547 113.272 47.1224C113.471 47.089 113.719 47.0545 113.865 46.9277C109.096 45.6718 104.09 45 98.9261 45C89.3205 45 80.2605 47.3218 72.2814 51.4319C72.5154 52.2603 72.7389 53.0577 72.8223 53.204C72.9938 53.5059 73.3517 53.7341 73.6877 53.6407C73.9032 53.582 74.0665 53.408 74.1985 53.2282C74.7106 52.5323 75.0928 51.1542 76.0752 50.9986C76.6104 50.9145 77.1838 51.2175 77.4131 51.7061C77.5522 52.0045 77.5695 52.3456 77.6715 52.659C77.7746 52.9724 78.0155 53.287 78.3468 53.2997C78.7048 53.3135 78.9654 52.9851 79.2203 52.7339C79.4763 52.4839 79.9269 52.2984 80.1632 52.5657C80.3694 52.7996 80.2211 53.1706 80.3069 53.469C80.454 53.9783 81.2081 54.0325 81.6529 53.741C82.0978 53.4483 82.3665 52.954 82.7627 52.6002C83.1612 52.2465 83.8435 52.0748 84.1922 52.4746C84.5003 52.8261 84.403 53.461 84.805 53.7006C85.1386 53.9011 85.6379 53.6903 85.9229 53.9541C86.1105 54.127 86.107 54.4196 86.0885 54.6731C86.0885 55.6042 85.9599 56.5594 85.8985 57.4892C85.8788 57.7796 85.829 58.1195 85.5707 58.2566C85.3332 58.3834 85.0205 58.2566 84.8641 58.0377C84.7065 57.8199 84.6706 57.5399 84.6602 57.2715C84.6393 56.7034 84.6347 56.0155 84.4019 55.4889C84.0926 54.7918 83.2481 54.3747 82.5032 54.5533C80.6949 54.9854 81.3819 57.6897 79.7891 58.4525C79.1183 58.774 78.326 58.547 77.5811 58.5493C76.1493 58.5539 74.9701 59.5103 74.18 60.6222C73.4004 61.7215 73.2301 63.3761 74.1707 64.3428C74.7766 64.9662 75.6964 65.1828 76.3683 65.7347C77.0888 66.3247 77.4062 67.2534 77.3286 68.1625C77.3019 68.4863 77.0471 69.0313 77.5417 69.1546C77.8499 69.2318 78.136 68.8366 78.2264 68.6004C78.5264 67.8249 78.5287 66.7821 79.0152 66.1092C79.3141 65.6956 79.7219 65.3741 80.0949 65.025C81.0251 64.1504 80.8015 63.4855 81.0181 62.3391C81.229 61.2248 82.2739 60.3249 83.4126 60.2754C83.9872 60.2512 84.6532 60.4505 85.0934 60.8308C85.4328 61.1234 85.4977 61.5348 85.8128 61.8413C86.0503 62.0729 86.4662 62.1582 86.7117 61.9358C86.9029 61.7629 86.9353 61.4645 87.1253 61.2905C87.3477 61.0854 87.7138 61.128 87.9663 61.294C88.2177 61.461 88.3868 61.7215 88.5652 61.9657C89.2359 62.8806 90.1441 63.6215 91.1763 64.0985C92.191 64.5664 93.324 65.0226 93.0923 66.3477C93.0066 66.8374 92.8351 67.349 93.0008 67.8192C93.28 68.6119 94.3353 68.8401 94.8056 69.5372C95.1635 70.0672 95.0894 71.012 94.4893 71.3646C93.8707 71.7299 92.9857 71.2241 92.4471 70.9003C91.5134 70.338 90.6121 69.7077 89.5985 69.3056C89.0541 69.0889 85.887 68.2847 86.4488 69.8172C86.5681 70.1409 86.8681 70.3599 87.1519 70.5581C87.7346 70.966 88.3173 71.3727 88.9 71.7794C90.2252 72.7047 87.021 74.5852 86.3897 74.962C86.1603 75.0991 85.8997 75.2339 85.639 75.174C85.2834 75.0933 85.2487 74.5829 84.9741 74.4999C84.5988 74.3858 84.1679 74.9159 83.8922 75.1671C83.1693 75.8284 82.5287 76.5774 81.7491 77.1777C80.5791 78.0776 79.3257 78.8635 78.0572 79.6147C77.5811 79.897 77.3992 80.1909 77.6124 80.729C77.792 81.1806 77.8615 81.675 78.048 82.1232C78.3769 82.9125 78.0306 83.3999 77.368 83.7352C76.9336 83.9553 76.4656 84.112 76.0045 84.2744C74.5901 84.7434 73.4884 85.951 72.9672 87.3152C72.3022 89.0563 72.7598 90.3906 73.3691 92.059C73.4143 92.1846 73.4606 92.3171 73.4409 92.4497C73.4039 92.6962 73.1455 92.8541 72.8988 92.8979C72.0752 93.0419 71.35 92.3022 71.0326 91.5336C70.714 90.7639 70.626 89.9009 70.187 89.1922C69.6344 88.2969 68.5849 87.79 67.5353 87.6701C65.4027 87.4281 62.6874 88.343 61.2706 89.9838C59.2955 92.2722 59.1646 95.9329 60.9729 98.3538C61.1687 98.6165 61.4096 98.8792 61.7305 98.9449C62.2669 99.0532 62.7268 98.5854 63.0893 98.1786C63.6072 97.5991 64.008 97.6544 64.6683 97.4608C65.1745 97.311 65.6587 96.7579 66.224 96.8593C66.5576 96.9192 66.8113 97.2131 66.9086 97.5357C67.006 97.8583 66.9747 98.204 66.9202 98.5358C66.7974 99.279 66.56 100.004 66.2205 100.677C66.0746 100.965 65.9089 101.247 65.8244 101.559C65.7398 101.87 65.7456 102.225 65.9275 102.493C66.6121 103.501 68.3775 102.474 69.2208 103.457C69.5684 103.864 69.6923 104.416 69.7271 104.949C69.7618 105.483 69.7224 106.021 69.7989 106.551C69.9518 107.618 70.6028 108.605 71.5261 109.171C71.9246 109.415 72.3856 109.597 72.6648 109.971C72.9857 110.398 72.944 110.707 72.7308 110.902C72.4239 111.183 71.7589 111.228 71.3129 111.055C70.2113 110.629 69.2591 109.835 68.6439 108.832C68.1099 107.961 67.7867 106.899 66.9457 106.314C66.341 105.893 65.5707 105.8 64.8907 105.514C63.54 104.947 63.8643 103.588 62.9249 102.685C62.0873 101.88 60.7482 102.088 59.5875 101.994C57.1027 101.79 55.2515 99.9381 54.4244 97.6935C54.0537 96.6888 54.2113 95.5849 54.3283 94.5467C54.4696 93.2931 54.2031 92.3967 53.4641 91.385C53.0725 90.8503 52.849 90.1855 52.4551 89.6727C51.7774 88.7901 51.7774 91.5705 51.1519 90.7121C51.0384 90.5554 51.0152 90.3549 50.9967 90.1624C50.4024 84.029 50.5449 77.2353 53.8823 71.8301C56.3833 67.7788 58.7928 63.6722 61.2984 59.6244C61.588 59.1565 61.8186 58.691 61.968 58.2175C49.1073 68.8066 40.9115 84.8045 40.9115 102.706C40.9115 134.576 66.8855 160.412 98.9261 160.412C121.594 160.412 141.224 147.48 150.772 128.629C150.554 125.67 151.224 122.818 151.832 119.957V119.958ZM93.4074 58.0619C93.244 57.4524 92.7135 57.1781 92.2466 56.8428C91.445 56.2679 91.4809 55.8415 92.3486 55.4198C92.7471 55.2262 93.2962 55.1433 93.039 54.4692C92.8027 53.8516 92.6347 53.0934 91.7451 53.2766C90.9782 53.4345 90.8311 53.0058 90.7314 52.4631C90.4453 50.9064 90.4511 50.9041 88.8606 51.342C88.4656 51.4503 88.0659 51.5863 87.7462 51.1968C87.5157 50.9168 87.5782 50.6103 87.7045 50.3027C87.7717 50.1379 87.8296 49.9593 88.0404 49.9639C88.8641 49.9812 89.244 49.3843 89.6541 48.8289C90.0387 48.3081 90.5276 48.02 91.2041 48.0719C91.4554 48.0915 91.8308 48.118 91.9501 47.9751C92.8745 46.8713 94.1221 47.3068 95.0071 47.2331C95.8945 47.2331 96.5293 47.2331 97.1641 47.2331C97.6866 47.2331 98.0688 47.3978 98.1013 47.9993C98.1372 48.6411 98.5577 48.8796 99.1334 48.943C99.9791 49.0363 100.512 49.3889 100.54 50.3453C100.557 50.9744 101.023 51.3662 101.586 51.6035C102.34 51.9227 102.455 52.3963 101.936 53.0462C101.725 53.31 101.433 53.4276 101.142 53.5439C100.661 53.7364 100.514 54.0486 100.607 54.5625C100.85 55.9176 100.678 56.14 99.3663 56.3186C97.975 56.5087 97.5244 57.0952 97.7352 58.479C97.8209 59.0448 97.9634 59.6025 98.0503 60.1694C98.092 60.4436 98.165 60.7927 97.8441 60.9391C97.5232 61.0854 97.1514 60.9402 97.0031 60.6683C96.6695 60.0541 96.1158 59.9654 95.5203 59.8456C94.5021 59.6405 93.697 59.1462 93.4062 58.0608L93.4074 58.0619ZM78.9955 99.5406C79.8273 99.1892 80.3648 98.5635 80.586 97.6014C80.7725 96.7925 81.3633 96.751 81.8673 96.6358C82.604 96.7833 83.2458 96.9964 83.7265 97.5875C83.9837 97.9033 84.1667 98.3607 84.5745 98.4229C85.7167 98.5992 85.8754 99.4784 85.6031 100.445C85.3089 101.489 84.4957 102.144 83.5805 101.725C82.6028 101.279 81.9425 101.669 81.1954 102.177C80.5131 102.64 79.7925 102.881 79.0129 102.437C78.4453 102.115 78.1592 101.605 78.1372 100.888C78.1151 100.178 78.4743 99.7618 78.9979 99.5406H78.9955ZM71.8609 97.2672C71.6083 97.2764 71.3153 97.2442 71.1473 97.0275C70.8264 96.6104 70.4267 96.6266 69.9831 96.7326C69.6182 96.8201 69.2614 96.7717 69.098 96.4007C68.8988 95.949 69.3251 95.8119 69.5927 95.6322C70.1151 95.2807 70.714 95.215 71.328 95.2369C72.1505 95.2266 72.9162 95.4697 73.6622 95.7774C74.7778 96.2371 75.8956 96.6657 77.1073 96.8363C78.0051 96.9619 78.487 97.5437 78.3584 98.1809C78.224 98.8492 77.507 99.2099 76.6312 99.0474C76.1679 98.961 75.7833 98.7041 75.3952 98.4621C74.3109 97.7892 73.1954 97.22 71.862 97.2684L71.8609 97.2672ZM119.415 126.486C118.279 128.671 117.702 131.104 116.636 133.323C114.916 136.906 112.013 139.73 108.917 142.158C106.316 144.198 103.769 146.291 101.236 148.414C99.218 150.105 96.6208 152.031 96.1204 154.786C95.854 156.255 97.3634 158.388 95.401 158.321C93.9924 158.273 92.4911 157.333 91.4972 156.402C89.8881 154.896 88.9764 152.77 88.5629 150.612C88.1053 148.222 88.0856 145.631 88.2397 143.205C88.425 140.289 87.4137 138.046 84.9927 136.264C82.5218 134.446 80.191 132.437 77.8661 130.437C75.4844 128.389 73.4676 126.076 72.8594 122.871C72.4609 120.772 72.8177 118.849 74.1302 117.12C74.5831 116.524 75.0384 115.928 75.467 115.315C76.2142 114.247 76.4123 113.088 76.052 111.827C75.7184 110.661 75.6535 109.48 76.0126 108.303C77.1525 104.56 81.0031 105.333 83.6709 106.795C84.8015 107.415 86.0955 107.99 87.3442 107.665C88.008 107.492 88.6081 107.072 89.2927 107.03C90.3967 106.963 91.284 107.869 92.03 108.681C94.0445 110.878 97.1873 110.296 99.8111 111.343C101.611 112.062 102.927 113.256 103.665 115.044C104.156 116.232 104.678 117.504 106.099 117.72C109.098 118.317 111.963 118.765 115.087 118.984C116.069 119.053 117.068 119.125 118.004 119.413C118.163 119.462 118.32 119.517 118.475 119.579C119.544 120.009 120.51 120.848 120.789 121.959C121.183 123.527 120.163 125.051 119.417 126.486H119.415Z" fill="url(#paint0_linear_1123_3735)"/>
</g>
<path opacity="0.8" d="M88.0527 126.123V108.459H98.5167V110.811H90.8607V115.707H97.3167V118.083H90.8607V123.771H98.7807V126.123H88.0527ZM107.987 126.459C105.539 126.459 103.307 125.499 101.699 123.867L103.331 121.923C104.579 123.195 106.331 124.011 108.035 124.011C110.147 124.011 111.347 123.027 111.347 121.515C111.347 119.907 110.147 119.403 108.515 118.707L106.067 117.627C104.363 116.931 102.491 115.587 102.491 113.019C102.491 110.235 104.915 108.147 108.275 108.147C110.363 108.147 112.307 109.011 113.627 110.379L112.187 112.131C111.083 111.171 109.835 110.571 108.275 110.571C106.475 110.571 105.323 111.435 105.323 112.827C105.323 114.339 106.739 114.915 108.179 115.515L110.603 116.523C112.691 117.411 114.203 118.707 114.203 121.299C114.203 124.131 111.851 126.459 107.987 126.459ZM125.229 126.459C120.525 126.459 117.045 123.147 117.045 117.339C117.045 111.579 120.621 108.147 125.301 108.147C127.797 108.147 129.477 109.251 130.557 110.355L129.045 112.155C128.157 111.267 127.077 110.571 125.397 110.571C122.085 110.571 119.925 113.115 119.925 117.243C119.925 121.443 121.869 124.011 125.517 124.011C126.597 124.011 127.677 123.699 128.277 123.147V119.019H124.797V116.715H130.821V124.371C129.645 125.571 127.629 126.459 125.229 126.459Z" fill="#008061"/>
<path d="M142.563 103.744C138.933 104.171 138.335 104.777 137.992 108.38C137.98 108.51 137.787 108.514 137.771 108.383C137.34 104.789 136.727 104.198 133.087 103.859C132.955 103.846 132.952 103.655 133.084 103.64C136.715 103.213 137.313 102.607 137.656 99.0045C137.668 98.8736 137.861 98.8705 137.876 99.0014C138.308 102.594 138.92 103.185 142.561 103.525C142.693 103.537 142.697 103.728 142.564 103.743L142.563 103.744Z" fill="#008061" fill-opacity="0.48"/>
<path d="M153.578 94.8183C148.392 95.4279 147.538 96.2938 147.048 101.44C147.03 101.627 146.755 101.632 146.733 101.445C146.116 96.3114 145.241 95.4662 140.042 94.9817C139.853 94.9641 139.848 94.6916 140.037 94.6695C145.224 94.0599 146.078 93.1941 146.567 88.0475C146.585 87.8605 146.861 87.8561 146.883 88.0431C147.499 93.1749 148.374 94.0202 153.575 94.5046C153.764 94.5223 153.769 94.7947 153.58 94.8168L153.578 94.8183Z" fill="white"/>
<defs>
<linearGradient id="paint0_linear_1123_3735" x1="96.8896" y1="45" x2="96.8896" y2="160.412" gradientUnits="userSpaceOnUse">
<stop stop-color="#008061" stop-opacity="0.48"/>
<stop offset="0.476048" stop-color="#008061" stop-opacity="0.08"/>
<stop offset="0.670659" stop-color="#008061" stop-opacity="0"/>
<stop offset="1" stop-color="#008061" stop-opacity="0"/>
</linearGradient>
</defs>
</svg>
