<svg width="384" height="280" viewBox="0 0 384 280" fill="none" xmlns="http://www.w3.org/2000/svg">
<rect x="0.5" y="0.5" width="383" height="279" rx="7.5" fill="#DCE9FA" fill-opacity="0.72"/>
<rect x="0.5" y="0.5" width="383" height="279" rx="7.5" stroke="#EEEEEE"/>
<path d="M139.104 47.816L142.336 48.456C140.064 51.72 136.8 54.696 132 56.968C131.584 56.264 130.656 55.24 129.984 54.76C134.464 52.904 137.504 50.248 139.104 47.816ZM139.424 50.12H149.888V52.424H137.312L139.424 50.12ZM148.992 50.12H149.568L150.112 49.96L152.16 51.208C147.84 58.056 138.464 61.96 129.504 63.688C129.216 62.92 128.576 61.672 128.032 61C136.48 59.624 145.472 56.008 148.992 50.568V50.12ZM138.112 51.88C141.824 56.424 149.472 59.272 158.048 60.264C157.376 60.968 156.544 62.28 156.128 63.144C147.424 61.864 139.872 58.568 135.456 53.064L138.112 51.88ZM134.176 61.768H152.128V71.624H149.024V64.296H137.152V71.688H134.176V61.768ZM135.872 68.136H150.592V70.664H135.872V68.136ZM129.376 44.776H156.672V51.272H153.6V47.528H132.352V51.272H129.376V44.776ZM140.544 42.408L143.52 41.672C144.352 42.952 145.344 44.744 145.824 45.896L142.688 46.728C142.272 45.608 141.312 43.784 140.544 42.408ZM166.848 58.888H184.896V61.704H166.848V58.888ZM167.104 50.408H186.688V63.368H183.648V53.224H167.104V50.408ZM183.424 42.056L185.856 44.36C180.448 45.896 172.704 47.016 166.016 47.688C165.92 46.984 165.536 45.832 165.216 45.224C171.712 44.552 179.136 43.4 183.424 42.056ZM165.216 45.224H168.256V54.792C168.256 59.944 167.552 67.272 163.008 71.848C162.528 71.272 161.312 70.152 160.672 69.768C164.8 65.576 165.216 59.432 165.216 54.792V45.224ZM196.736 43.144H204.064V45.96H196.736V43.144ZM196.736 50.536H204.16V53.352H196.736V50.536ZM209.216 54.216H220.672V57H209.216V54.216ZM196.672 58.12H204.064V60.968H196.672V58.12ZM195.52 43.144H198.272V54.728C198.272 59.784 197.952 67.016 195.712 71.752C195.168 71.304 193.952 70.6 193.248 70.344C195.36 65.896 195.52 59.432 195.52 54.728V43.144ZM202.368 43.144H205.184V68.264C205.184 69.768 204.896 70.664 204 71.144C203.072 71.656 201.76 71.72 199.616 71.688C199.52 70.952 199.168 69.576 198.784 68.808C200.128 68.84 201.408 68.84 201.792 68.808C202.208 68.808 202.368 68.68 202.368 68.232V43.144ZM218.752 43.208H221.664V49.416C221.664 50.824 221.376 51.592 220.224 52.008C219.104 52.424 217.376 52.424 214.944 52.424C214.816 51.592 214.4 50.568 214.016 49.864C215.808 49.928 217.6 49.928 218.112 49.896C218.624 49.864 218.752 49.768 218.752 49.384V43.208ZM219.84 54.216H220.352L220.832 54.12L222.624 54.728C221.088 62.984 217.216 68.552 212.128 71.592C211.776 70.92 210.976 69.864 210.368 69.352C214.912 66.952 218.592 61.512 219.84 54.76V54.216ZM213.248 56.008C215.008 61.896 218.624 67.048 223.552 69.416C222.912 69.96 222.08 71.016 221.632 71.72C216.448 68.936 212.864 63.336 210.848 56.648L213.248 56.008ZM207.552 43.208H219.52V46.024H210.4V71.688H207.552V43.208ZM226.72 43.528H237.44V46.12H226.72V43.528ZM239.296 59.944H252.768V62.504H239.296V59.944ZM226.336 53.256H238.304V55.912H226.336V53.256ZM231.776 54.344H234.656V68.328C234.656 69.768 234.4 70.6 233.44 71.08C232.512 71.528 231.168 71.592 229.184 71.592C229.088 70.792 228.704 69.544 228.288 68.744C229.6 68.776 230.88 68.776 231.296 68.776C231.648 68.744 231.776 68.648 231.776 68.296V54.344ZM251.776 59.944H254.848C254.848 59.944 254.816 60.744 254.752 61.16C254.176 66.984 253.6 69.416 252.672 70.408C252.064 71.08 251.424 71.272 250.528 71.4C249.76 71.464 248.384 71.464 246.912 71.4C246.88 70.568 246.56 69.384 246.112 68.584C247.392 68.712 248.608 68.744 249.12 68.744C249.6 68.744 249.888 68.712 250.176 68.424C250.816 67.816 251.328 65.672 251.776 60.36V59.944ZM244.832 56.904H247.84C247.264 63.4 245.792 68.84 238.4 71.72C238.08 71.016 237.28 69.928 236.64 69.384C243.296 66.952 244.32 62.312 244.832 56.904ZM227.68 49.448L229.568 47.496C232.224 48.552 235.616 50.344 237.376 51.72L235.328 53.928C233.728 52.52 230.368 50.6 227.68 49.448ZM237.568 53.256H237.952L238.4 53.128L240.224 53.736C239.616 56.52 238.72 59.688 237.792 61.768L235.712 60.776C236.416 58.984 237.12 56.072 237.568 53.736V53.256ZM250.368 46.536L253.504 47.048C251.36 52.904 246.56 56.04 240.416 57.896C240.064 57.224 239.136 55.976 238.528 55.368C244.384 54.024 248.768 51.336 250.368 46.536ZM243.744 41.96L246.56 42.76C245.024 46.184 242.496 49.448 240.064 51.496C239.52 51.016 238.304 50.152 237.6 49.768C240.096 47.912 242.432 45 243.744 41.96ZM243.584 47.272C245.856 51.272 250.496 54.248 256.16 55.4C255.488 56.008 254.624 57.192 254.208 57.96C248.352 56.424 243.68 52.968 241.088 48.104L243.584 47.272ZM231.456 54.152L233.44 54.888C232.224 59.144 229.984 64.04 227.392 66.536C227.104 65.672 226.4 64.424 225.92 63.656C228.224 61.544 230.432 57.608 231.456 54.152ZM243.296 45.32H255.392V47.848H242.048L243.296 45.32ZM236.736 43.528H237.376L237.856 43.432L239.808 44.648C238.368 46.92 235.84 49.416 233.6 50.952C233.056 50.472 232.192 49.832 231.584 49.48C233.6 48.104 235.744 45.736 236.736 44.072V43.528Z" fill="#2A2A2A"/>
<g opacity="0.2">
<path fill-rule="evenodd" clip-rule="evenodd" d="M297.745 93.3716L297.756 93.3817C300.733 96.1424 300.903 100.79 298.139 103.764L298.122 103.784L249.265 155.924C246.484 158.895 241.821 159.058 238.837 156.287L238.823 156.277C235.846 153.516 235.676 148.869 238.44 145.895L238.457 145.874L287.314 93.734C290.095 90.7634 294.758 90.6008 297.742 93.3716H297.745Z" fill="url(#paint0_linear_981_3142)"/>
<path fill-rule="evenodd" clip-rule="evenodd" d="M335.639 86.9324L335.649 86.9425C338.623 89.7032 338.796 94.3505 336.032 97.3245L336.015 97.3448L287.158 149.485C284.377 152.456 279.714 152.618 276.73 149.848L276.717 149.837C273.739 147.077 273.569 142.429 276.333 139.455L276.35 139.435L325.211 87.2948C327.992 84.3242 332.655 84.1616 335.639 86.9324Z" fill="url(#paint1_linear_981_3142)"/>
</g>
<path d="M256.101 150.864C249.197 148.669 251.381 149.587 247.281 149.201C247.359 149.031 247.437 148.865 247.505 148.703C242.055 149.201 239.373 145.979 239.373 145.979L236.538 139.486C234.839 135.34 233.835 129.666 233.279 125.466C234.716 123.295 235.768 121.215 236.419 119.735C236.958 118.499 237.66 116.456 238.203 114.014C221.806 108.936 226.205 95.6209 226.357 95.1636C226.099 95.526 221.308 102.162 215.285 99.9092C214.569 101.809 213.006 103.107 211.141 103.801C208.967 104.607 207.299 106.392 206.807 108.652C206.797 108.699 206.786 108.747 206.776 108.794C205.104 116.646 203.232 132.305 215.024 135.184C217.357 135.753 219.524 135.682 221.514 135.16C221.681 136.18 221.84 137.288 221.993 138.47C222.149 139.696 222.291 141 222.406 142.375L221.518 149.201L217.693 150.447C212.002 151.294 211.093 151.826 209.411 151.623C192.913 149.201 190.743 138.473 201.025 106.521C196.172 92.1015 206.851 83.386 217.828 84.1279C218.92 84.1956 220.009 84.365 221.091 84.6326C223.383 85.1881 225.621 86.1805 227.663 87.6405C232.288 86.9393 236.622 86.8343 240.431 87.4677C243.049 92.5351 245.907 93.9509 243.774 88.2603C252.001 90.8516 256.881 97.8124 255.328 110.986C260.446 132.803 270.111 137.328 256.105 150.867L256.101 150.864Z" fill="#363636"/>
<path d="M238.203 114.01C237.663 116.456 236.961 118.495 236.419 119.731C235.768 121.208 234.72 123.291 233.279 125.463C232.922 126.011 232.533 126.567 232.122 127.119C232.122 127.119 232.122 127.122 232.119 127.129C229.508 130.621 225.95 134.005 221.511 135.157C219.524 135.679 217.353 135.746 215.02 135.181C203.229 132.302 205.098 116.642 206.773 108.791C206.783 108.743 206.793 108.696 206.803 108.648C207.295 106.386 207.356 104.838 208.157 103.699C209.669 101.555 210.608 100.16 212.613 98.8218C217.099 94.0762 226.099 95.5192 226.354 95.1567C226.201 95.614 221.803 108.929 238.199 114.007L238.203 114.01Z" fill="#F4E0D3"/>
<path d="M236.161 143.781C230.786 147.412 227.317 152.52 226.025 156.104C225.767 152.263 222.8 150.19 222.664 146.674C222.61 145.187 222.518 143.744 222.403 142.372C222.288 141 222.145 139.693 221.989 138.466C230.637 137.697 231.929 129.551 232.122 127.129C232.126 127.126 232.126 127.119 232.126 127.119C232.533 126.564 232.923 126.011 233.282 125.463C233.838 129.666 234.839 135.337 236.541 139.483C236.707 139.882 236.877 140.268 237.05 140.638C237.585 141.759 237.192 143.087 236.161 143.781Z" fill="#F4E0D3"/>
<path d="M303.256 199.041C300.933 197.713 296.904 198.536 292.221 200.088C283.492 202.97 272.491 208.37 265.994 207.049L272.528 234.567H207.119L203.768 219.463C197.193 217.42 191.652 211.723 192.252 204.335C192.482 201.48 193.188 198.567 194.144 195.935C184.045 196.538 175.258 192.832 169.171 190.329C165.393 188.778 162.663 187.694 161.304 188.398C169.721 183.422 176.971 169.477 187.233 160.585C188.599 159.403 190.064 158.37 191.601 157.472C200.655 152.134 211.995 151.287 217.686 150.44L217.54 150.691L218.249 160.582L218.52 164.355C218.598 165.46 220.033 165.832 220.643 164.911L223.502 160.585L225.659 157.327L227.839 160.585L230.603 164.714C231.491 166.042 233.37 166.235 234.506 165.114C235.693 163.945 237.246 162.374 238.877 160.589C242.082 157.093 245.595 152.798 247.278 149.201C251.377 149.59 262.077 151.233 270.562 158.011C272.735 159.742 274.763 161.811 276.5 164.281C286.073 177.908 295.09 192.314 303.249 199.041H303.256Z" fill="white"/>
<path d="M253.236 150.146C251.822 152.195 249.414 156.903 249.333 157.073C241.865 171.994 224.628 169.22 224.628 169.22C224.628 169.22 217.333 168.749 214.023 165.202L211.89 160.646C211.348 159.854 210.971 158.956 210.788 158.011L209.401 151.619L221.511 149.197L222.4 142.372C222.515 143.744 222.606 145.187 222.661 146.674C222.793 150.19 225.764 152.263 226.021 156.104C227.313 152.52 230.783 147.412 236.158 143.781C237.189 143.087 237.582 141.759 237.046 140.638C236.873 140.272 236.704 139.882 236.538 139.483L239.373 145.976C239.373 145.976 239.756 147.602 253.236 150.146Z" fill="#F4E0D3"/>
<path d="M294.361 207.343L292.221 200.088C296.904 198.536 300.933 197.713 303.256 199.041C303.558 199.292 303.856 199.532 304.158 199.756C304.158 199.756 304.162 199.759 304.168 199.766C306.322 202.15 300.455 205.199 294.361 207.347V207.343Z" fill="#BDBDBD"/>
<path d="M169.175 190.329L166.57 194.421C163.84 193.381 159.113 191.186 160.764 188.862C160.91 188.656 161.09 188.507 161.304 188.395C162.663 187.69 165.397 188.774 169.171 190.326L169.175 190.329Z" fill="#BDBDBD"/>
<g style="mix-blend-mode:multiply" opacity="0.5">
<path d="M232.122 127.129C231.929 129.551 230.637 137.697 221.989 138.466C221.837 137.284 221.677 136.177 221.511 135.157C225.95 134.002 229.508 130.621 232.119 127.129H232.122Z" fill="#C26E58"/>
</g>
<path d="M260.771 183.703L272.528 234.57H253.09C253.09 234.57 255.403 231.562 256.04 225.441C256.308 222.847 257.326 220.371 259.065 218.43C263.128 213.901 261.476 196.68 259.686 183.9C259.588 183.205 260.612 183.016 260.768 183.7L260.771 183.703Z" fill="#E3E3E3"/>
<path d="M107.607 234.57H326.215" stroke="#76AEFA" stroke-miterlimit="10"/>
<path d="M212.195 110.901C212.073 111.771 211.27 112.381 210.398 112.262C209.527 112.141 208.916 111.338 209.035 110.467C209.157 109.597 209.961 108.987 210.832 109.106C211.704 109.227 212.314 110.03 212.195 110.901Z" fill="#363636"/>
<path d="M224.282 112.567C224.16 113.438 223.356 114.048 222.484 113.929C221.613 113.807 221.002 113.004 221.121 112.134C221.243 111.263 222.047 110.654 222.918 110.772C223.79 110.894 224.4 111.697 224.282 112.567Z" fill="#363636"/>
<path d="M194.144 195.938C196.291 190.2 197.84 181.271 195.69 175.865C195.69 175.865 195.751 192.913 187.718 195.772C192.218 196.812 194.144 195.938 194.144 195.938Z" fill="#E3E3E3"/>
<path d="M231.285 172.115C231.285 173.01 230.559 173.735 229.664 173.735C228.768 173.735 228.043 173.01 228.043 172.115C228.043 171.221 228.768 170.496 229.664 170.496C230.559 170.496 231.285 171.221 231.285 172.115Z" fill="white"/>
<path d="M228.439 188.686C228.439 189.58 227.714 190.305 226.818 190.305C225.923 190.305 225.197 189.58 225.197 188.686C225.197 187.792 225.923 187.067 226.818 187.067C227.714 187.067 228.439 187.792 228.439 188.686Z" fill="white"/>
<path d="M228.439 208.163C228.439 209.057 227.714 209.782 226.818 209.782C225.923 209.782 225.197 209.057 225.197 208.163C225.197 207.269 225.923 206.544 226.818 206.544C227.714 206.544 228.439 207.269 228.439 208.163Z" fill="white"/>
<path d="M231.285 229.123C232.18 229.123 232.906 228.398 232.906 227.504C232.906 226.61 232.18 225.885 231.285 225.885C230.389 225.885 229.664 226.61 229.664 227.504C229.664 228.398 230.389 229.123 231.285 229.123Z" fill="white"/>
<path d="M219.771 108.445C221.514 106.667 225.177 107.11 227.212 109.84" stroke="#363636" stroke-width="2" stroke-miterlimit="10" stroke-linecap="round"/>
<path d="M213.159 107.883C212.616 105.617 209.716 105.996 209.018 107.602" stroke="#363636" stroke-width="2" stroke-miterlimit="10" stroke-linecap="round"/>
<path d="M159.408 205.67L166.57 194.424L169.175 190.332C175.262 192.835 184.045 196.545 194.147 195.938C193.191 198.57 192.482 201.48 192.255 204.339L173.62 234.902C166.004 247.398 147.532 246.324 141.373 233.049C137.731 225.197 134.55 217.078 133.313 210.541" fill="#F4E0D3"/>
<path d="M194.144 195.938C184.045 196.541 175.258 192.835 169.171 190.332L168.066 192.067C176.12 193.31 186.775 200.904 189.949 208.112L192.248 204.339C192.479 201.483 193.184 198.57 194.141 195.938H194.144Z" fill="#CC745C"/>
<path d="M159.408 205.67L164.301 215.595C164.729 216.465 166.041 216.167 166.051 215.198C166.065 213.64 165.732 211.814 164.417 210.541C164.332 206.849 161.934 201.707 161.934 201.707L159.411 205.67H159.408Z" fill="#CC745C"/>
<path d="M197.101 264.896H90.2815L118.374 241.077H220.819C222.315 241.077 223 242.94 221.86 243.905L197.105 264.896H197.101Z" fill="white"/>
<path d="M216.909 244.745L198.654 259.761" stroke="#E2FBF2" stroke-miterlimit="10"/>
<path d="M197.101 264.896H90.2815L118.374 241.077H197.101V264.896Z" fill="#E2FBF2"/>
<path d="M197.101 264.896H93.7744C91.7397 264.896 89.9899 263.467 89.5829 261.475L77.5611 202.537C77.1507 200.518 78.6937 198.631 80.7556 198.631H179.684C181.953 198.631 183.909 200.227 184.364 202.449L197.101 264.896Z" fill="white"/>
<path d="M190.454 254.328L180.091 203.516C179.87 202.432 178.914 201.653 177.805 201.653H90.6342" stroke="#E2FBF2" stroke-miterlimit="10"/>
<path d="M284.255 267.908L222.159 270.445C222.159 270.445 212.704 273.022 205.318 270.445L198.461 270.103C198.461 270.103 192.211 273.063 191.309 271.59C190.736 270.651 196.725 266.949 201.428 266.37C196.464 266.817 193.564 266.627 193.564 266.627C193.564 266.627 188.413 270.431 186.928 269.073C185.897 268.131 187.446 266.82 187.446 266.82C187.446 266.82 185.52 267.545 184.954 266.604C183.835 264.757 191.373 261.35 191.373 261.35L198.654 258.643L190.922 259.802C190.922 259.802 187.572 262.329 185.154 262.461C184.059 262.515 183.658 261.028 184.632 260.51L191.058 257.075C195.534 254.687 200.74 254.043 205.664 255.28L217.543 258.254L274.058 241.003L272.532 234.567L265.997 207.048C272.495 208.366 283.492 202.97 292.225 200.088L294.364 207.343L304.077 240.288C308.041 253.742 298.288 267.332 284.262 267.908H284.255Z" fill="#F4E0D3"/>
<path d="M294.602 208.163L294.361 207.343L292.221 200.088C284.964 202.486 276.143 206.615 269.639 207.184C275.72 208.661 288.409 205.335 294.602 208.16V208.163Z" fill="#CC745C"/>
<path d="M188.688 265.896L193.5 263.193L201.147 262.119" stroke="#CC745C" stroke-width="2" stroke-linecap="round" stroke-linejoin="round"/>
<path d="M274.054 241.006C277.419 239.915 282.085 240.007 285.951 241.04C287.128 241.355 287.769 239.702 286.673 239.17C282.288 237.029 276.157 236.203 272.983 236.497L274.051 241.009L274.054 241.006Z" fill="#CC745C"/>
<path d="M190.855 200.985C189.898 203.617 189.189 206.527 188.962 209.386L170.328 239.949C162.711 252.445 144.239 251.371 138.081 238.096C134.438 230.245 131.257 222.125 130.02 215.588C127.008 199.678 121.162 173.118 119.314 164.789C119.005 163.397 117.998 162.265 116.655 161.788C114.332 160.965 112.023 159.047 109.913 157.228C109.913 157.228 104.562 158.258 101.92 157.228C100.045 156.497 97.3657 153.54 95.9618 151.877C95.4429 151.26 95.548 150.335 96.1958 149.854C96.4433 149.671 96.735 149.58 97.0266 149.58C97.3183 149.58 97.6031 149.671 97.8507 149.851L102.693 153.367L108.553 150.342L94.5849 146.45C93.3811 146.115 92.6926 144.848 93.0725 143.659C93.3709 142.721 94.2356 142.121 95.175 142.121C95.3853 142.121 95.6023 142.152 95.8126 142.216L108.038 145.901L94.1034 140.458C93.1166 140.072 92.5807 139.015 92.8486 137.996C93.0928 137.057 93.9406 136.448 94.8562 136.448C95.0767 136.448 95.2971 136.478 95.5107 136.553L111.134 141.715C111.134 141.715 104.297 136.658 101.235 130.862C100.679 129.809 101.076 128.508 102.11 127.922C102.449 127.729 102.819 127.644 103.188 127.644C103.914 127.644 104.62 127.996 105.04 128.647L108.299 133.667L121.769 141.65L118.564 133.961C118.086 132.823 118.381 131.502 119.293 130.665C119.609 130.378 119.999 130.239 120.385 130.239C120.989 130.239 121.582 130.574 121.86 131.18L124.543 137.013C124.543 137.013 132.21 142.938 129.955 157.164L156.118 210.72L163.281 199.475L165.885 195.383C171.972 197.886 180.756 201.595 190.858 200.989L190.855 200.985Z" fill="#F4E0D3"/>
<path d="M111.117 150.616C111.117 150.616 120.999 145.983 124.78 155.765" stroke="#CC745C" stroke-width="2" stroke-linecap="round" stroke-linejoin="round"/>
<path d="M197.101 264.896H90.2815L118.374 241.077H220.819C222.315 241.077 223 242.94 221.86 243.905L197.105 264.896H197.101Z" fill="white"/>
<path d="M216.909 244.745L198.654 259.761" stroke="#76AEFA" stroke-miterlimit="10" stroke-linecap="round"/>
<path d="M197.101 264.896H90.2815L118.374 241.077H197.101V264.896Z" fill="#C6DCFA"/>
<path d="M197.101 264.896H93.7744C91.7397 264.896 89.9899 263.467 89.5829 261.475L77.5611 202.537C77.1507 200.518 78.6937 198.631 80.7556 198.631H179.684C181.953 198.631 183.909 200.227 184.364 202.449L197.101 264.896Z" fill="white"/>
<path d="M190.454 254.328L180.091 203.516C179.87 202.432 178.914 201.653 177.805 201.653H90.6342" stroke="#76AEFA" stroke-miterlimit="10" stroke-linecap="round"/>
<path d="M284.255 267.908L222.159 270.445C222.159 270.445 212.704 273.022 205.318 270.445L198.461 270.103C198.461 270.103 192.211 273.063 191.309 271.59C190.736 270.651 196.725 266.949 201.428 266.37C196.464 266.817 193.564 266.627 193.564 266.627C193.564 266.627 188.413 270.431 186.928 269.073C185.897 268.131 187.446 266.82 187.446 266.82C187.446 266.82 185.52 267.545 184.954 266.604C183.835 264.757 191.373 261.35 191.373 261.35L198.654 258.643L190.922 259.802C190.922 259.802 187.572 262.329 185.154 262.461C184.059 262.515 183.658 261.028 184.632 260.51L191.058 257.075C195.534 254.687 200.74 254.043 205.664 255.28L217.543 258.254L274.058 241.003L272.532 234.567L265.997 207.048C272.495 208.366 283.492 202.97 292.225 200.088L294.364 207.343L304.077 240.288C308.041 253.742 298.288 267.332 284.262 267.908H284.255Z" fill="#F4E0D3"/>
<path d="M294.602 208.163L294.361 207.343L292.221 200.088C284.964 202.486 276.143 206.615 269.639 207.184C275.72 208.661 288.409 205.335 294.602 208.16V208.163Z" fill="#CC745C"/>
<path d="M188.688 265.896L193.5 263.193L201.147 262.119" stroke="#CC745C" stroke-width="2" stroke-linecap="round" stroke-linejoin="round"/>
<path d="M274.054 241.006C277.419 239.915 282.085 240.007 285.951 241.04C287.128 241.355 287.769 239.702 286.673 239.17C282.288 237.029 276.157 236.203 272.983 236.497L274.051 241.009L274.054 241.006Z" fill="#CC745C"/>
<path d="M240.427 87.4609C243.771 88.2536 245.904 93.9442 243.771 88.2536C251.998 90.8448 256.878 97.8057 255.325 110.979" fill="#B0423E"/>
<path d="M240.427 87.4609L243.771 88.2536C251.998 90.8448 256.878 97.8057 255.325 110.979" fill="#363636"/>
<path d="M215.437 111.449C215.437 111.449 215.19 113.936 213.159 114.891C211.127 115.846 215.437 117.57 215.437 117.57" stroke="#363636" stroke-width="2" stroke-miterlimit="10" stroke-linecap="round"/>
<path d="M213.159 124.552C213.159 124.552 217.632 126.367 221.515 122.16" stroke="#363636" stroke-width="2" stroke-miterlimit="10" stroke-linecap="round"/>
<path d="M228.043 89.4966C228.043 89.4966 226.276 77.4447 219.771 79.1688C213.267 80.8929 218.69 88.7345 228.043 89.4966Z" fill="#363636"/>
<path d="M227.632 94.2793C227.632 94.2793 215.546 90.8683 212.616 98.825C212.209 101.355 213.172 104.035 216.333 104.224C213.511 102.93 213.844 98.615 217.866 97.4667C221.888 96.3185 226.961 97.9139 227.632 94.2793Z" fill="#363636"/>
<path d="M228.972 94.0864C228.972 94.0864 220.545 96.0104 221.104 101.738C221.514 103.652 221.871 105.308 227.632 106.287C219.771 104.479 223.481 96.7488 229.036 95.7428C234.591 94.7368 228.972 94.0864 228.972 94.0864Z" fill="#363636"/>
<path d="M209.886 138.47C209.886 138.47 209.778 153.892 221.514 151.663C217.93 154.278 196.436 157.601 194.927 138.47C193.418 119.339 209.886 138.47 209.886 138.47Z" fill="#363636"/>
<path d="M241.038 127.129C241.038 127.129 246.728 150.132 236.48 151.822C243.72 153.682 250.36 147.48 252.147 141.823C250.614 148.794 246.403 154.116 242.571 154.451C238.738 154.786 251.445 158.82 260.157 146.345C268.869 133.87 241.038 127.126 241.038 127.126V127.129Z" fill="#363636"/>
<path d="M320.378 219.513C315.166 220.069 314.301 220.933 313.745 226.139C313.725 226.329 313.447 226.329 313.43 226.139C312.874 220.933 312.009 220.069 306.797 219.513C306.607 219.493 306.607 219.219 306.797 219.198C312.009 218.643 312.877 217.779 313.43 212.573C313.45 212.383 313.728 212.383 313.745 212.573C314.301 217.779 315.166 218.643 320.378 219.198C320.568 219.219 320.568 219.497 320.378 219.513Z" fill="white"/>
<path d="M77.1745 95.3329C65.3561 96.7352 63.4095 98.7269 62.2938 110.565C62.2531 110.996 61.6258 111.006 61.5749 110.576C60.1709 98.7676 58.1769 96.8233 46.328 95.7089C45.8973 95.6682 45.8872 95.0416 46.3178 94.9907C58.1362 93.5884 60.0828 91.5967 61.1985 79.7582C61.2392 79.328 61.8665 79.3178 61.9174 79.748C63.3214 91.5527 65.3154 93.497 77.1677 94.6114C77.5984 94.652 77.6085 95.2787 77.1778 95.3295L77.1745 95.3329Z" fill="white"/>
<path fill-rule="evenodd" clip-rule="evenodd" d="M137.402 233.947L141.709 233.754L141.519 229.469L137.212 229.662L137.402 233.947ZM139.169 225.214C135.581 225.387 132.811 228.436 132.984 232.019C133.157 235.603 136.209 238.371 139.797 238.198C143.378 238.025 146.141 234.993 145.982 231.416C145.816 227.826 142.764 225.048 139.169 225.214Z" fill="#C6DCFA"/>
<path fill-rule="evenodd" clip-rule="evenodd" d="M138.962 220.594V220.584C138.935 219.957 138.399 219.47 137.772 219.5L132.366 219.741V219.734C125.574 220.079 120.345 225.858 120.69 232.643C121.036 239.427 126.822 244.651 133.614 244.305V244.292L138.864 244.058C139.488 244.027 139.976 243.506 139.953 242.879H139.956L139.746 238.14L133.197 238.432C129.643 238.516 126.693 235.705 126.608 232.152C126.527 228.693 129.199 225.787 132.658 225.58V225.567L139.169 225.275L138.959 220.591L138.962 220.594Z" fill="#C6DCFA"/>
<path d="M199.573 125.361L181.959 115.941V94.8179H131.983V133.067H181.959V125.845L198.993 127.312C200.119 127.41 200.57 125.893 199.573 125.361Z" stroke="white" stroke-width="3" stroke-linecap="round" stroke-linejoin="round"/>
<path d="M154.837 122.448C150.255 121.818 147.162 117.756 147.162 111.609C147.162 104.888 150.855 100.8 156.125 100.8C161.395 100.8 165.088 104.888 165.088 111.609C165.088 117.641 162.111 121.645 157.672 122.417C158.618 124.277 160.564 125.219 162.826 125.219C163.772 125.219 164.488 125.076 165.031 124.904L165.546 126.963C164.915 127.193 163.8 127.42 162.541 127.42C158.675 127.42 156.013 125.334 154.84 122.444L154.837 122.448ZM162.365 111.609C162.365 106.345 159.872 103.113 156.122 103.113C152.371 103.113 149.879 106.345 149.879 111.609C149.879 116.872 152.341 120.358 156.122 120.358C159.903 120.358 162.365 116.954 162.365 111.609Z" fill="white"/>
<path d="M306.01 172.671H271.606C270.482 172.671 269.571 173.581 269.571 174.703V209.067C269.571 210.19 270.482 211.099 271.606 211.099H306.01C307.134 211.099 308.045 210.19 308.045 209.067V174.703C308.045 173.581 307.134 172.671 306.01 172.671Z" fill="#76AEFA"/>
<path d="M320.283 158.665H301.462C300.713 158.665 300.106 159.271 300.106 160.019V178.819C300.106 179.567 300.713 180.174 301.462 180.174H320.283C321.033 180.174 321.64 179.567 321.64 178.819V160.019C321.64 159.271 321.033 158.665 320.283 158.665Z" fill="#5A9EFA"/>
<path d="M287.334 181.39H290.285L297.413 202.381H294.609L292.604 195.975H284.93L282.899 202.381H280.206L287.334 181.39ZM285.588 193.858H291.943L290.939 190.654C290.166 188.28 289.508 185.993 288.82 183.561H288.704C288.047 186.02 287.358 188.28 286.616 190.654L285.585 193.858H285.588Z" fill="white"/>
<defs>
<linearGradient id="paint0_linear_981_3142" x1="279.375" y1="110.509" x2="250.915" y2="141.065" gradientUnits="userSpaceOnUse">
<stop stop-color="#F0C862"/>
<stop offset="1" stop-color="#487F63"/>
</linearGradient>
<linearGradient id="paint1_linear_981_3142" x1="313.116" y1="108.395" x2="283.69" y2="150.529" gradientUnits="userSpaceOnUse">
<stop stop-color="#487F63"/>
<stop offset="1" stop-color="#F0C862"/>
</linearGradient>
</defs>
</svg>
