<svg xmlns="http://www.w3.org/2000/svg" width="32" height="32" viewBox="0 0 32 32" fill="none">
<path d="M4 16.1184C4.00123 14.9095 4.46987 13.7504 5.3031 12.8955C6.13633 12.0407 7.26608 11.5599 8.44444 11.5586H12.1296C12.3991 11.5425 17.0944 11.2033 21.5657 7.35603C21.7817 7.16998 22.0448 7.05102 22.3244 7.01311C22.6039 6.9752 22.8882 7.01992 23.1438 7.14202C23.3994 7.26412 23.6158 7.45852 23.7674 7.7024C23.9191 7.94627 23.9998 8.22949 24 8.51877V23.718C24 24.0074 23.9194 24.2907 23.7678 24.5347C23.6162 24.7788 23.3999 24.9733 23.1442 25.0955C22.8886 25.2177 22.6042 25.2625 22.3246 25.2247C22.045 25.1868 21.7817 25.0678 21.5657 24.8817C18.0685 21.8723 14.4361 21.0097 12.8889 20.7684V23.7817C12.8892 24.0321 12.8292 24.2788 12.7142 24.4997C12.5991 24.7206 12.4327 24.909 12.2296 25.048L11.2111 25.7443C11.0142 25.8791 10.7888 25.9635 10.5535 25.9906C10.3183 26.0176 10.0802 25.9864 9.85917 25.8996C9.63811 25.8128 9.44054 25.6729 9.28301 25.4917C9.12547 25.3105 9.01255 25.0932 8.9537 24.858L7.86389 20.644C6.7947 20.498 5.81354 19.9587 5.10283 19.1263C4.39212 18.2939 4.00023 17.225 4 16.1184ZM22.5185 23.7114V8.51877C18.5546 11.9301 14.4972 12.7936 12.8889 13.0063V19.2266C14.4954 19.4432 18.5519 20.3048 22.5185 23.7114ZM10.3889 24.4713V24.4818L11.4074 23.7855V20.6782H9.40741L10.3889 24.4713ZM8.44444 19.1582H11.4074V13.0785H8.44444C7.65862 13.0785 6.90498 13.3988 6.34931 13.9689C5.79365 14.539 5.48148 15.3122 5.48148 16.1184C5.48148 16.9246 5.79365 17.6978 6.34931 18.2679C6.90498 18.838 7.65862 19.1582 8.44444 19.1582Z" fill="#2A2A2A"/>
<path d="M25 13C26 14 27.4 16.7 25 19.5M26 11.5C27.5 12.5 30 17 26 21" stroke="#008061" stroke-linecap="round"/>
</svg>