<svg width="384" height="280" viewBox="0 0 384 280" fill="none" xmlns="http://www.w3.org/2000/svg">
<rect x="0.5" y="0.5" width="383" height="279" rx="7.5" fill="#D1FBEC" fill-opacity="0.72"/>
<rect x="0.5" y="0.5" width="383" height="279" rx="7.5" stroke="#D1FBEC"/>
<path d="M147.264 41.96L150.688 42.632C149.92 44.232 149.088 45.864 148.416 46.92L145.888 46.248C146.4 45.032 146.976 43.24 147.264 41.96ZM144.256 52.2V54.536H153.472V52.2H144.256ZM144.256 47.72V50.024H153.472V47.72H144.256ZM141.44 45.384H156.416V56.872H141.44V45.384ZM147.712 55.848H150.592V68.552C150.592 69.992 150.336 70.792 149.376 71.272C148.416 71.72 147.008 71.752 144.928 71.752C144.832 70.952 144.48 69.768 144.096 68.968C145.44 69.032 146.784 69.032 147.2 69C147.616 69 147.712 68.904 147.712 68.52V55.848ZM140.288 59.24H145.184V61.736H140.288V59.24ZM144.512 59.24H145.024L145.472 59.144L147.264 59.752C146.144 64.712 143.552 68.264 140.224 70.184C139.872 69.544 139.072 68.584 138.528 68.072C141.312 66.6 143.712 63.368 144.512 59.688V59.24ZM155.168 57.736L157.44 59.592C155.712 61.064 153.824 62.728 152.32 63.752L150.656 62.248C152.096 61.096 154.08 59.144 155.168 57.736ZM150.464 57.512C151.744 61.992 154.432 66.12 158.048 68.008C157.408 68.552 156.512 69.64 156.064 70.408C152.352 68.008 149.76 63.304 148.384 58.024L150.464 57.512ZM135.584 54.856L137.824 54.28C138.592 56.456 139.392 59.336 139.616 61.032L137.216 61.768C136.992 60.008 136.32 57.096 135.584 54.856ZM132.768 63.176L134.944 62.792C135.328 64.968 135.648 67.752 135.712 69.608L133.408 70.056C133.376 68.168 133.088 65.32 132.768 63.176ZM129.504 62.824L131.872 63.208C131.584 66.088 131.008 69.224 130.336 71.24C129.824 70.984 128.672 70.6 128.032 70.408C128.8 68.456 129.248 65.512 129.504 62.824ZM128.928 54.312C128.768 53.704 128.288 52.36 127.968 51.592C128.544 51.464 129.088 50.824 129.728 49.864C130.368 48.936 132.416 45.352 133.568 41.928L136.352 43.08C134.848 46.536 132.704 50.248 130.688 52.744V52.808C130.688 52.808 128.928 53.736 128.928 54.312ZM128.928 54.312L128.832 52.136L130.176 51.304L135.744 50.856C135.584 51.624 135.456 52.68 135.456 53.288C130.432 53.8 129.504 54.024 128.928 54.312ZM129.152 61.608C128.992 61 128.512 59.592 128.16 58.824C128.928 58.632 129.632 57.864 130.624 56.68C131.648 55.528 134.976 50.984 136.992 46.632L139.584 48.232C137.216 52.552 134.048 56.936 130.976 60.072V60.136C130.976 60.136 129.152 61.032 129.152 61.608ZM129.152 61.608L129.024 59.4L130.368 58.536L138.08 57.576C137.952 58.312 137.92 59.368 137.952 59.976C130.912 61 129.824 61.256 129.152 61.608ZM135.84 62.536L137.888 61.928C138.464 63.464 139.104 65.448 139.36 66.76L137.216 67.496C136.992 66.152 136.384 64.104 135.84 62.536ZM174.72 52.04H187.936V55.08H174.72V52.04ZM161.184 67.112H190.176V70.152H161.184V67.112ZM172.992 42.44H176.224V68.776H172.992V42.44ZM200.416 56.2H216.16V58.632H200.416V56.2ZM199.904 61.672H216.768V64.2H199.904V61.672ZM210.08 56.968H212.768V71.112H210.08V56.968ZM203.648 57.096H206.272V63.048C206.272 65.064 205.44 69.256 201.952 71.624C201.536 71.08 200.608 70.248 199.968 69.832C202.976 68.008 203.648 64.744 203.648 63.048V57.096ZM196.544 47.72H205.12V49.768H196.544V47.72ZM211.328 47.72H219.968V49.768H211.328V47.72ZM218.784 43.304H221.76V68.008C221.76 69.672 221.44 70.568 220.384 71.08C219.328 71.592 217.728 71.656 215.264 71.624C215.168 70.824 214.752 69.416 214.336 68.616C215.968 68.68 217.6 68.68 218.112 68.648C218.624 68.648 218.784 68.456 218.784 67.976V43.304ZM196.8 43.304H207.008V54.344H196.8V52.104H204.16V45.544H196.8V43.304ZM220.288 43.304V45.544H212.384V52.168H220.288V54.408H209.504V43.304H220.288ZM195.008 43.304H197.984V71.72H195.008V43.304ZM232.128 58.888H250.176V61.704H232.128V58.888ZM232.384 50.408H251.968V63.368H248.928V53.224H232.384V50.408ZM248.704 42.056L251.136 44.36C245.728 45.896 237.984 47.016 231.296 47.688C231.2 46.984 230.816 45.832 230.496 45.224C236.992 44.552 244.416 43.4 248.704 42.056ZM230.496 45.224H233.536V54.792C233.536 59.944 232.832 67.272 228.288 71.848C227.808 71.272 226.592 70.152 225.952 69.768C230.08 65.576 230.496 59.432 230.496 54.792V45.224Z" fill="#2A2A2A"/>
<g opacity="0.2">
<path fill-rule="evenodd" clip-rule="evenodd" d="M309.368 87.8871L309.378 87.8974C312.384 90.6964 312.555 95.4084 309.765 98.4238L309.748 98.4444L260.431 151.31C257.624 154.322 252.917 154.487 249.905 151.677L249.891 151.667C246.886 148.868 246.715 144.156 249.505 141.141L249.522 141.12L298.838 88.2546C301.645 85.2426 306.352 85.0778 309.364 87.8871H309.368Z" fill="url(#paint0_linear_981_2994)"/>
<path fill-rule="evenodd" clip-rule="evenodd" d="M347.618 81.3583L347.628 81.3686C350.63 84.1676 350.804 88.8796 348.015 91.895L347.997 91.9156L298.681 144.781C295.874 147.793 291.167 147.958 288.155 145.148L288.141 145.138C285.136 142.339 284.965 137.627 287.754 134.612L287.771 134.591L337.088 81.7258C339.895 78.7138 344.602 78.549 347.614 81.3583H347.618Z" fill="url(#paint1_linear_981_2994)"/>
</g>
<path d="M281.935 153.422C273.367 146.55 262.571 144.884 258.432 144.489C258.511 144.317 258.59 144.149 258.658 143.984C253.157 144.489 250.449 141.223 250.449 141.223L247.588 134.639C245.873 130.436 244.859 124.683 244.298 120.424C245.75 118.223 246.811 116.114 247.468 114.613C248.012 113.36 248.721 111.289 249.268 108.813C232.718 103.665 237.158 90.1641 237.312 89.7005C237.051 90.0679 232.215 96.7959 226.135 94.512C225.413 96.4387 223.835 97.7541 221.952 98.4581C219.758 99.2755 218.074 101.085 217.577 103.376C217.567 103.424 217.557 103.472 217.547 103.52C215.859 111.481 213.969 127.358 225.872 130.278C228.227 130.855 230.414 130.782 232.423 130.254C232.591 131.287 232.752 132.41 232.906 133.609C233.064 134.852 233.207 136.174 233.324 137.569L232.427 144.489L228.566 145.753C222.822 146.612 211.375 147.47 202.235 152.883C196.139 129.395 216.304 134.588 211.741 101.219C206.843 86.5992 217.622 77.7626 228.702 78.5147C229.805 78.5834 230.904 78.7551 231.995 79.0264C234.31 79.5897 236.569 80.5959 238.629 82.0761C243.299 81.3652 247.673 81.2588 251.517 81.901C254.16 87.0388 257.046 88.4744 254.893 82.7046C263.197 85.3319 268.123 92.3896 266.555 105.746C271.721 127.867 296.076 139.702 281.942 153.429L281.935 153.422Z" fill="#363636"/>
<path d="M249.265 108.813C248.721 111.292 248.012 113.36 247.464 114.613C246.807 116.111 245.75 118.223 244.295 120.424C243.935 120.981 243.542 121.544 243.127 122.104C243.127 122.104 243.127 122.107 243.124 122.114C240.488 125.655 236.897 129.086 232.417 130.254C230.411 130.782 228.22 130.851 225.865 130.278C213.963 127.358 215.849 111.481 217.54 103.52C217.55 103.472 217.56 103.424 217.571 103.376C218.067 101.082 218.129 99.5125 218.936 98.3585C220.463 96.1846 221.411 94.7696 223.434 93.413C227.963 88.6015 237.048 90.0645 237.305 89.697C237.151 90.1607 232.711 103.661 249.262 108.809L249.265 108.813Z" fill="#F4E0D3"/>
<path d="M247.204 138.997C241.779 142.679 238.277 147.858 236.973 151.492C236.713 147.597 233.717 145.495 233.58 141.93C233.526 140.423 233.433 138.96 233.317 137.569C233.2 136.178 233.057 134.852 232.899 133.609C241.628 132.829 242.932 124.57 243.127 122.114C243.131 122.111 243.131 122.104 243.131 122.104C243.542 121.54 243.935 120.981 244.298 120.424C244.859 124.686 245.869 130.436 247.588 134.639C247.755 135.044 247.927 135.436 248.101 135.81C248.642 136.947 248.245 138.293 247.204 138.997Z" fill="#F4E0D3"/>
<path d="M314.93 195.026C312.586 193.68 308.519 194.514 303.792 196.087C294.981 199.01 283.876 204.484 277.317 203.145L283.914 231.046H217.889L214.507 215.732C207.869 213.661 202.276 207.884 202.882 200.394C203.115 197.499 203.827 194.545 204.792 191.877C194.598 192.488 185.729 188.731 179.584 186.193C175.771 184.62 173.015 183.521 171.643 184.235C180.139 179.19 187.458 165.051 197.816 156.035C199.195 154.837 200.674 153.789 202.225 152.879C211.364 147.467 222.811 146.608 228.555 145.749L228.408 146.004L229.124 156.032L229.397 159.858C229.476 160.977 230.924 161.355 231.54 160.421L234.426 156.035L236.603 152.732L238.804 156.035L241.594 160.222C242.491 161.568 244.387 161.764 245.534 160.627C246.732 159.442 248.3 157.849 249.946 156.039C253.181 152.495 256.727 148.14 258.425 144.492C262.564 144.887 273.364 146.553 281.928 153.425C284.122 155.18 286.169 157.279 287.922 159.782C297.585 173.599 306.688 188.205 314.923 195.026H314.93Z" fill="white"/>
<path d="M264.44 145.451C263.012 147.529 260.582 152.302 260.5 152.474C252.962 167.603 235.562 164.79 235.562 164.79C235.562 164.79 228.199 164.312 224.858 160.717L222.705 156.097C222.158 155.294 221.778 154.384 221.593 153.425L220.193 146.945L232.417 144.489L233.313 137.569C233.43 138.96 233.522 140.423 233.577 141.931C233.71 145.495 236.709 147.597 236.969 151.492C238.273 147.858 241.775 142.679 247.201 138.998C248.242 138.294 248.639 136.947 248.098 135.811C247.923 135.44 247.752 135.045 247.584 134.639L250.446 141.223C250.446 141.223 250.833 142.872 264.44 145.451Z" fill="#F4E0D3"/>
<path d="M305.952 203.444L303.792 196.087C308.519 194.514 312.585 193.68 314.93 195.026C315.235 195.28 315.536 195.524 315.841 195.751C315.841 195.751 315.844 195.754 315.851 195.761C318.025 198.179 312.103 201.27 305.952 203.447V203.444Z" fill="#BDBDBD"/>
<path d="M179.588 186.193L176.959 190.341C174.203 189.287 169.432 187.062 171.099 184.706C171.246 184.496 171.427 184.345 171.643 184.232C173.016 183.517 175.775 184.616 179.584 186.189L179.588 186.193Z" fill="#BDBDBD"/>
<g style="mix-blend-mode:multiply" opacity="0.5">
<path d="M243.127 122.114C242.932 124.57 241.628 132.829 232.899 133.609C232.745 132.41 232.584 131.287 232.417 130.253C236.897 129.082 240.488 125.655 243.124 122.114H243.127Z" fill="#C26E58"/>
</g>
<path d="M272.046 179.475L283.914 231.049H264.292C264.292 231.049 266.627 228 267.271 221.794C267.541 219.163 268.568 216.652 270.324 214.684C274.425 210.093 272.758 192.632 270.95 179.674C270.851 178.97 271.885 178.778 272.042 179.472L272.046 179.475Z" fill="#E3E3E3"/>
<path d="M117.441 231.049H338.105" stroke="#70A390" stroke-miterlimit="10"/>
<path d="M223.013 105.66C222.89 106.543 222.079 107.161 221.199 107.041C220.319 106.917 219.703 106.103 219.823 105.221C219.946 104.338 220.757 103.72 221.637 103.84C222.517 103.964 223.133 104.777 223.013 105.66Z" fill="#363636"/>
<path d="M235.213 107.35C235.09 108.232 234.279 108.851 233.399 108.73C232.519 108.607 231.903 107.793 232.023 106.91C232.146 106.028 232.957 105.409 233.837 105.53C234.717 105.653 235.333 106.467 235.213 107.35Z" fill="#363636"/>
<path d="M204.792 191.88C206.959 186.062 208.523 177.009 206.353 171.528C206.353 171.528 206.415 188.813 198.305 191.712C202.848 192.766 204.792 191.88 204.792 191.88Z" fill="#E3E3E3"/>
<path d="M242.282 167.726C242.282 168.633 241.549 169.368 240.646 169.368C239.742 169.368 239.009 168.633 239.009 167.726C239.009 166.819 239.742 166.084 240.646 166.084C241.549 166.084 242.282 166.819 242.282 167.726Z" fill="white"/>
<path d="M239.41 184.527C239.41 185.434 238.677 186.169 237.774 186.169C236.87 186.169 236.137 185.434 236.137 184.527C236.137 183.62 236.87 182.885 237.774 182.885C238.677 182.885 239.41 183.62 239.41 184.527Z" fill="white"/>
<path d="M239.41 204.275C239.41 205.181 238.677 205.916 237.774 205.916C236.87 205.916 236.137 205.181 236.137 204.275C236.137 203.368 236.87 202.633 237.774 202.633C238.677 202.633 239.41 203.368 239.41 204.275Z" fill="white"/>
<path d="M242.282 225.527C243.186 225.527 243.918 224.792 243.918 223.885C243.918 222.978 243.186 222.243 242.282 222.243C241.378 222.243 240.646 222.978 240.646 223.885C240.646 224.792 241.378 225.527 242.282 225.527Z" fill="white"/>
<path d="M230.66 103.17C232.42 101.367 236.117 101.817 238.171 104.585" stroke="#363636" stroke-width="2" stroke-miterlimit="10" stroke-linecap="round"/>
<path d="M223.985 102.6C223.438 100.302 220.511 100.687 219.806 102.315" stroke="#363636" stroke-width="2" stroke-miterlimit="10" stroke-linecap="round"/>
<path d="M169.729 201.747L176.959 190.345L179.588 186.196C185.732 188.734 194.598 192.495 204.796 191.88C203.83 194.549 203.115 197.499 202.885 200.397L184.076 231.386C176.387 244.055 157.742 242.967 151.525 229.507C147.849 221.546 144.638 213.314 143.389 206.686" fill="#F4E0D3"/>
<path d="M204.792 191.88C194.598 192.491 185.729 188.734 179.584 186.196L178.469 187.955C186.598 189.215 197.354 196.915 200.558 204.223L202.879 200.397C203.111 197.502 203.823 194.549 204.789 191.88H204.792Z" fill="#CC745C"/>
<path d="M169.729 201.747L174.669 211.81C175.1 212.693 176.425 212.39 176.435 211.408C176.449 209.828 176.113 207.977 174.785 206.686C174.7 202.942 172.28 197.729 172.28 197.729L169.733 201.747H169.729Z" fill="#CC745C"/>
<path d="M207.78 261.797H99.9529L128.31 237.647H231.718C233.228 237.647 233.919 239.536 232.769 240.514L207.78 261.797Z" fill="white"/>
<path d="M227.771 241.366L209.345 256.591" stroke="#E2FBF2" stroke-miterlimit="10"/>
<path d="M207.78 261.797H99.9529L128.31 237.647H207.78V261.797Z" fill="#E2FBF2"/>
<path d="M207.781 261.797H103.479C101.425 261.797 99.6585 260.348 99.2477 258.329L87.1128 198.57C86.6986 196.524 88.2561 194.611 90.3374 194.611H190.196C192.486 194.611 194.461 196.228 194.92 198.481L207.777 261.797H207.781Z" fill="white"/>
<path d="M201.068 251.082L190.607 199.563C190.384 198.464 189.419 197.674 188.3 197.674H100.309" stroke="#E2FBF2" stroke-miterlimit="10"/>
<path d="M295.751 264.851L233.07 267.423C233.07 267.423 223.527 270.036 216.071 267.423L209.15 267.076C209.15 267.076 202.841 270.078 201.93 268.584C201.352 267.632 207.397 263.879 212.145 263.291C207.134 263.745 204.207 263.552 204.207 263.552C204.207 263.552 199.007 267.409 197.508 266.032C196.467 265.077 198.032 263.748 198.032 263.748C198.032 263.748 196.087 264.483 195.516 263.528C194.386 261.657 201.995 258.202 201.995 258.202L209.345 255.458L201.54 256.632C201.54 256.632 198.158 259.194 195.718 259.328C194.612 259.383 194.208 257.875 195.19 257.35L201.677 253.867C206.196 251.446 211.45 250.794 216.42 252.047L228.412 255.063L285.457 237.571L283.917 231.046L277.321 203.145C283.879 204.481 294.981 199.01 303.795 196.087L305.955 203.444L315.759 236.847C319.76 250.488 309.916 264.267 295.758 264.851H295.751Z" fill="#F4E0D3"/>
<path d="M306.195 204.275L305.952 203.444L303.792 196.087C296.466 198.519 287.563 202.705 280.997 203.282C287.135 204.78 299.944 201.407 306.195 204.272V204.275Z" fill="#CC745C"/>
<path d="M199.288 262.81L204.142 260.07L211.864 258.981" stroke="#CC745C" stroke-width="2" stroke-linecap="round" stroke-linejoin="round"/>
<path d="M285.454 237.575C288.85 236.469 293.56 236.562 297.462 237.609C298.65 237.928 299.297 236.252 298.191 235.713C293.765 233.543 287.576 232.705 284.372 233.004L285.451 237.578L285.454 237.575Z" fill="#CC745C"/>
<path d="M251.511 81.894C254.886 82.6977 257.039 88.4674 254.886 82.6977C263.19 85.325 268.116 92.3826 266.548 105.739" fill="#B0423E"/>
<path d="M251.511 81.894L254.886 82.6977C263.19 85.325 268.116 92.3826 266.548 105.739" fill="#363636"/>
<path d="M226.286 106.216C226.286 106.216 226.036 108.737 223.985 109.706C221.935 110.674 226.286 112.422 226.286 112.422" stroke="#363636" stroke-width="2" stroke-miterlimit="10" stroke-linecap="round"/>
<path d="M223.985 119.501C223.985 119.501 228.501 121.341 232.42 117.076" stroke="#363636" stroke-width="2" stroke-miterlimit="10" stroke-linecap="round"/>
<path d="M332.214 215.783C326.952 216.347 326.079 217.222 325.518 222.501C325.497 222.693 325.217 222.693 325.2 222.501C324.638 217.222 323.765 216.347 318.504 215.783C318.312 215.763 318.312 215.485 318.504 215.464C323.765 214.901 324.642 214.025 325.2 208.746C325.22 208.554 325.501 208.554 325.518 208.746C326.079 214.025 326.952 214.901 332.214 215.464C332.405 215.485 332.405 215.766 332.214 215.783Z" fill="white"/>
<path d="M93.7228 66.1199C81.7933 67.5417 79.8285 69.5612 78.7023 81.5643C78.6612 82.0005 78.0279 82.0108 77.9766 81.5746C76.5594 69.6058 74.5466 67.6345 62.5829 66.5046C62.1481 66.4634 62.1379 65.828 62.5726 65.7765C74.5021 64.3546 76.467 62.3352 77.5932 50.3321C77.6342 49.8959 78.2675 49.8856 78.3189 50.3218C79.736 62.2906 81.7488 64.2619 93.7125 65.3918C94.1473 65.433 94.1575 66.0684 93.7228 66.1199Z" fill="white"/>
<path d="M264.292 103.452C264.292 103.452 270.321 121.887 286.286 130.683C302.251 139.478 281.932 153.425 281.932 153.425" stroke="#363636" stroke-width="2" stroke-miterlimit="10"/>
<path d="M150.827 96.9849H37.4231C35.5326 96.9849 34 98.5225 34 100.419V168.094C34 169.99 35.5326 171.528 37.4231 171.528H150.827C152.717 171.528 154.25 169.99 154.25 168.094V100.419C154.25 98.5225 152.717 96.9849 150.827 96.9849Z" fill="white"/>
<path d="M34 112.058H154.25" stroke="#CCCCCC" stroke-miterlimit="10"/>
<path d="M42.9685 107.522C44.3146 107.522 45.4057 106.427 45.4057 105.076C45.4057 103.726 44.3146 102.631 42.9685 102.631C41.6224 102.631 40.5312 103.726 40.5312 105.076C40.5312 106.427 41.6224 107.522 42.9685 107.522Z" fill="#CCCCCC"/>
<path d="M50.7834 107.522C52.1295 107.522 53.2207 106.427 53.2207 105.076C53.2207 103.726 52.1295 102.631 50.7834 102.631C49.4374 102.631 48.3462 103.726 48.3462 105.076C48.3462 106.427 49.4374 107.522 50.7834 107.522Z" fill="#CCCCCC"/>
<path d="M58.3519 107.522C59.698 107.522 60.7892 106.427 60.7892 105.076C60.7892 103.726 59.698 102.631 58.3519 102.631C57.0059 102.631 55.9147 103.726 55.9147 105.076C55.9147 106.427 57.0059 107.522 58.3519 107.522Z" fill="#CCCCCC"/>
<path d="M62.8294 155.198C71.2913 155.198 78.1511 148.315 78.1511 139.825V138.118C78.1511 129.629 71.2913 122.746 62.8294 122.746C54.3675 122.746 47.5076 129.629 47.5076 138.118V139.825C47.5076 148.315 54.3675 155.198 62.8294 155.198Z" fill="#70A390"/>
<mask id="mask0_981_2994" style="mask-type:luminance" maskUnits="userSpaceOnUse" x="47" y="122" width="32" height="34">
<path d="M62.8294 155.198C71.2913 155.198 78.1511 148.315 78.1511 139.825V138.118C78.1511 129.629 71.2913 122.746 62.8294 122.746C54.3675 122.746 47.5076 129.629 47.5076 138.118V139.825C47.5076 148.315 54.3675 155.198 62.8294 155.198Z" fill="white"/>
</mask>
<g mask="url(#mask0_981_2994)">
<path d="M62.98 169.193C69.9699 169.193 75.6352 163.509 75.6352 156.496V155.084C75.6352 148.071 69.9699 142.387 62.98 142.387C55.99 142.387 50.3248 148.071 50.3248 155.084V156.496C50.3248 163.509 55.99 169.193 62.98 169.193Z" fill="#D1FBEC"/>
<path d="M62.9799 143.613C67.3307 143.613 70.8565 140.076 70.8565 135.711V134.832C70.8565 130.467 67.3307 126.929 62.9799 126.929C58.6292 126.929 55.1034 130.467 55.1034 134.832V135.711C55.1034 140.076 58.6292 143.613 62.9799 143.613Z" fill="#D1FBEC"/>
</g>
<path d="M137.436 124.899H87.6365V127.221H137.436V124.899Z" fill="#CCCCCC"/>
<path d="M100.942 146.007H89.0058C88.2496 146.007 87.6365 146.622 87.6365 147.381V154.641C87.6365 155.4 88.2496 156.015 89.0058 156.015H100.942C101.698 156.015 102.311 155.4 102.311 154.641V147.381C102.311 146.622 101.698 146.007 100.942 146.007Z" fill="#CCCCCC"/>
<path d="M117.863 146.007H105.926C105.17 146.007 104.557 146.622 104.557 147.381V154.641C104.557 155.4 105.17 156.015 105.926 156.015H117.863C118.619 156.015 119.232 155.4 119.232 154.641V147.381C119.232 146.622 118.619 146.007 117.863 146.007Z" fill="#CCCCCC"/>
<path d="M135.201 146.007H123.264C122.508 146.007 121.895 146.622 121.895 147.381V154.641C121.895 155.4 122.508 156.015 123.264 156.015H135.201C135.957 156.015 136.57 155.4 136.57 154.641V147.381C136.57 146.622 135.957 146.007 135.201 146.007Z" fill="#CCCCCC"/>
<path d="M124.185 131.937H87.6365V134.258H124.185V131.937Z" fill="#CCCCCC"/>
<path d="M124.185 138.974H87.6365V141.295H124.185V138.974Z" fill="#CCCCCC"/>
<path d="M237.308 89.7004C237.308 89.7004 226.046 102.099 249.265 108.813" stroke="#363636" stroke-width="2" stroke-miterlimit="10"/>
<path fill-rule="evenodd" clip-rule="evenodd" d="M147.657 230.087L151.977 229.552L151.447 225.235L147.127 225.77L147.657 230.087ZM148.746 221.124C145.148 221.584 142.605 224.884 143.063 228.494C143.522 232.103 146.812 234.655 150.409 234.195C153.997 233.735 156.54 230.451 156.095 226.849C155.643 223.232 152.354 220.667 148.746 221.12V221.124Z" fill="#D1FBEC"/>
<path fill-rule="evenodd" clip-rule="evenodd" d="M148.171 216.467V216.456C148.092 215.824 147.517 215.375 146.887 215.454L141.465 216.127V216.12C134.656 217.006 129.85 223.263 130.737 230.094C131.62 236.925 137.857 241.744 144.665 240.858V240.844L149.93 240.191C150.557 240.112 151.005 239.542 150.933 238.914H150.936L150.348 234.14L143.782 234.954C140.212 235.321 137.022 232.711 136.655 229.129C136.299 225.64 138.761 222.491 142.225 222.006V221.993L148.753 221.182L148.171 216.463V216.467Z" fill="#D1FBEC"/>
<defs>
<linearGradient id="paint0_linear_981_2994" x1="290.909" y1="106.214" x2="262.044" y2="137.066" gradientUnits="userSpaceOnUse">
<stop stop-color="#F0C862"/>
<stop offset="1" stop-color="#487F63"/>
</linearGradient>
<linearGradient id="paint1_linear_981_2994" x1="324.71" y1="104.351" x2="297.669" y2="148.892" gradientUnits="userSpaceOnUse">
<stop stop-color="#487F63"/>
<stop offset="1" stop-color="#F0C862"/>
</linearGradient>
</defs>
</svg>
