<svg width="20" height="20" viewBox="0 0 20 20" fill="none" xmlns="http://www.w3.org/2000/svg">
<rect x="0.5" y="0.5" width="19" height="19" rx="9.5" fill="white" fill-opacity="0.12"/>
<rect x="0.5" y="0.5" width="19" height="19" rx="9.5" stroke="white"/>
<path d="M9.43333 10.5667V14.5833C9.43333 14.7336 9.49304 14.8778 9.59931 14.984C9.70558 15.0903 9.84971 15.15 10 15.15C10.1503 15.15 10.2944 15.0903 10.4007 14.984C10.507 14.8778 10.5667 14.7336 10.5667 14.5833V10.5667H14.5833C14.7336 10.5667 14.8778 10.507 14.984 10.4007C15.0903 10.2944 15.15 10.1503 15.15 10C15.15 9.84971 15.0903 9.70558 14.984 9.59931C14.8778 9.49304 14.7336 9.43333 14.5833 9.43333H10.5667V5.41667C10.5667 5.26638 10.507 5.12224 10.4007 5.01597C10.2944 4.9097 10.1503 4.85 10 4.85C9.84971 4.85 9.70558 4.9097 9.59931 5.01597C9.49304 5.12224 9.43333 5.26638 9.43333 5.41667V9.43333H5.41667C5.26638 9.43333 5.12224 9.49304 5.01597 9.59931C4.9097 9.70558 4.85 9.84971 4.85 10C4.85 10.1503 4.9097 10.2944 5.01597 10.4007C5.12224 10.507 5.26638 10.5667 5.41667 10.5667H9.43333Z" fill="white" stroke="white" stroke-width="0.3"/>
</svg>
