<svg xmlns="http://www.w3.org/2000/svg" width="10" height="12" viewBox="0 0 10 12" fill="none">
<path d="M9.14272 11.1429H6.49307C6.93817 10.7454 7.35793 10.3205 7.74986 9.87054C9.2204 8.17929 9.99986 6.39643 9.99986 4.71429C9.99986 3.46398 9.50318 2.26488 8.61908 1.38078C7.73498 0.496682 6.53588 0 5.28557 0C4.03527 0 2.83617 0.496682 1.95207 1.38078C1.06797 2.26488 0.571289 3.46398 0.571289 4.71429C0.571289 6.39643 1.34861 8.17929 2.82129 9.87054C3.21322 10.3205 3.63297 10.7454 4.07807 11.1429H1.42843C1.31477 11.1429 1.20576 11.188 1.12539 11.2684C1.04501 11.3488 0.99986 11.4578 0.99986 11.5714C0.99986 11.6851 1.04501 11.7941 1.12539 11.8745C1.20576 11.9548 1.31477 12 1.42843 12H9.14272C9.25638 12 9.36539 11.9548 9.44576 11.8745C9.52614 11.7941 9.57129 11.6851 9.57129 11.5714C9.57129 11.4578 9.52614 11.3488 9.44576 11.2684C9.36539 11.188 9.25638 11.1429 9.14272 11.1429ZM1.42843 4.71429C1.42843 3.69131 1.83481 2.71023 2.55816 1.98687C3.28152 1.26352 4.2626 0.857143 5.28557 0.857143C6.30855 0.857143 7.28963 1.26352 8.01299 1.98687C8.73634 2.71023 9.14272 3.69131 9.14272 4.71429C9.14272 7.78018 6.17111 10.3393 5.28557 11.0357C4.40004 10.3393 1.42843 7.78018 1.42843 4.71429ZM7.42843 4.71429C7.42843 4.29047 7.30276 3.87617 7.0673 3.52378C6.83184 3.17139 6.49717 2.89673 6.10561 2.73454C5.71406 2.57236 5.2832 2.52992 4.86752 2.6126C4.45185 2.69529 4.07003 2.89937 3.77035 3.19906C3.47066 3.49874 3.26657 3.88056 3.18389 4.29624C3.10121 4.71191 3.14365 5.14277 3.30583 5.53432C3.46802 5.92588 3.74268 6.26055 4.09507 6.49601C4.44746 6.73147 4.86176 6.85714 5.28557 6.85714C5.8539 6.85714 6.39894 6.63138 6.8008 6.22951C7.20267 5.82765 7.42843 5.28261 7.42843 4.71429ZM3.99986 4.71429C3.99986 4.46 4.07527 4.21142 4.21654 3.99998C4.35782 3.78855 4.55862 3.62375 4.79355 3.52644C5.02849 3.42913 5.287 3.40367 5.53641 3.45328C5.78581 3.50289 6.0149 3.62534 6.19471 3.80515C6.37452 3.98496 6.49697 4.21405 6.54658 4.46346C6.59619 4.71286 6.57073 4.97137 6.47342 5.20631C6.37611 5.44124 6.21131 5.64204 5.99988 5.78332C5.78844 5.92459 5.53987 6 5.28557 6C4.94458 6 4.61756 5.86454 4.37644 5.62342C4.13532 5.38231 3.99986 5.05528 3.99986 4.71429Z" fill="#2A2A2A" fill-opacity="0.9"/>
</svg>