<svg width="384" height="280" viewBox="0 0 384 280" fill="none" xmlns="http://www.w3.org/2000/svg">
<rect x="0.5" y="0.5" width="383" height="279" rx="7.5" fill="#FFF0DB" fill-opacity="0.72"/>
<rect x="0.5" y="0.5" width="383" height="279" rx="7.5" stroke="#EEEEEE"/>
<path d="M133.952 51.848H152.192V54.76H133.952V51.848ZM143.008 59.4H153.792V62.216H143.008V59.4ZM141.408 53.32H144.576V69.192L141.408 68.808V53.32ZM133.888 56.872L136.96 57.192C136.096 63.688 134.144 68.616 130.496 71.784C130.016 71.24 128.736 70.216 128.032 69.768C131.584 67.08 133.248 62.568 133.888 56.872ZM136.096 60.904C138.272 67.144 143.04 68.168 149.184 68.2C150.592 68.2 156.032 68.2 157.856 68.136C157.408 68.872 156.896 70.312 156.736 71.208H149.024C141.472 71.208 136.384 69.736 133.632 61.8L136.096 60.904ZM129.504 45.512H156.576V52.968H153.472V48.392H132.48V52.968H129.504V45.512ZM140.416 42.568L143.424 41.736C144.192 43.016 144.992 44.712 145.312 45.864L142.144 46.824C141.888 45.736 141.152 43.944 140.416 42.568ZM179.264 43.528H187.872V46.28H179.264V43.528ZM179.264 50.824H187.872V53.512H179.264V50.824ZM179.232 58.216H187.936V60.936H179.232V58.216ZM186.56 43.528H189.472V68.136C189.472 69.736 189.152 70.6 188.128 71.08C187.136 71.56 185.568 71.624 183.2 71.624C183.104 70.824 182.688 69.48 182.304 68.712C183.84 68.776 185.44 68.776 185.92 68.744C186.368 68.744 186.56 68.584 186.56 68.104V43.528ZM178.016 43.528H180.864V55.208C180.864 60.2 180.448 67.272 177.632 71.816C177.152 71.272 175.904 70.376 175.232 70.088C177.792 65.896 178.016 59.816 178.016 55.208V43.528ZM161.184 46.056H176.672V48.712H161.184V46.056ZM165.12 51.144H173.024V53.512H165.12V51.144ZM165.12 56.168H173.056V58.536H165.12V56.168ZM160.768 61.288H176.576V63.976H160.768V61.288ZM163.808 42.376H166.56V62.312H163.808V42.376ZM171.584 42.376H174.368V62.312H171.584V42.376ZM165.024 64.456L167.904 65.288C166.72 67.688 164.864 70.152 163.136 71.752C162.56 71.24 161.376 70.376 160.672 69.96C162.432 68.584 164.096 66.504 165.024 64.456ZM169.696 65.64L172 64.392C173.28 65.832 174.816 67.784 175.52 69.096L173.056 70.536C172.448 69.256 170.944 67.144 169.696 65.64ZM199.232 51.848H217.472V54.76H199.232V51.848ZM208.288 59.4H219.072V62.216H208.288V59.4ZM206.688 53.32H209.856V69.192L206.688 68.808V53.32ZM199.168 56.872L202.24 57.192C201.376 63.688 199.424 68.616 195.776 71.784C195.296 71.24 194.016 70.216 193.312 69.768C196.864 67.08 198.528 62.568 199.168 56.872ZM201.376 60.904C203.552 67.144 208.32 68.168 214.464 68.2C215.872 68.2 221.312 68.2 223.136 68.136C222.688 68.872 222.176 70.312 222.016 71.208H214.304C206.752 71.208 201.664 69.736 198.912 61.8L201.376 60.904ZM194.784 45.512H221.856V52.968H218.752V48.392H197.76V52.968H194.784V45.512ZM205.696 42.568L208.704 41.736C209.472 43.016 210.272 44.712 210.592 45.864L207.424 46.824C207.168 45.736 206.432 43.944 205.696 42.568ZM226.688 45.096H240.576V50.696H238.24V47.56H228.928V50.696H226.688V45.096ZM228.736 61.8H239.04V71.592H236.384V64.2H231.296V71.624H228.736V61.8ZM229.664 68.296H238.144V70.696H229.664V68.296ZM231.232 48.36L233.6 48.808C232.544 51.752 230.848 54.504 228 56.616C227.68 55.976 226.976 54.984 226.464 54.6C228.96 52.904 230.496 50.536 231.232 48.36ZM231.808 50.504H237.44V52.808H230.848L231.808 50.504ZM236.8 50.504H237.312L237.76 50.408L239.264 51.496C237.024 57.32 232.224 61 227.296 62.888C227.04 62.184 226.304 60.968 225.792 60.456C230.56 58.92 235.04 55.624 236.8 50.984V50.504ZM231.616 42.888L234.016 42.024C234.592 43.24 235.264 44.872 235.584 45.896L233.056 46.92C232.768 45.864 232.128 44.168 231.616 42.888ZM241.44 43.432H255.616V45.992H241.44V43.432ZM245.056 55.88V58.376H251.808V55.88H245.056ZM245.056 60.616V63.176H251.808V60.616H245.056ZM245.056 51.144V53.608H251.808V51.144H245.056ZM242.368 48.744H254.688V65.544H242.368V48.744ZM247.168 44.776L250.016 45.256C249.504 47.048 248.928 48.936 248.512 50.216L246.272 49.672C246.592 48.264 246.976 46.216 247.168 44.776ZM245.824 65.8L247.776 67.72C245.856 69.224 243.136 70.856 240.992 71.88C240.704 71.24 240.128 70.248 239.68 69.64C241.696 68.712 244.384 67.08 245.824 65.8ZM248.96 67.56L250.56 65.672C252.352 66.76 254.752 68.488 255.968 69.672L254.24 71.784C253.088 70.568 250.72 68.744 248.96 67.56ZM229.664 56.136L231.36 54.312C234.304 55.976 238.528 58.472 240.736 60.008L238.944 62.12C236.896 60.552 232.704 57.928 229.664 56.136Z" fill="#2A2A2A"/>
<g opacity="0.2">
<path fill-rule="evenodd" clip-rule="evenodd" d="M322.763 86.1138L322.774 86.1241C325.786 88.9196 325.957 93.6257 323.161 96.6373L323.144 96.6579L273.719 149.457C270.905 152.465 266.188 152.63 263.169 149.824L263.156 149.814C260.143 147.018 259.972 142.312 262.768 139.301L262.785 139.28L312.211 86.4809C315.024 83.4727 319.741 83.308 322.76 86.1138H322.763Z" fill="url(#paint0_linear_981_3070)"/>
<path fill-rule="evenodd" clip-rule="evenodd" d="M361.098 79.5933L361.108 79.6036C364.117 82.3991 364.292 87.1052 361.496 90.1168L361.478 90.1374L312.053 142.937C309.24 145.945 304.522 146.109 301.504 143.304L301.49 143.293C298.478 140.498 298.306 135.792 301.102 132.78L301.119 132.76L350.548 79.9638C353.362 76.9556 358.079 76.7909 361.098 79.5968V79.5933Z" fill="url(#paint1_linear_981_3070)"/>
</g>
<path d="M262.528 107.017C261.982 109.493 261.272 111.558 260.723 112.81C260.064 114.306 259.004 116.415 257.546 118.614C257.186 119.17 256.792 119.732 256.377 120.291C256.377 120.291 256.377 120.295 256.373 120.302C253.731 123.838 250.133 127.265 245.642 128.431C243.632 128.959 241.436 129.028 239.076 128.455C227.147 125.539 229.038 109.682 230.732 101.731C230.743 101.683 230.753 101.635 230.763 101.587C231.261 99.2958 231.322 97.7282 232.132 96.5757C233.662 94.4045 234.612 92.9913 236.64 91.6364C241.179 86.8309 250.284 88.2921 250.541 87.925C250.387 88.3881 261.598 85.1467 262.524 107.013L262.528 107.017Z" fill="#F4E0D3"/>
<path d="M260.462 137.164C255.025 140.841 251.515 146.013 250.208 149.643C249.947 145.753 246.946 143.654 246.808 140.093C246.753 138.587 246.661 137.126 246.544 135.737C246.428 134.348 246.283 133.024 246.126 131.782C254.874 131.003 256.181 122.754 256.376 120.302C256.38 120.298 256.38 120.291 256.38 120.291C256.792 119.729 257.186 119.17 257.55 118.614C258.112 122.871 259.124 128.613 260.847 132.811C261.015 133.216 261.186 133.607 261.361 133.981C261.903 135.116 261.505 136.461 260.462 137.164Z" fill="#F4E0D3"/>
<path d="M328.338 193.119C325.988 191.774 321.913 192.608 317.175 194.179C308.344 197.098 297.215 202.565 290.642 201.227L297.253 229.093H225.549L223.741 215.826C222.581 200.713 220.948 203.7 220.948 195.756C210.731 196.367 198.851 186.828 192.693 184.293C188.871 182.722 186.11 181.624 184.734 182.338C193.249 177.299 200.584 163.177 210.965 154.174C212.347 152.976 213.829 151.93 215.383 151.021C224.543 145.615 236.015 144.758 241.772 143.9L241.625 144.154L242.342 154.17L242.616 157.991C242.695 159.109 244.146 159.487 244.764 158.554L247.656 154.174L249.838 150.874L252.044 154.174L254.84 158.355C255.738 159.699 257.639 159.895 258.788 158.76C259.989 157.576 261.56 155.985 263.21 154.177C266.452 150.637 270.007 146.288 271.708 142.645C275.856 143.039 286.68 144.703 295.263 151.567C297.462 153.319 299.514 155.415 301.27 157.916C310.955 171.715 320.077 186.303 328.331 193.115L328.338 193.119Z" fill="#FFFBF5"/>
<path d="M277.736 143.606C276.305 145.681 273.869 150.449 273.787 150.62C266.233 165.73 248.795 162.92 248.795 162.92C248.795 162.92 241.415 162.444 238.067 158.852L235.909 154.239C235.36 153.436 234.979 152.527 234.794 151.57L233.391 145.098L245.642 142.645L246.541 135.733C246.657 137.123 246.75 138.584 246.805 140.09C246.939 143.65 249.944 145.749 250.205 149.639C251.512 146.01 255.021 140.837 260.459 137.16C261.502 136.457 261.9 135.113 261.358 133.977C261.183 133.607 261.011 133.212 260.843 132.808L263.711 139.383C263.711 139.383 264.099 141.03 277.736 143.606Z" fill="#F4E0D3"/>
<path d="M319.34 201.529L317.175 194.182C321.913 192.611 325.988 191.778 328.338 193.122C328.644 193.376 328.945 193.619 329.251 193.846C329.251 193.846 329.254 193.849 329.261 193.856C331.44 196.271 325.504 199.358 319.34 201.533V201.529Z" fill="#BDBDBD"/>
<path d="M192.696 184.3L190.062 188.444C187.3 187.391 182.518 185.168 184.188 182.815C184.336 182.606 184.518 182.455 184.734 182.341C186.11 181.628 188.875 182.726 192.693 184.297L192.696 184.3Z" fill="#BDBDBD"/>
<g style="mix-blend-mode:multiply" opacity="0.5">
<path d="M256.377 120.302C256.181 122.754 254.874 131.003 246.126 131.782C245.971 130.585 245.81 129.463 245.642 128.431C250.133 127.261 253.731 123.838 256.373 120.302H256.377Z" fill="#C26E58"/>
</g>
<path d="M285.359 177.587L297.253 229.097H277.588C277.588 229.097 279.928 226.051 280.573 219.853C280.844 217.225 281.873 214.718 283.633 212.753C287.743 208.167 286.072 190.728 284.261 177.786C284.161 177.083 285.198 176.891 285.355 177.584L285.359 177.587Z" fill="#E3E3E3"/>
<path d="M130.413 229.097H351.564" stroke="#FFD699" stroke-miterlimit="10"/>
<path d="M236.218 103.865C236.094 104.746 235.281 105.364 234.4 105.243C233.518 105.12 232.9 104.307 233.021 103.426C233.144 102.544 233.957 101.927 234.839 102.047C235.72 102.17 236.338 102.983 236.218 103.865Z" fill="#363636"/>
<path d="M248.445 105.552C248.321 106.434 247.508 107.051 246.627 106.931C245.745 106.808 245.127 105.995 245.247 105.113C245.371 104.232 246.184 103.614 247.066 103.734C247.947 103.858 248.565 104.671 248.445 105.552Z" fill="#363636"/>
<path d="M243.882 101.381C245.645 100.002 248.99 99.6798 250.438 100.808" stroke="#363636" stroke-width="2" stroke-miterlimit="10" stroke-linecap="round"/>
<path d="M237.192 100.808C236.643 98.5137 233.491 98.6097 233.003 99.1962" stroke="#363636" stroke-width="2" stroke-miterlimit="10" stroke-linecap="round"/>
<path d="M182.816 199.831L190.062 188.444L192.696 184.3C198.854 186.835 206.179 196.377 216.395 195.763C215.428 198.429 216.275 195.592 216.042 198.483L197.191 229.433C189.485 242.087 170.798 240.999 164.568 227.557C160.884 219.606 164.52 209.748 163.272 203.128" fill="#F4E0D3"/>
<path d="M218.186 195.818C207.774 192.501 198.851 186.835 192.696 184.3L191.578 186.056C199.726 187.315 210.505 195.005 213.716 202.305L216.042 198.483C216.827 198.483 217.541 197.595 218.186 195.818Z" fill="#CC745C"/>
<path d="M182.816 199.832L187.767 209.882C188.199 210.763 189.526 210.461 189.537 209.48C189.551 207.903 189.214 206.054 187.883 204.764C187.797 201.025 185.372 195.818 185.372 195.818L182.82 199.832H182.816Z" fill="#CC745C"/>
<path d="M309.116 262.856L246.297 265.425C246.297 265.425 236.732 268.035 229.26 265.425L222.324 265.078C222.324 265.078 216.001 268.076 215.088 266.584C214.509 265.634 220.567 261.885 225.326 261.299C220.303 261.751 217.37 261.559 217.37 261.559C217.37 261.559 212.159 265.411 210.656 264.036C209.613 263.082 211.181 261.755 211.181 261.755C211.181 261.755 209.232 262.489 208.659 261.535C207.527 259.666 215.154 256.215 215.154 256.215L222.519 253.474L214.697 254.648C214.697 254.648 211.308 257.206 208.862 257.34C207.754 257.395 207.349 255.889 208.333 255.364L214.835 251.886C219.363 249.468 224.629 248.816 229.61 250.068L241.628 253.08L298.8 235.611L297.256 229.093L290.645 201.228C297.219 202.562 308.344 197.098 317.178 194.179L319.343 201.526L329.168 234.887C333.179 248.511 323.312 262.273 309.123 262.856H309.116Z" fill="#F4E0D3"/>
<path d="M319.583 202.356L319.34 201.526L317.175 194.179C309.833 196.607 300.91 200.788 294.33 201.365C300.481 202.86 313.319 199.492 319.583 202.353V202.356Z" fill="#CC745C"/>
<path d="M212.44 260.818L217.305 258.081L225.044 256.997" stroke="#CC745C" stroke-width="2" stroke-linecap="round" stroke-linejoin="round"/>
<path d="M298.797 235.614C302.2 234.51 306.921 234.602 310.832 235.648C312.022 235.967 312.67 234.293 311.562 233.755C307.126 231.587 300.924 230.75 297.713 231.049L298.793 235.617L298.797 235.614Z" fill="#CC745C"/>
<path d="M239.498 104.424C239.498 104.424 239.247 106.942 237.192 107.909C235.137 108.876 239.498 110.622 239.498 110.622" stroke="#363636" stroke-width="2" stroke-miterlimit="10" stroke-linecap="round"/>
<path d="M237.192 117.691C237.192 117.691 241.717 119.53 245.645 115.27" stroke="#363636" stroke-width="2" stroke-miterlimit="10" stroke-linecap="round"/>
<path d="M345.66 213.85C340.387 214.413 339.512 215.287 338.949 220.559C338.929 220.751 338.647 220.751 338.63 220.559C338.068 215.287 337.193 214.413 331.92 213.85C331.728 213.829 331.728 213.552 331.92 213.531C337.193 212.968 338.071 212.094 338.63 206.822C338.651 206.63 338.932 206.63 338.949 206.822C339.512 212.094 340.387 212.968 345.66 213.531C345.852 213.552 345.852 213.833 345.66 213.85Z" fill="white"/>
<path d="M96.5657 88.1C84.6098 89.52 82.6406 91.5369 81.5119 103.525C81.4707 103.961 80.836 103.971 80.7846 103.535C79.3643 91.5815 77.3471 89.6126 65.3569 88.4841C64.9212 88.443 64.9109 87.8084 65.3466 87.757C77.3025 86.3369 79.2717 84.32 80.4004 72.3319C80.4415 71.8963 81.0762 71.886 81.1277 72.3216C82.5479 84.2754 84.5652 86.2443 96.5554 87.3728C96.9911 87.414 97.0014 88.0485 96.5657 88.1Z" fill="white"/>
<path d="M262.528 110.622C262.528 110.622 258.871 102.198 257.838 94.4492C258.198 92.6415 257.255 90.8339 253.865 90.3159C250.476 89.798 246.826 94.9225 241.419 95.2004C239.926 95.2004 238.942 95.0769 238.383 94.8231C237.703 94.5178 236.901 94.7647 236.489 95.3856C235.714 96.5621 234.78 97.5774 231.49 98.0165C226.324 98.7059 225.549 92.5661 228.907 90.2782C227.099 88.2476 226.509 81.7922 233.003 81.2742C232.135 79.079 233.985 76.8837 237.192 77.5938C240.4 78.3038 240.873 80.6294 246.126 80.2418C251.378 79.8542 258.953 78.6914 262.528 81.5315C266.102 84.5019 265.845 87.0848 265.845 87.0848C265.845 87.0848 267.91 86.7006 269.331 87.9252C270.751 89.1497 277.736 102.966 262.528 110.619V110.622Z" fill="#363636"/>
<path d="M268.062 110.054C269.063 107.584 268.114 104.869 265.943 103.99C263.772 103.111 261.202 104.402 260.201 106.873C259.201 109.343 260.15 112.058 262.32 112.937C264.491 113.816 267.062 112.525 268.062 110.054Z" fill="#F4E0D3"/>
<path d="M232.005 198.442C220.049 199.862 218.08 201.879 216.951 213.867C216.91 214.303 216.275 214.313 216.224 213.878C214.804 201.924 212.786 199.955 200.796 198.826C200.361 198.785 200.35 198.151 200.786 198.099C212.742 196.679 214.711 194.662 215.84 182.674C215.881 182.239 216.516 182.228 216.567 182.664C217.987 194.618 220.005 196.587 231.995 197.715C232.43 197.756 232.441 198.391 232.005 198.442Z" fill="#FFD699"/>
<path d="M155.868 109.583H42.2136C40.3189 109.583 38.7829 111.118 38.7829 113.013V180.602C38.7829 182.497 40.3189 184.032 42.2136 184.032H155.868C157.763 184.032 159.299 182.497 159.299 180.602V113.013C159.299 111.118 157.763 109.583 155.868 109.583Z" fill="white"/>
<path d="M38.7829 122.641H159.299" stroke="#FFD699" stroke-width="8" stroke-miterlimit="10"/>
<path d="M155.868 109.583H42.2136C40.3189 109.583 38.7829 111.118 38.7829 113.013V121.21C38.7829 123.105 40.3189 124.641 42.2136 124.641H155.868C157.763 124.641 159.299 123.105 159.299 121.21V113.013C159.299 111.118 157.763 109.583 155.868 109.583Z" fill="#FFD699"/>
<path d="M63.0686 103.645H62.952C61.0573 103.645 59.5213 105.181 59.5213 107.075V111.839C59.5213 113.734 61.0573 115.27 62.952 115.27H63.0686C64.9633 115.27 66.4993 113.734 66.4993 111.839V107.075C66.4993 105.181 64.9633 103.645 63.0686 103.645Z" fill="white"/>
<path d="M137.751 103.645H137.634C135.739 103.645 134.204 105.181 134.204 107.075V111.839C134.204 113.734 135.739 115.27 137.634 115.27H137.751C139.646 115.27 141.182 113.734 141.182 111.839V107.075C141.182 105.181 139.646 103.645 137.751 103.645Z" fill="white"/>
<path d="M66.4993 133.878H57.1953V143.18H66.4993V133.878Z" fill="#CCCCCC"/>
<path d="M85.4606 133.878H76.1566V143.18H85.4606V133.878Z" fill="#CCCCCC"/>
<path d="M104.422 133.878H95.1179V143.18H104.422V133.878Z" fill="#CCCCCC"/>
<path d="M123.383 133.878H114.079V143.18H123.383V133.878Z" fill="#FFD699"/>
<path d="M142.348 133.878H133.044V143.18H142.348V133.878Z" fill="#CCCCCC"/>
<path d="M66.4993 150.438H57.1953V159.741H66.4993V150.438Z" fill="#CCCCCC"/>
<path d="M85.4606 150.438H76.1566V159.741H85.4606V150.438Z" fill="#CCCCCC"/>
<path d="M104.422 150.438H95.1179V159.741H104.422V150.438Z" fill="#CCCCCC"/>
<path d="M123.383 150.438H114.079V159.741H123.383V150.438Z" fill="#CCCCCC"/>
<path d="M142.348 150.438H133.044V159.741H142.348V150.438Z" fill="#CCCCCC"/>
<path d="M66.4993 166.999H57.1953V176.301H66.4993V166.999Z" fill="#CCCCCC"/>
<path d="M85.4606 166.999H76.1566V176.301H85.4606V166.999Z" fill="#CCCCCC"/>
<path d="M104.422 166.999H95.1179V176.301H104.422V166.999Z" fill="#CCCCCC"/>
<path d="M123.383 166.999H114.079V176.301H123.383V166.999Z" fill="#CCCCCC"/>
<path d="M142.348 166.999H133.044V176.301H142.348V166.999Z" fill="#CCCCCC"/>
<path d="M39.7607 173.67C50.6742 173.67 59.5213 164.824 59.5213 153.913C59.5213 143.001 50.6742 134.156 39.7607 134.156C28.8471 134.156 20 143.001 20 153.913C20 164.824 28.8471 173.67 39.7607 173.67Z" fill="white" stroke="#FFD699" stroke-width="3" stroke-miterlimit="10"/>
<path d="M31.3349 153.913L37.3317 159.741L48.1864 147.969" stroke="#FFD699" stroke-width="6" stroke-linecap="round" stroke-linejoin="round"/>
<path d="M163.364 132.574C163.364 132.574 158.716 130.249 156.647 132.574C154.578 134.9 156.647 136.32 156.647 136.32C156.647 136.32 155.096 135.497 154.321 137.263C153.546 139.03 155.429 140.323 155.429 140.323C155.429 140.323 153.288 140.097 153.415 141.76C153.542 143.424 154.098 148.24 160.668 148.737C162.802 150.575 165.138 152.52 167.488 153.354C168.846 153.841 169.865 154.987 170.178 156.393C167.33 167.277 165.419 174.912 158.777 206.674C157.398 213.267 157.251 225.389 160.939 233.336C167.169 246.779 187.924 244.347 195.63 231.693L214.481 200.744C214.714 197.852 208.611 211.456 209.579 208.791C199.362 209.401 197.29 189.095 191.132 186.557L188.497 190.701L181.252 202.088L186.401 153.326C188.683 138.92 175.464 128.263 175.464 128.263L172.751 122.356C172.469 121.739 171.869 121.403 171.258 121.403C170.871 121.403 170.476 121.543 170.154 121.835C169.231 122.682 168.936 124.016 169.416 125.172L172.658 132.959L159.031 124.874L154.479 122.336C153.155 121.756 152.51 121.32 151.813 121.094C150.959 120.816 150.077 121.238 149.734 121.43C148.688 122.024 148.815 123.718 149.841 124.353C158.777 129.858 161.906 133.02 161.906 133.02" fill="#F4E0D3"/>
<path d="M162.074 148.202C162.074 148.202 165.56 146.782 164.14 145.876C162.719 144.971 158.973 144.748 157.422 141.76C159.618 143.424 161.426 144.861 165.687 144.981C167.237 144.456 166.977 142.422 165.687 141.76C167.752 142.518 169.69 140.841 168.527 139.16C169.817 140.066 168.908 142.906 166.51 142.155C167.189 142.906 167.817 144.816 165.735 145.327C165.08 145.715 165.347 145.763 165.08 146.175C164.812 146.586 164.225 147.742 162.067 148.202H162.074Z" fill="#CC745C"/>
<path fill-rule="evenodd" clip-rule="evenodd" d="M186.5 112.849C192.284 112.849 197 108.165 197 102.424C197 96.6842 192.282 92 186.5 92C180.718 92 176 96.6819 176 102.424C176 108.167 180.716 112.849 186.5 112.849Z" fill="#D6B040"/>
<path fill-rule="evenodd" clip-rule="evenodd" d="M186.5 110.825C191.161 110.825 194.961 107.052 194.961 102.424C194.961 97.7968 191.161 94.0237 186.5 94.0237C181.839 94.0237 178.038 97.7968 178.038 102.424C178.038 107.052 181.839 110.825 186.5 110.825Z" fill="#F3D56D"/>
<path d="M187.518 97.4864C187.947 97.6042 188.306 97.7968 188.593 98.0688C188.993 98.4472 189.246 98.9526 189.358 99.5871L187.744 99.7978C187.701 99.5735 187.625 99.3831 187.518 99.2245V97.4886V97.4864ZM187.518 101.423C188.249 101.672 188.764 101.973 189.066 102.329C189.435 102.767 189.62 103.326 189.62 104.011C189.62 104.774 189.388 105.418 188.924 105.941C188.564 106.347 188.096 106.63 187.52 106.793V105.284C187.607 105.223 187.687 105.151 187.76 105.067C187.961 104.831 188.061 104.557 188.061 104.24C188.061 103.956 187.977 103.714 187.808 103.508C187.733 103.417 187.637 103.335 187.52 103.263V101.425L187.518 101.423ZM186.055 105.416V102.762C185.911 102.721 185.774 102.676 185.644 102.628V100.711C185.758 100.804 185.895 100.886 186.055 100.956V98.7622C185.897 98.8143 185.761 98.8914 185.644 98.9911V97.4478C185.777 97.4184 185.913 97.3957 186.055 97.3821V96.7544H186.977V97.3821C187.169 97.4048 187.349 97.441 187.518 97.4864V99.2222C187.386 99.0274 187.205 98.8801 186.977 98.7826V101.26C187.169 101.312 187.349 101.366 187.518 101.423V103.261C187.372 103.17 187.192 103.095 186.977 103.034V105.504C187.183 105.466 187.363 105.393 187.518 105.284V106.793C187.347 106.841 187.167 106.88 186.977 106.907V108.092H186.055V106.936C185.913 106.918 185.774 106.895 185.644 106.864V105.126C185.772 105.248 185.909 105.345 186.055 105.416ZM185.644 102.628C185.016 102.397 184.542 102.084 184.22 101.688C183.832 101.207 183.635 100.625 183.635 99.9429C183.635 99.2608 183.855 98.6693 184.295 98.1979C184.651 97.8195 185.101 97.5702 185.644 97.4478V98.9911C185.573 99.05 185.512 99.118 185.455 99.1928C185.306 99.3967 185.233 99.6211 185.233 99.8658C185.233 100.088 185.302 100.299 185.436 100.489C185.493 100.571 185.564 100.643 185.646 100.711V102.628H185.644ZM185.644 106.864C185.094 106.735 184.631 106.485 184.261 106.118C183.802 105.665 183.51 105.019 183.38 104.187L185.046 104.011C185.112 104.348 185.242 104.641 185.43 104.883C185.498 104.974 185.569 105.053 185.644 105.126V106.864Z" fill="#D6B040"/>
<path fill-rule="evenodd" clip-rule="evenodd" d="M124 223.755C133.364 223.755 141 216.171 141 206.878C141 197.584 133.361 190 124 190C114.639 190 107 197.58 107 206.878C107 216.175 114.635 223.755 124 223.755Z" fill="#D6B040"/>
<path fill-rule="evenodd" clip-rule="evenodd" d="M124 220.479C131.546 220.479 137.699 214.37 137.699 206.878C137.699 199.385 131.546 193.276 124 193.276C116.453 193.276 110.3 199.385 110.3 206.878C110.3 214.37 116.453 220.479 124 220.479Z" fill="#F3D56D"/>
<path d="M125.649 198.883C126.343 199.074 126.924 199.386 127.389 199.826C128.036 200.439 128.446 201.257 128.627 202.284L126.014 202.625C125.944 202.262 125.822 201.954 125.649 201.697V198.887V198.883ZM125.649 205.256C126.831 205.66 127.666 206.148 128.154 206.724C128.753 207.432 129.052 208.338 129.052 209.446C129.052 210.683 128.675 211.725 127.925 212.572C127.341 213.229 126.584 213.687 125.652 213.952V211.508C125.793 211.409 125.922 211.292 126.04 211.156C126.365 210.774 126.528 210.33 126.528 209.817C126.528 209.358 126.391 208.965 126.118 208.632C125.996 208.485 125.841 208.353 125.652 208.235V205.26L125.649 205.256ZM123.28 211.721V207.424C123.047 207.358 122.825 207.285 122.614 207.208V204.104C122.799 204.254 123.021 204.386 123.28 204.5V200.949C123.025 201.033 122.803 201.158 122.614 201.319V198.82C122.829 198.773 123.051 198.736 123.28 198.714V197.698H124.773V198.714C125.083 198.751 125.375 198.809 125.649 198.883V201.693C125.434 201.378 125.142 201.139 124.773 200.982V204.992C125.083 205.076 125.375 205.164 125.649 205.256V208.232C125.412 208.085 125.12 207.964 124.773 207.865V211.864C125.105 211.802 125.397 211.684 125.649 211.508V213.952C125.371 214.029 125.079 214.091 124.773 214.135V216.054H123.28V214.183C123.051 214.153 122.825 214.117 122.614 214.065V211.251C122.821 211.449 123.043 211.607 123.28 211.721ZM122.614 207.208C121.598 206.834 120.829 206.327 120.308 205.685C119.68 204.907 119.362 203.964 119.362 202.86C119.362 201.756 119.717 200.798 120.43 200.035C121.007 199.422 121.735 199.019 122.614 198.82V201.319C122.5 201.415 122.4 201.525 122.308 201.646C122.067 201.976 121.949 202.339 121.949 202.735C121.949 203.095 122.06 203.436 122.278 203.744C122.371 203.876 122.485 203.994 122.618 204.104V207.208H122.614ZM122.614 214.065C121.724 213.856 120.974 213.453 120.375 212.858C119.632 212.124 119.159 211.079 118.948 209.732L121.646 209.446C121.753 209.993 121.964 210.466 122.267 210.859C122.378 211.005 122.492 211.134 122.614 211.251V214.065Z" fill="#D6B040"/>
<defs>
<linearGradient id="paint0_linear_981_3070" x1="303.668" y1="103.74" x2="274.409" y2="135.122" gradientUnits="userSpaceOnUse">
<stop stop-color="#F0C862"/>
<stop offset="1" stop-color="#487F63"/>
</linearGradient>
<linearGradient id="paint1_linear_981_3070" x1="337.557" y1="101.863" x2="307.307" y2="144.981" gradientUnits="userSpaceOnUse">
<stop stop-color="#487F63"/>
<stop offset="1" stop-color="#F0C862"/>
</linearGradient>
</defs>
</svg>
