<svg xmlns="http://www.w3.org/2000/svg" width="32" height="33" viewBox="0 0 32 33" fill="none">
<path d="M28.7078 27.7925L22.449 21.535C24.2631 19.3571 25.1676 16.5637 24.9746 13.7359C24.7815 10.9081 23.5057 8.26355 21.4125 6.35244C19.3193 4.44134 16.5698 3.4108 13.7362 3.4752C10.9025 3.5396 8.20274 4.69398 6.19851 6.69821C4.19429 8.70243 3.0399 11.4022 2.9755 14.2359C2.9111 17.0695 3.94164 19.819 5.85275 21.9122C7.76385 24.0054 10.4084 25.2812 13.2362 25.4743C16.064 25.6673 18.8574 24.7628 21.0353 22.9487L27.2928 29.2075C27.3857 29.3004 27.496 29.3741 27.6174 29.4244C27.7388 29.4747 27.8689 29.5005 28.0003 29.5005C28.1317 29.5005 28.2618 29.4747 28.3832 29.4244C28.5046 29.3741 28.6149 29.3004 28.7078 29.2075C28.8007 29.1146 28.8744 29.0043 28.9247 28.8829C28.975 28.7615 29.0008 28.6314 29.0008 28.5C29.0008 28.3686 28.975 28.2385 28.9247 28.1171C28.8744 27.9957 28.8007 27.8854 28.7078 27.7925ZM5.00029 14.5C5.00029 12.7199 5.52813 10.9799 6.51706 9.49985C7.50599 8.0198 8.9116 6.86625 10.5561 6.18506C12.2007 5.50388 14.0103 5.32565 15.7561 5.67291C17.5019 6.02018 19.1056 6.87735 20.3642 8.13602C21.6229 9.39469 22.4801 10.9983 22.8274 12.7442C23.1746 14.49 22.9964 16.2996 22.3152 17.9441C21.634 19.5887 20.4805 20.9943 19.0004 21.9832C17.5204 22.9721 15.7803 23.5 14.0003 23.5C11.6141 23.4973 9.3265 22.5483 7.63925 20.861C5.95199 19.1738 5.00293 16.8861 5.00029 14.5Z" fill="#008061"/>
</svg>