<svg xmlns="http://www.w3.org/2000/svg" width="32" height="32" viewBox="0 0 32 32" fill="none">
<path fill-rule="evenodd" clip-rule="evenodd" d="M13.9529 26.9999C13.1426 26.9962 12.355 26.8961 11.6011 26.7105C13.571 29.1729 16.6013 30.75 19.9999 30.75C21.8869 30.75 23.6624 30.2632 25.2054 29.4077C25.2998 29.3554 25.3917 29.3531 25.4572 29.3763L27.9798 30.2676C29.5254 30.8138 31.0142 29.325 30.4681 27.7794L29.5398 25.1523C29.5175 25.0893 29.5185 25.0013 29.5659 24.9092C30.323 23.4368 30.7499 21.7672 30.7499 20C30.7499 14.172 26.1122 9.42719 20.3259 9.25488C20.939 9.75626 21.4915 10.329 21.9707 10.9604C26.1325 11.8635 29.2499 15.5677 29.2499 20C29.2499 21.5231 28.8824 22.9581 28.2319 24.2233C28.0128 24.6495 27.9536 25.1657 28.1255 25.6521L29.0538 28.2791C29.1798 28.6358 28.8362 28.9794 28.4795 28.8533L25.957 27.962C25.451 27.7832 24.9137 27.8544 24.4781 28.0959C23.152 28.8311 21.626 29.25 19.9999 29.25C17.6881 29.25 15.5744 28.4019 13.9529 26.9999Z" fill="#2A2A2A"/>
<path d="M4.23903 25.0292L3.53188 24.7793H3.53188L4.23903 25.0292ZM5.77027 26.5605L6.02015 27.2676H6.02015L5.77027 26.5605ZM9.15817 25.7518L8.79451 26.4077L9.15817 25.7518ZM5.10104 21.5662L5.76804 21.2233L5.10104 21.5662ZM5.16731 22.4022L5.87446 22.6521L5.16731 22.4022ZM4.75 17C4.75 11.8914 8.89137 7.75 14 7.75V6.25C8.06294 6.25 3.25 11.0629 3.25 17H4.75ZM5.76804 21.2233C5.11751 19.9581 4.75 18.523 4.75 17H3.25C3.25 18.7671 3.67697 20.4367 4.43404 21.9092L5.76804 21.2233ZM4.94618 25.2791L5.87446 22.6521L4.46016 22.1523L3.53188 24.7793L4.94618 25.2791ZM5.52039 25.8533C5.16372 25.9793 4.82014 25.6358 4.94618 25.2791L3.53188 24.7793C2.98573 26.3249 4.47455 27.8138 6.02015 27.2676L5.52039 25.8533ZM8.04298 24.9619L5.52039 25.8533L6.02015 27.2676L8.54274 26.3762L8.04298 24.9619ZM14 26.25C12.3739 26.25 10.848 25.8311 9.52184 25.0958L8.79451 26.4077C10.3375 27.2632 12.113 27.75 14 27.75V26.25ZM23.25 17C23.25 22.1086 19.1086 26.25 14 26.25V27.75C19.9371 27.75 24.75 22.9371 24.75 17H23.25ZM14 7.75C19.1086 7.75 23.25 11.8914 23.25 17H24.75C24.75 11.0629 19.9371 6.25 14 6.25V7.75ZM8.54274 26.3762C8.60823 26.3531 8.7001 26.3554 8.79451 26.4077L9.52184 25.0958C9.08623 24.8543 8.54889 24.7832 8.04298 24.9619L8.54274 26.3762ZM4.43404 21.9092C4.4814 22.0013 4.48243 22.0893 4.46016 22.1523L5.87446 22.6521C6.04633 22.1657 5.98714 21.6494 5.76804 21.2233L4.43404 21.9092Z" fill="#2A2A2A"/>
<path d="M13.524 20.168C11.244 20.168 9.672 18.404 9.672 15.548C9.672 12.704 11.244 11.012 13.524 11.012C15.792 11.012 17.364 12.704 17.364 15.548C17.364 18.404 15.792 20.168 13.524 20.168ZM13.524 19.016C14.988 19.016 15.936 17.696 15.936 15.548C15.936 13.484 14.988 12.224 13.524 12.224C12.048 12.224 11.112 13.484 11.112 15.548C11.112 17.696 12.048 19.016 13.524 19.016ZM16.296 22.304C14.52 22.304 13.308 21.308 12.804 19.964L14.232 19.832C14.58 20.744 15.468 21.164 16.44 21.164C16.836 21.164 17.148 21.104 17.388 21.02L17.652 22.076C17.364 22.208 16.872 22.304 16.296 22.304Z" fill="#008061"/>
</svg>