<svg xmlns="http://www.w3.org/2000/svg" width="8" height="15" viewBox="0 0 8 15" fill="none">
    <path d="M7.8045 7.97149L1.13858 14.6374C1.07664 14.6993 1.00312 14.7485 0.922198 14.782C0.841279 14.8155 0.75455 14.8328 0.666963 14.8328C0.579376 14.8328 0.492647 14.8155 0.411727 14.782C0.330807 14.7485 0.257282 14.6993 0.195349 14.6374C0.133415 14.5755 0.0842872 14.502 0.0507692 14.421C0.0172512 14.3401 0 14.2534 0 14.1658C0 14.0782 0.0172512 13.9915 0.0507692 13.9106C0.0842872 13.8296 0.133415 13.7561 0.195349 13.6942L6.39049 7.49988L0.195349 1.30557C0.0702687 1.18049 -1.31793e-09 1.01084 0 0.833955C1.31793e-09 0.657065 0.0702687 0.487421 0.195349 0.362341C0.320428 0.237261 0.490073 0.166992 0.666963 0.166992C0.843852 0.166992 1.0135 0.237261 1.13858 0.362341L7.8045 7.02826C7.86648 7.09017 7.91564 7.16369 7.94919 7.24461C7.98273 7.32553 8 7.41228 8 7.49988C8 7.58748 7.98273 7.67422 7.94919 7.75514C7.91564 7.83606 7.86648 7.90958 7.8045 7.97149Z" fill="white"/>
</svg>