<svg width="72" height="72" viewBox="0 0 72 72" fill="none" xmlns="http://www.w3.org/2000/svg">
<g filter="url(#filter0_d_1053_4982)">
<rect x="8" y="8" width="56" height="56" rx="28" fill="white"/>
<rect x="8.5" y="8.5" width="55" height="55" rx="27.5" stroke="#008061"/>
<path d="M37.063 27.43C36.7778 27.1538 36.3961 26.9995 35.999 27C35.599 27 35.216 27.155 34.935 27.43L27.44 34.7C27.3007 34.8335 27.1899 34.9938 27.1142 35.1712C27.0384 35.3486 26.9994 35.5396 26.9994 35.7325C26.9994 35.9254 27.0384 36.1164 27.1142 36.2938C27.1899 36.4712 27.3007 36.6315 27.44 36.765C28.027 37.335 28.98 37.335 29.568 36.765L34.5 31.967V49.546C34.5 50.349 35.171 51 35.999 51C36.826 51 37.497 50.349 37.497 49.546V31.966L42.428 36.765C42.71 37.04 43.093 37.195 43.493 37.195C43.893 37.195 44.275 37.04 44.557 36.765C44.84 36.492 45 36.12 45 35.733C45 35.345 44.84 34.973 44.557 34.7L37.063 27.43Z" fill="#008061"/>
<path d="M44.5 21H27.5C26.6716 21 26 21.6716 26 22.5C26 23.3284 26.6716 24 27.5 24H44.5C45.3284 24 46 23.3284 46 22.5C46 21.6716 45.3284 21 44.5 21Z" fill="#008061"/>
</g>
<defs>
<filter id="filter0_d_1053_4982" x="0" y="0" width="72" height="72" filterUnits="userSpaceOnUse" color-interpolation-filters="sRGB">
<feFlood flood-opacity="0" result="BackgroundImageFix"/>
<feColorMatrix in="SourceAlpha" type="matrix" values="0 0 0 0 0 0 0 0 0 0 0 0 0 0 0 0 0 0 127 0" result="hardAlpha"/>
<feOffset/>
<feGaussianBlur stdDeviation="4"/>
<feComposite in2="hardAlpha" operator="out"/>
<feColorMatrix type="matrix" values="0 0 0 0 0.164706 0 0 0 0 0.164706 0 0 0 0 0.164706 0 0 0 0.12 0"/>
<feBlend mode="normal" in2="BackgroundImageFix" result="effect1_dropShadow_1053_4982"/>
<feBlend mode="normal" in="SourceGraphic" in2="effect1_dropShadow_1053_4982" result="shape"/>
</filter>
</defs>
</svg>
