<svg xmlns="http://www.w3.org/2000/svg" width="20" height="11" viewBox="0 0 20 11" fill="none">
<path d="M19.7336 1.59781L10.6431 10.6883C10.5587 10.7728 10.4585 10.8398 10.3481 10.8856C10.2378 10.9313 10.1195 10.9549 10 10.9549C9.88054 10.9549 9.76225 10.9313 9.65189 10.8856C9.54153 10.8398 9.44127 10.7728 9.35685 10.6883L0.266401 1.59781C0.0958273 1.42723 0 1.19588 0 0.954655C0 0.713428 0.0958273 0.482079 0.266401 0.311506C0.436975 0.140932 0.668323 0.045105 0.90955 0.045105C1.15078 0.045105 1.38213 0.140932 1.5527 0.311506L10 8.75994L18.4473 0.311506C18.5318 0.227046 18.632 0.160049 18.7424 0.11434C18.8527 0.0686308 18.971 0.045105 19.0904 0.045105C19.2099 0.045105 19.3282 0.0686308 19.4385 0.11434C19.5489 0.160049 19.6491 0.227046 19.7336 0.311506C19.8181 0.395965 19.8851 0.496234 19.9308 0.606585C19.9765 0.716937 20 0.835211 20 0.954655C20 1.0741 19.9765 1.19237 19.9308 1.30273C19.8851 1.41308 19.8181 1.51335 19.7336 1.59781Z" fill="#008061"/>
</svg>