<svg xmlns="http://www.w3.org/2000/svg" width="8" height="15" viewBox="0 0 8 15" fill="none">
<path d="M0.195349 13.6944C0.133416 13.7564 0.0842886 13.8299 0.0507708 13.9108C0.0172529 13.9917 4.76837e-07 14.0785 4.76837e-07 14.166C4.76837e-07 14.2536 0.0172529 14.3404 0.0507708 14.4213C0.0842886 14.5022 0.133416 14.5757 0.195349 14.6377C0.257283 14.6996 0.330808 14.7487 0.411728 14.7822C0.492648 14.8158 0.579377 14.833 0.666964 14.833C0.75455 14.833 0.84128 14.8158 0.922199 14.7822C1.00312 14.7487 1.07664 14.6996 1.13858 14.6377L7.8045 7.97173C7.86648 7.90982 7.91564 7.83631 7.94919 7.75538C7.98273 7.67446 8 7.58772 8 7.50012C8 7.41252 7.98273 7.32578 7.94919 7.24485C7.91564 7.16393 7.86648 7.09041 7.8045 7.0285L1.13858 0.362585C1.0135 0.237505 0.843853 0.167236 0.666964 0.167236C0.490074 0.167236 0.320429 0.237505 0.195349 0.362585C0.0702696 0.487665 4.76837e-07 0.657309 4.76837e-07 0.834199C4.76837e-07 1.01109 0.0702696 1.18073 0.195349 1.30581L6.39049 7.50012L0.195349 13.6944Z" fill="#008061"/>
</svg>