<svg xmlns="http://www.w3.org/2000/svg" width="8" height="16" viewBox="0 0 8 16" fill="none">
<path d="M7.80465 14.1942C7.86658 14.2561 7.91571 14.3296 7.94923 14.4106C7.98275 14.4915 8 14.5782 8 14.6658C8 14.7534 7.98275 14.8401 7.94923 14.921C7.91571 15.002 7.86658 15.0755 7.80465 15.1374C7.74272 15.1993 7.66919 15.2485 7.58827 15.282C7.50735 15.3155 7.42062 15.3328 7.33304 15.3328C7.24545 15.3328 7.15872 15.3155 7.0778 15.282C6.99688 15.2485 6.92336 15.1993 6.86142 15.1374L0.195502 8.47149C0.133525 8.40958 0.0843582 8.33606 0.0508124 8.25514C0.0172667 8.17422 0 8.08748 0 7.99987C0 7.91227 0.0172667 7.82553 0.0508124 7.74461C0.0843582 7.66369 0.133525 7.59017 0.195502 7.52826L6.86142 0.862341C6.9865 0.737261 7.15615 0.666992 7.33304 0.666992C7.50993 0.666992 7.67957 0.737261 7.80465 0.862341C7.92973 0.987421 8 1.15707 8 1.33395C8 1.51084 7.92973 1.68049 7.80465 1.80557L1.60951 7.99987L7.80465 14.1942Z" fill="#2A2A2A"/>
</svg>