<svg xmlns="http://www.w3.org/2000/svg" width="16" height="9" viewBox="0 0 16 9" fill="none">
<path d="M8.47149 0.695502L15.1374 7.36142C15.1993 7.42336 15.2485 7.49688 15.282 7.5778C15.3155 7.65872 15.3328 7.74545 15.3328 7.83304C15.3328 7.92062 15.3155 8.00735 15.282 8.08827C15.2485 8.16919 15.1993 8.24272 15.1374 8.30465C15.0755 8.36658 15.002 8.41571 14.921 8.44923C14.8401 8.48275 14.7534 8.5 14.6658 8.5C14.5782 8.5 14.4915 8.48275 14.4106 8.44923C14.3296 8.41571 14.2561 8.36658 14.1942 8.30465L7.99988 2.10951L1.80557 8.30465C1.68049 8.42973 1.51084 8.5 1.33395 8.5C1.15707 8.5 0.987421 8.42973 0.862341 8.30465C0.737261 8.17957 0.666992 8.00993 0.666992 7.83304C0.666992 7.65615 0.737261 7.4865 0.862341 7.36142L7.52826 0.695502C7.59017 0.633525 7.66369 0.584357 7.74461 0.550811C7.82553 0.517265 7.91228 0.5 7.99988 0.5C8.08748 0.5 8.17422 0.517265 8.25514 0.550811C8.33606 0.584357 8.40958 0.633525 8.47149 0.695502Z" fill="#008061"/>
</svg>