<svg xmlns="http://www.w3.org/2000/svg" width="20" height="21" viewBox="0 0 20 21" fill="none">
<path d="M14.7801 11.781L7.28007 19.281C7.21038 19.3507 7.12766 19.406 7.03661 19.4437C6.94557 19.4814 6.84799 19.5008 6.74944 19.5008C6.65089 19.5008 6.55331 19.4814 6.46227 19.4437C6.37122 19.406 6.2885 19.3507 6.21882 19.281C6.14913 19.2114 6.09386 19.1286 6.05615 19.0376C6.01843 18.9465 5.99902 18.849 5.99902 18.7504C5.99902 18.6519 6.01843 18.5543 6.05615 18.4632C6.09386 18.3722 6.14913 18.2895 6.21882 18.2198L13.1891 11.2504L6.21882 4.28104C6.07808 4.14031 5.99902 3.94944 5.99902 3.75042C5.99902 3.55139 6.07808 3.36052 6.21882 3.21979C6.35955 3.07906 6.55042 3 6.74944 3C6.94846 3 7.13934 3.07906 7.28007 3.21979L14.7801 10.7198C14.8498 10.7894 14.9051 10.8722 14.9429 10.9632C14.9806 11.0543 15 11.1519 15 11.2504C15 11.349 14.9806 11.4466 14.9429 11.5376C14.9051 11.6287 14.8498 11.7114 14.7801 11.781Z" fill="#B5B5B5"/>
</svg>