<svg width="384" height="132" viewBox="0 0 384 132" fill="none" xmlns="http://www.w3.org/2000/svg">
<rect x="0.5" y="0.5" width="383" height="131" rx="7.5" fill="#DCE9FA" fill-opacity="0.56"/>
<rect x="0.5" y="0.5" width="383" height="131" rx="7.5" stroke="#EEEEEE"/>
<g opacity="0.2">
<path fill-rule="evenodd" clip-rule="evenodd" d="M332.942 27.1083L332.947 27.1135C334.463 28.5252 334.549 30.9017 333.142 32.4225L333.134 32.4329L308.261 59.0954C306.845 60.6145 304.471 60.6976 302.952 59.2808L302.945 59.2756C301.429 57.8639 301.343 55.4874 302.75 53.9666L302.759 53.9562L327.631 27.2937C329.047 25.7746 331.421 25.6915 332.94 27.1083H332.942Z" fill="url(#paint0_linear_163_158)"/>
<path fill-rule="evenodd" clip-rule="evenodd" d="M352.233 23.8155L352.238 23.8207C353.752 25.2324 353.84 27.6089 352.433 29.1297L352.425 29.1401L327.552 55.8026C326.136 57.3217 323.762 57.4048 322.243 55.988L322.236 55.9828C320.721 54.5711 320.634 52.1946 322.041 50.6738L322.05 50.6634L346.923 24.0009C348.338 22.4818 350.712 22.3987 352.231 23.8155H352.233Z" fill="url(#paint1_linear_163_158)"/>
</g>
<path d="M319.106 60.1606C314.785 56.6946 309.34 55.8546 307.253 55.6554C307.292 55.5688 307.332 55.4839 307.367 55.4007C304.592 55.6554 303.227 54.0081 303.227 54.0081L301.783 50.6876C300.918 48.5675 300.407 45.6662 300.124 43.5184C300.856 42.4081 301.391 41.3446 301.723 40.5876C301.997 39.9554 302.355 38.911 302.631 37.6621C294.284 35.0656 296.523 28.2567 296.601 28.0228C296.469 28.2082 294.03 31.6014 290.964 30.4495C290.6 31.4213 289.804 32.0847 288.854 32.4397C287.747 32.852 286.898 33.7648 286.648 34.9201C286.643 34.9444 286.637 34.9686 286.632 34.9929C285.781 39.008 284.828 47.0155 290.831 48.4879C292.019 48.7788 293.122 48.7425 294.135 48.4757C294.22 48.9971 294.301 49.5635 294.379 50.168C294.458 50.795 294.531 51.4619 294.589 52.1651L294.137 55.6554L292.19 56.2928C289.293 56.7258 283.519 57.1589 278.91 59.8887C275.835 48.0427 286.006 50.6617 283.704 33.8324C281.234 26.4587 286.67 22.002 292.259 22.3813C292.815 22.416 293.369 22.5026 293.919 22.6394C295.087 22.9235 296.226 23.431 297.265 24.1775C299.62 23.819 301.827 23.7653 303.765 24.0892C305.098 26.6804 306.554 27.4045 305.468 24.4945C309.656 25.8196 312.14 29.3791 311.35 36.1153C313.955 47.2719 326.238 53.2408 319.11 60.1641L319.106 60.1606Z" fill="#363636"/>
<path d="M302.629 37.6621C302.355 38.9127 301.997 39.9554 301.721 40.5877C301.39 41.3429 300.856 42.4081 300.123 43.5184C299.941 43.799 299.743 44.0831 299.534 44.3654C299.534 44.3654 299.534 44.3671 299.532 44.3706C298.203 46.1564 296.392 47.8868 294.132 48.4757C293.12 48.7425 292.015 48.7771 290.827 48.4879C284.825 47.0156 285.776 39.008 286.629 34.9929C286.634 34.9687 286.639 34.9444 286.644 34.9202C286.895 33.7631 286.926 32.9715 287.333 32.3895C288.103 31.2931 288.581 30.5795 289.602 29.8953C291.886 27.4686 296.468 28.2065 296.597 28.0211C296.519 28.255 294.28 35.0639 302.628 37.6604L302.629 37.6621Z" fill="#F4E0D3"/>
<path d="M301.59 52.8857C298.854 54.7425 297.087 57.3546 296.43 59.1871C296.298 57.2229 294.788 56.1629 294.719 54.3649C294.691 53.6045 294.645 52.8666 294.586 52.1651C294.527 51.4636 294.455 50.795 294.375 50.168C298.778 49.7748 299.435 45.609 299.534 44.3706C299.536 44.3688 299.536 44.3654 299.536 44.3654C299.743 44.0813 299.941 43.799 300.124 43.5184C300.407 45.6679 300.917 48.5675 301.783 50.6876C301.868 50.892 301.954 51.0895 302.042 51.2783C302.315 51.8516 302.115 52.5306 301.59 52.8857Z" fill="#F4E0D3"/>
<path d="M335.747 81.1435C334.565 80.4645 332.514 80.8854 330.13 81.6788C325.686 83.1528 320.085 85.9138 316.777 85.2383L320.104 99.31H286.805L285.099 91.5865C281.752 90.542 278.931 87.6286 279.236 83.8508C279.354 82.3907 279.713 80.901 280.199 79.5552C275.058 79.8635 270.585 77.9686 267.486 76.6885C265.563 75.8952 264.173 75.3409 263.481 75.7012C267.766 73.1567 271.457 66.0256 276.681 61.4788C277.377 60.8743 278.123 60.346 278.905 59.8869C283.514 57.1571 289.287 56.7241 292.184 56.2911L292.11 56.4192L292.471 61.477L292.609 63.4066C292.649 63.9713 293.379 64.1618 293.69 63.6907L295.145 61.4788L296.243 59.8125L297.353 61.4788L298.76 63.5902C299.213 64.2692 300.169 64.3679 300.747 63.7946C301.352 63.197 302.142 62.3933 302.973 61.4805C304.604 59.6929 306.393 57.4966 307.249 55.6571C309.336 55.8563 314.783 56.6964 319.103 60.1623C320.21 61.0475 321.242 62.1058 322.126 63.3685C327 70.3368 331.59 77.7035 335.744 81.1435H335.747Z" fill="white"/>
<path d="M310.283 56.1403C309.563 57.1883 308.337 59.5959 308.295 59.6825C304.494 67.3125 295.718 65.8939 295.718 65.8939C295.718 65.8939 292.005 65.6532 290.32 63.8396L289.234 61.5099C288.958 61.1046 288.766 60.6456 288.673 60.1623L287.967 56.8938L294.132 55.6553L294.584 52.1651C294.643 52.8666 294.689 53.6045 294.717 54.3649C294.784 56.1629 296.297 57.2229 296.428 59.1871C297.086 57.3546 298.852 54.7425 301.588 52.8857C302.113 52.5306 302.313 51.8516 302.041 51.2783C301.953 51.0912 301.866 50.892 301.782 50.6876L303.225 54.0081C303.225 54.0081 303.42 54.8395 310.283 56.1403Z" fill="#F4E0D3"/>
<path d="M331.219 85.3889L330.13 81.6787C332.514 80.8854 334.565 80.4645 335.747 81.1435C335.901 81.2717 336.053 81.3947 336.207 81.509C336.207 81.509 336.208 81.5107 336.212 81.5142C337.308 82.7336 334.321 84.2925 331.219 85.3907V85.3889Z" fill="#BDBDBD"/>
<path d="M267.488 76.6885L266.162 78.7809C264.772 78.2492 262.365 77.1268 263.206 75.9385C263.28 75.8329 263.372 75.7567 263.481 75.6995C264.173 75.3392 265.565 75.8935 267.486 76.6868L267.488 76.6885Z" fill="#BDBDBD"/>
<g style="mix-blend-mode:multiply" opacity="0.5">
<path d="M299.534 44.3706C299.435 45.6091 298.778 49.7748 294.375 50.168C294.298 49.5635 294.216 48.9971 294.132 48.4757C296.392 47.8851 298.203 46.1564 299.532 44.3706H299.534Z" fill="#C26E58"/>
</g>
<path d="M314.119 73.3005L320.104 99.3117H310.208C310.208 99.3117 311.386 97.7736 311.71 94.6437C311.847 93.3169 312.365 92.0507 313.25 91.0582C315.319 88.7423 314.478 79.9362 313.566 73.4009C313.516 73.0459 314.038 72.9489 314.117 73.2987L314.119 73.3005Z" fill="#E3E3E3"/>
<path d="M236.144 99.3118H347.435" stroke="#C6DDFB" stroke-miterlimit="10"/>
<path d="M289.389 36.072C289.327 36.5171 288.918 36.8289 288.474 36.7683C288.031 36.7059 287.72 36.2954 287.78 35.8503C287.842 35.4051 288.252 35.0933 288.695 35.154C289.139 35.2163 289.45 35.6268 289.389 36.072Z" fill="#363636"/>
<path d="M295.542 36.9242C295.48 37.3694 295.071 37.6812 294.627 37.6205C294.184 37.5582 293.873 37.1477 293.933 36.7025C293.995 36.2574 294.405 35.9456 294.848 36.0062C295.292 36.0685 295.603 36.4791 295.542 36.9242Z" fill="#363636"/>
<path d="M280.2 79.5569C281.292 76.6227 282.081 72.0568 280.987 69.2924C280.987 69.2924 281.018 78.0101 276.928 79.472C279.219 80.0038 280.2 79.5569 280.2 79.5569Z" fill="#E3E3E3"/>
<path d="M299.107 67.3749C299.107 67.8322 298.738 68.2028 298.282 68.2028C297.826 68.2028 297.457 67.8322 297.457 67.3749C297.457 66.9176 297.826 66.5469 298.282 66.5469C298.738 66.5469 299.107 66.9176 299.107 67.3749Z" fill="white"/>
<path d="M297.659 75.8484C297.659 76.3057 297.289 76.6764 296.834 76.6764C296.378 76.6764 296.008 76.3057 296.008 75.8484C296.008 75.3911 296.378 75.0204 296.834 75.0204C297.289 75.0204 297.659 75.3911 297.659 75.8484Z" fill="white"/>
<path d="M297.659 85.8081C297.659 86.2654 297.289 86.6361 296.834 86.6361C296.378 86.6361 296.008 86.2654 296.008 85.8081C296.008 85.3508 296.378 84.9802 296.834 84.9802C297.289 84.9802 297.659 85.3508 297.659 85.8081Z" fill="white"/>
<path d="M299.107 96.5265C299.563 96.5265 299.933 96.1558 299.933 95.6986C299.933 95.2413 299.563 94.8706 299.107 94.8706C298.652 94.8706 298.282 95.2413 298.282 95.6986C298.282 96.1558 298.652 96.5265 299.107 96.5265Z" fill="white"/>
<path d="M293.246 34.8162C294.134 33.9068 295.998 34.1337 297.034 35.5298" stroke="#363636" stroke-miterlimit="10" stroke-linecap="round"/>
<path d="M289.88 34.5287C289.603 33.3699 288.127 33.5639 287.772 34.3849" stroke="#363636" stroke-miterlimit="10" stroke-linecap="round"/>
<path d="M262.516 84.5333L266.162 78.7826L267.488 76.6902C270.587 77.9703 275.058 79.867 280.201 79.5569C279.714 80.9028 279.354 82.3907 279.238 83.8526L269.751 99.4815C265.874 105.871 256.47 105.322 253.335 98.534C251.48 94.519 249.861 90.3671 249.231 87.0241" fill="#F4E0D3"/>
<path d="M280.2 79.5569C275.058 79.8652 270.585 77.9703 267.486 76.6902L266.923 77.5771C271.024 78.2128 276.448 82.0962 278.064 85.7821L279.235 83.8526C279.352 82.3924 279.711 80.9028 280.198 79.5569H280.2Z" fill="#CFAEA9"/>
<path d="M262.516 84.5333L265.007 89.6084C265.224 90.0536 265.893 89.9011 265.898 89.4058C265.905 88.609 265.736 87.6754 265.066 87.0241C265.022 85.1361 263.802 82.5067 263.802 82.5067L262.517 84.5333H262.516Z" fill="#CC745C"/>
<path d="M281.707 114.819H227.324L241.626 102.639H293.78C294.541 102.639 294.89 103.592 294.31 104.085L281.707 114.819Z" fill="white"/>
<path d="M291.789 104.515L282.496 112.194" stroke="#C6DDFB" stroke-miterlimit="10"/>
<path d="M281.707 114.819H227.324L241.626 102.639H281.707V114.819Z" fill="#E2EEFD"/>
<path d="M281.707 114.819H229.102C228.066 114.819 227.176 114.088 226.968 113.07L220.848 82.9311C220.639 81.8988 221.425 80.934 222.475 80.934H272.838C273.993 80.934 274.989 81.7498 275.221 82.8861L281.705 114.819H281.707Z" fill="white"/>
<path d="M278.321 109.415L273.045 83.4317C272.933 82.8774 272.446 82.479 271.882 82.479H227.504" stroke="#C6DDFB" stroke-miterlimit="10"/>
<path d="M326.074 116.359L294.462 117.657C294.462 117.657 289.648 118.975 285.888 117.657L282.397 117.482C282.397 117.482 279.216 118.996 278.756 118.242C278.465 117.762 281.513 115.869 283.908 115.573C281.38 115.802 279.904 115.705 279.904 115.705C279.904 115.705 277.282 117.65 276.526 116.955C276.001 116.474 276.79 115.803 276.79 115.803C276.79 115.803 275.809 116.174 275.521 115.692C274.951 114.748 278.789 113.006 278.789 113.006L282.496 111.622L278.559 112.214C278.559 112.214 276.854 113.507 275.623 113.574C275.065 113.602 274.861 112.841 275.357 112.576L278.629 110.82C280.907 109.599 283.557 109.27 286.064 109.902L292.112 111.423L320.883 102.601L320.106 99.31L316.779 85.2383C320.087 85.9121 325.686 83.1528 330.131 81.6788L331.221 85.389L336.165 102.236C338.184 109.116 333.218 116.065 326.078 116.359H326.074Z" fill="#F4E0D3"/>
<path d="M331.342 85.8081L331.219 85.389L330.13 81.6788C326.435 82.9051 321.945 85.0166 318.633 85.3076C321.729 86.0628 328.189 84.3618 331.342 85.8064V85.8081Z" fill="#CFAEA9"/>
<path d="M277.423 115.33L279.872 113.948L283.766 113.399" stroke="#CFAEA9" stroke-linecap="round" stroke-linejoin="round"/>
<path d="M320.881 102.603C322.594 102.045 324.969 102.092 326.938 102.62C327.537 102.781 327.863 101.936 327.305 101.664C325.073 100.569 321.952 100.147 320.336 100.297L320.88 102.604L320.881 102.603Z" fill="#CFAEA9"/>
<path d="M303.762 24.0857C305.464 24.491 306.55 27.401 305.464 24.491C309.652 25.8161 312.137 29.3756 311.346 36.1118" fill="#B0423E"/>
<path d="M303.762 24.0857L305.464 24.491C309.652 25.8161 312.137 29.3756 311.346 36.1118" fill="#363636"/>
<path d="M291.04 36.3526C291.04 36.3526 290.914 37.624 289.88 38.1124C288.845 38.6009 291.04 39.4825 291.04 39.4825" stroke="#363636" stroke-miterlimit="10" stroke-linecap="round"/>
<path d="M289.88 43.0525C289.88 43.0525 292.157 43.9809 294.134 41.8296" stroke="#363636" stroke-miterlimit="10" stroke-linecap="round"/>
<path d="M344.464 91.6125C341.811 91.8965 341.37 92.3382 341.087 95.0005C341.077 95.0975 340.935 95.0975 340.927 95.0005C340.644 92.3382 340.203 91.8965 337.55 91.6125C337.453 91.6021 337.453 91.4618 337.55 91.4514C340.203 91.1673 340.645 90.7256 340.927 88.0633C340.937 87.9664 341.079 87.9664 341.087 88.0633C341.37 90.7256 341.811 91.1673 344.464 91.4514C344.561 91.4618 344.561 91.6038 344.464 91.6125Z" fill="white"/>
<path d="M184.182 26.1301C178.165 26.8472 177.174 27.8657 176.606 33.9195C176.586 34.1394 176.266 34.1446 176.24 33.9247C175.526 27.8882 174.51 26.894 168.477 26.3241C168.257 26.3033 168.252 25.9829 168.471 25.9569C174.488 25.2398 175.479 24.2213 176.047 18.1675C176.068 17.9476 176.387 17.9424 176.413 18.1623C177.128 24.1988 178.143 25.193 184.177 25.7629C184.396 25.7837 184.401 26.1041 184.182 26.1301Z" fill="white"/>
<path d="M310.208 34.9583C310.208 34.9583 313.249 44.2563 321.301 48.6922C329.353 53.1282 319.105 60.1623 319.105 60.1623" stroke="#363636" stroke-width="2" stroke-miterlimit="10"/>
<path d="M252.982 31.6967H195.787C194.834 31.6967 194.061 32.4722 194.061 33.4288V67.5602C194.061 68.5168 194.834 69.2923 195.787 69.2923H252.982C253.936 69.2923 254.709 68.5168 254.709 67.5602V33.4288C254.709 32.4722 253.936 31.6967 252.982 31.6967Z" fill="white"/>
<path d="M194.061 39.299H254.709" stroke="#CCCCCC" stroke-miterlimit="10"/>
<path d="M198.584 37.0108C199.263 37.0108 199.813 36.4586 199.813 35.7775C199.813 35.0964 199.263 34.5443 198.584 34.5443C197.905 34.5443 197.355 35.0964 197.355 35.7775C197.355 36.4586 197.905 37.0108 198.584 37.0108Z" fill="#CCCCCC"/>
<path d="M202.525 37.0108C203.204 37.0108 203.755 36.4586 203.755 35.7775C203.755 35.0964 203.204 34.5443 202.525 34.5443C201.847 34.5443 201.296 35.0964 201.296 35.7775C201.296 36.4586 201.847 37.0108 202.525 37.0108Z" fill="#CCCCCC"/>
<path d="M206.343 37.0108C207.022 37.0108 207.572 36.4586 207.572 35.7775C207.572 35.0964 207.022 34.5443 206.343 34.5443C205.664 34.5443 205.113 35.0964 205.113 35.7775C205.113 36.4586 205.664 37.0108 206.343 37.0108Z" fill="#CCCCCC"/>
<path d="M208.601 61.0561C212.869 61.0561 216.328 57.585 216.328 53.3032V52.4423C216.328 48.1605 212.869 44.6893 208.601 44.6893C204.333 44.6893 200.873 48.1605 200.873 52.4423V53.3032C200.873 57.585 204.333 61.0561 208.601 61.0561Z" fill="#ACC9EF"/>
<mask id="mask0_163_158" style="mask-type:luminance" maskUnits="userSpaceOnUse" x="200" y="44" width="17" height="18">
<path d="M208.601 61.0561C212.869 61.0561 216.328 57.585 216.328 53.3032V52.4423C216.328 48.1605 212.869 44.6893 208.601 44.6893C204.333 44.6893 200.873 48.1605 200.873 52.4423V53.3032C200.873 57.585 204.333 61.0561 208.601 61.0561Z" fill="white"/>
</mask>
<g mask="url(#mask0_163_158)">
<path d="M208.677 68.1145C212.202 68.1145 215.059 65.2479 215.059 61.7109V60.999C215.059 57.462 212.202 54.5953 208.677 54.5953C205.151 54.5953 202.294 57.462 202.294 60.999V61.7109C202.294 65.2479 205.151 68.1145 208.677 68.1145Z" fill="#DCE9FA"/>
<path d="M208.677 55.2137C210.871 55.2137 212.649 53.4296 212.649 51.2281V50.7847C212.649 48.5832 210.871 46.7991 208.677 46.7991C206.482 46.7991 204.704 48.5832 204.704 50.7847V51.2281C204.704 53.4296 206.482 55.2137 208.677 55.2137Z" fill="#DCE9FA"/>
</g>
<path d="M246.228 45.7753H221.112V46.9462H246.228V45.7753Z" fill="#CCCCCC"/>
<path d="M227.823 56.421H221.803C221.421 56.421 221.112 56.7312 221.112 57.1138V60.7755C221.112 61.1582 221.421 61.4684 221.803 61.4684H227.823C228.204 61.4684 228.513 61.1582 228.513 60.7755V57.1138C228.513 56.7312 228.204 56.421 227.823 56.421Z" fill="#CCCCCC"/>
<path d="M236.357 56.421H230.337C229.955 56.421 229.646 56.7312 229.646 57.1138V60.7755C229.646 61.1582 229.955 61.4684 230.337 61.4684H236.357C236.738 61.4684 237.047 61.1582 237.047 60.7755V57.1138C237.047 56.7312 236.738 56.421 236.357 56.421Z" fill="#CCCCCC"/>
<path d="M245.101 56.421H239.081C238.7 56.421 238.39 56.7312 238.39 57.1138V60.7755C238.39 61.1582 238.7 61.4684 239.081 61.4684H245.101C245.482 61.4684 245.792 61.1582 245.792 60.7755V57.1138C245.792 56.7312 245.482 56.421 245.101 56.421Z" fill="#CCCCCC"/>
<path d="M239.545 49.3245H221.112V50.4954H239.545V49.3245Z" fill="#CCCCCC"/>
<path d="M239.545 52.8735H221.112V54.0444H239.545V52.8735Z" fill="#CCCCCC"/>
<path d="M296.599 28.0228C296.599 28.0228 290.919 34.2758 302.629 37.6621" stroke="#363636" stroke-width="2" stroke-miterlimit="10"/>
<path fill-rule="evenodd" clip-rule="evenodd" d="M251.384 98.8268L253.562 98.5566L253.295 96.3793L251.116 96.6495L251.384 98.8268ZM251.933 94.3059C250.118 94.538 248.835 96.2026 249.067 98.0231C249.298 99.8435 250.957 101.13 252.772 100.898C254.581 100.666 255.864 99.0104 255.639 97.1934C255.411 95.3695 253.752 94.0756 251.933 94.3042V94.3059Z" fill="#DCE9FA"/>
<path fill-rule="evenodd" clip-rule="evenodd" d="M251.643 91.9572V91.952C251.603 91.6333 251.313 91.4063 250.995 91.4462L248.26 91.7857V91.7822C244.827 92.2291 242.403 95.385 242.85 98.8302C243.295 102.275 246.441 104.706 249.875 104.259V104.252L252.53 103.923C252.846 103.883 253.072 103.595 253.036 103.278H253.038L252.741 100.871L249.429 101.281C247.629 101.467 246.02 100.15 245.835 98.3435C245.655 96.5837 246.897 94.9953 248.644 94.7511V94.7441L251.936 94.3354L251.643 91.9554V91.9572Z" fill="#DCE9FA"/>
<defs>
<linearGradient id="paint0_linear_163_158" x1="323.632" y1="36.3514" x2="309.074" y2="51.9116" gradientUnits="userSpaceOnUse">
<stop stop-color="#F0C862"/>
<stop offset="1" stop-color="#487F63"/>
</linearGradient>
<linearGradient id="paint1_linear_163_158" x1="340.68" y1="35.4121" x2="327.041" y2="57.8763" gradientUnits="userSpaceOnUse">
<stop stop-color="#487F63"/>
<stop offset="1" stop-color="#F0C862"/>
</linearGradient>
</defs>
</svg>
