<?xml version="1.0" encoding="utf-8"?>
<!-- Generator: Adobe Illustrator 28.0.0, SVG Export Plug-In . SVG Version: 6.00 Build 0)  -->
<svg version="1.1" id="圖層_1" xmlns="http://www.w3.org/2000/svg" xmlns:xlink="http://www.w3.org/1999/xlink" x="0px" y="0px"
	 viewBox="0 0 32 32" style="enable-background:new 0 0 32 32;" xml:space="preserve">
<style type="text/css">
	.st0{fill:#2A2A2A;}
	.st1{fill:none;stroke:#008061;stroke-width:2;stroke-linecap:round;}
</style>
<path class="st0" d="M1,13.1c0-1.3,0.5-2.6,1.4-3.6C3.3,8.6,4.6,8,5.9,8H10c0.3,0,5.5-0.4,10.4-4.6c0.2-0.2,0.5-0.3,0.8-0.4
	c0.3,0,0.6,0,0.9,0.1c0.3,0.1,0.5,0.3,0.7,0.6C22.9,4,23,4.4,23,4.7v16.8c0,0.3-0.1,0.6-0.3,0.9c-0.2,0.3-0.4,0.5-0.7,0.6
	c-0.3,0.1-0.6,0.2-0.9,0.1c-0.3,0-0.6-0.2-0.8-0.4c-3.8-3.3-7.8-4.3-9.5-4.5v3.3c0,0.3-0.1,0.5-0.2,0.8c-0.1,0.2-0.3,0.5-0.5,0.6
	L9,23.7C8.7,23.9,8.5,24,8.2,24s-0.5,0-0.8-0.1c-0.2-0.1-0.5-0.3-0.6-0.5c-0.2-0.2-0.3-0.4-0.4-0.7L5.2,18c-1.2-0.2-2.3-0.8-3-1.7
	C1.4,15.5,1,14.3,1,13.1z M21.4,21.5V4.7c-4.4,3.8-8.8,4.7-10.6,5v6.9C12.5,16.8,17,17.7,21.4,21.5z M8,22.3L8,22.3l1.1-0.8v-3.4
	H6.9L8,22.3z M5.9,16.4h3.3V9.7H5.9c-0.9,0-1.7,0.4-2.3,1c-0.6,0.6-1,1.5-1,2.4s0.3,1.7,1,2.4C4.2,16.1,5,16.4,5.9,16.4z"/>
<path class="st1" d="M25,10.6c0.6,1.1,1.5,3.9,0,6.8 M27.6,9c0.9,1.1,2.5,5.8,0,10"/>
</svg>
