<?xml version="1.0" encoding="utf-8"?>
<!-- Generator: Adobe Illustrator 28.0.0, SVG Export Plug-In . SVG Version: 6.00 Build 0)  -->
<svg version="1.1" id="圖層_1" xmlns="http://www.w3.org/2000/svg" xmlns:xlink="http://www.w3.org/1999/xlink" x="0px" y="0px"
	 viewBox="0 0 8 16" style="enable-background:new 0 0 8 16;" xml:space="preserve">
<style type="text/css">
	.st0{fill:#2A2A2A;}
</style>
<path class="st0" d="M7.8,14.2c0.1,0.1,0.1,0.1,0.1,0.2C8,14.5,8,14.6,8,14.7s0,0.2-0.1,0.3c0,0.1-0.1,0.2-0.1,0.2
	c-0.1,0.1-0.1,0.1-0.2,0.1c-0.1,0-0.2,0.1-0.3,0.1c-0.1,0-0.2,0-0.3-0.1c-0.1,0-0.2-0.1-0.2-0.1L0.2,8.5C0.1,8.4,0.1,8.3,0.1,8.3
	C0,8.2,0,8.1,0,8s0-0.2,0.1-0.3c0-0.1,0.1-0.2,0.1-0.2l6.7-6.7C7,0.7,7.2,0.7,7.3,0.7c0.2,0,0.3,0.1,0.5,0.2C7.9,1,8,1.2,8,1.3
	S7.9,1.7,7.8,1.8L1.6,8L7.8,14.2z"/>
</svg>
