<?xml version="1.0" encoding="utf-8"?>
<!-- Generator: Adobe Illustrator 28.0.0, SVG Export Plug-In . SVG Version: 6.00 Build 0)  -->
<svg version="1.1" id="圖層_1" xmlns="http://www.w3.org/2000/svg" xmlns:xlink="http://www.w3.org/1999/xlink" x="0px" y="0px"
	 viewBox="0 0 32 33" style="enable-background:new 0 0 32 33;" xml:space="preserve">
<style type="text/css">
	.st0{fill:#008061;}
</style>
<path class="st0" d="M28.7,27.8l-6.3-6.3c1.8-2.2,2.7-5,2.5-7.8c-0.2-2.8-1.5-5.5-3.6-7.4c-2.1-1.9-4.8-2.9-7.7-2.9
	c-2.8,0.1-5.5,1.2-7.5,3.2c-2,2-3.2,4.7-3.2,7.5c-0.1,2.8,1,5.6,2.9,7.7c1.9,2.1,4.6,3.4,7.4,3.6c2.8,0.2,5.6-0.7,7.8-2.5l6.3,6.3
	c0.1,0.1,0.2,0.2,0.3,0.2c0.1,0.1,0.3,0.1,0.4,0.1s0.3,0,0.4-0.1c0.1-0.1,0.2-0.1,0.3-0.2c0.1-0.1,0.2-0.2,0.2-0.3
	c0.1-0.1,0.1-0.3,0.1-0.4s0-0.3-0.1-0.4C28.9,28,28.8,27.9,28.7,27.8z M5,14.5c0-1.8,0.5-3.5,1.5-5c1-1.5,2.4-2.6,4-3.3
	c1.6-0.7,3.5-0.9,5.2-0.5c1.7,0.3,3.3,1.2,4.6,2.5s2.1,2.9,2.5,4.6c0.3,1.7,0.2,3.6-0.5,5.2c-0.7,1.6-1.8,3.1-3.3,4
	c-1.5,1-3.2,1.5-5,1.5c-2.4,0-4.7-1-6.4-2.6C6,19.2,5,16.9,5,14.5z"/>
</svg>
